<svg width="10" height="9" viewBox="0 0 10 9" fill="rgb(191, 164, 235)" xmlns="http://www.w3.org/2000/svg">
<path d="M5.6 1L5.6 0.4L4.4 0.4L4.4 1L5.6 1ZM4.57574 8.42426C4.81005 8.65858 5.18995 8.65858 5.42426 8.42426L9.24264 4.60589C9.47696 4.37157 9.47696 3.99167 9.24264 3.75736C9.00833 3.52304 8.62843 3.52304 8.39411 3.75736L5 7.15147L1.60589 3.75736C1.37157 3.52304 0.991674 3.52304 0.757359 3.75736C0.523044 3.99167 0.523044 4.37157 0.757359 4.60589L4.57574 8.42426ZM4.4 1L4.4 8L5.6 8L5.6 1L4.4 1Z" fill="white"/>
</svg>
