<svg width="300" height="88" viewBox="0 0 300 88" fill="none" xmlns="http://www.w3.org/2000/svg">
<path d="M2.5232 84.0177C2.5232 85.3436 3.46776 86.1405 4.68038 86.1405C4.97493 86.1405 5.25228 86.0971 5.51208 86.019V84.6588H4.27331V83.5411H6.69029V86.7988C6.08398 87.1714 5.41676 87.3965 4.73234 87.3965C2.70523 87.3965 1.28442 86.0452 1.28442 84.0177C1.28442 81.9903 2.79194 80.6476 4.62842 80.6476C5.33005 80.6476 6.08398 80.821 6.69029 81.2453V82.7356C6.22231 82.216 5.58159 81.8519 4.75849 81.8519C3.46776 81.8519 2.5232 82.6578 2.5232 84.0177Z" fill="#281B49"/>
<path d="M22.5808 80.6476H23.8891V86.0018H26.0807V87.1453H22.5808V80.6476Z" fill="#281B49"/>
<path d="M46.3696 83.983C46.3696 82.8048 45.6766 81.9039 44.4636 81.9039C43.2507 81.9039 42.5404 82.8048 42.5404 83.983C42.5404 85.1522 43.2507 86.0538 44.4636 86.0538C45.6766 86.0538 46.3696 85.1522 46.3696 83.983ZM41.2927 83.983C41.2927 82.1379 42.5752 80.6476 44.4636 80.6476C46.3435 80.6476 47.6345 82.1379 47.6345 83.983C47.6345 85.8281 46.3435 87.3184 44.4636 87.3184C42.5752 87.3184 41.2927 85.8281 41.2927 83.983Z" fill="#281B49"/>
<path d="M66.7572 85.2135C66.7572 84.7892 66.4107 84.4251 65.9685 84.4251H64.5305V86.0018H65.9685C66.4107 86.0018 66.7572 85.6378 66.7572 85.2135ZM65.5009 81.7824H64.5305V83.3681H65.5009C65.9341 83.3681 66.2806 82.9957 66.2806 82.5711C66.2806 82.1465 65.9341 81.7824 65.5009 81.7824ZM68.0655 85.3783C68.0655 86.4956 67.2249 87.1453 66.1595 87.1453H63.2312V80.6476H65.6568C66.7311 80.6476 67.5803 81.3148 67.5803 82.441C67.5803 83.0907 67.303 83.5325 66.8525 83.7927C67.5717 84.0091 68.0655 84.5201 68.0655 85.3783Z" fill="#281B49"/>
<path d="M86.9915 84.8408L85.9258 81.9734L84.8515 84.8408H86.9915ZM87.3899 85.9151H84.453L83.994 87.1453H82.5818L85.1894 80.6476H86.6536L89.2612 87.1453H87.8493L87.3899 85.9151Z" fill="#281B49"/>
<path d="M105.167 80.6476H106.475V86.0018H108.666V87.1453H105.167V80.6476Z" fill="#281B49"/>
<path d="M145.286 81.7824H143.623V87.1453H142.332V81.7824H140.66V80.6476H145.286V81.7824Z" fill="#281B49"/>
<path d="M161.295 85.0487V80.6476H162.603V84.8147C162.603 85.5252 163.201 86.0882 163.955 86.0882C164.708 86.0882 165.306 85.5252 165.306 84.8147V80.6476H166.614V85.0487C166.614 86.2702 165.445 87.232 163.955 87.232C162.465 87.232 161.295 86.2702 161.295 85.0487Z" fill="#281B49"/>
<path d="M186.579 81.7824H184.916V87.1453H183.625V81.7824H181.953V80.6476H186.579V81.7824Z" fill="#281B49"/>
<path d="M207.022 83.983C207.022 82.8048 206.329 81.9039 205.116 81.9039C203.904 81.9039 203.193 82.8048 203.193 83.983C203.193 85.1522 203.904 86.0538 205.116 86.0538C206.329 86.0538 207.022 85.1522 207.022 83.983ZM201.946 83.983C201.946 82.1379 203.228 80.6476 205.116 80.6476C206.996 80.6476 208.287 82.1379 208.287 83.983C208.287 85.8281 206.996 87.3184 205.116 87.3184C203.228 87.3184 201.946 85.8281 201.946 83.983Z" fill="#281B49"/>
<path d="M227.306 82.5794C227.306 82.1289 226.96 81.7824 226.518 81.7824H225.192V83.3763H226.518C226.968 83.3763 227.306 83.0302 227.306 82.5794ZM228.718 87.1453H227.254L225.833 84.3904H225.192V87.1453H223.884V80.6476H226.57C227.644 80.6476 228.493 81.5051 228.493 82.588C228.493 83.4458 227.93 84.1044 227.141 84.3037L228.718 87.1453Z" fill="#281B49"/>
<path d="M245.189 80.6476H243.881V87.1453H245.189V80.6476Z" fill="#281B49"/>
<path d="M267.265 80.6476V87.1453H265.931L262.613 82.6227V87.1453H261.305V80.6476H262.639L265.966 85.1612V80.6476H267.265Z" fill="#281B49"/>
<path d="M284.485 84.0177C284.485 85.3436 285.43 86.1405 286.643 86.1405C286.937 86.1405 287.214 86.0971 287.474 86.019V84.6588H286.235V83.5411H288.652V86.7988C288.046 87.1714 287.379 87.3965 286.694 87.3965C284.667 87.3965 283.247 86.0452 283.247 84.0177C283.247 81.9903 284.754 80.6476 286.591 80.6476C287.292 80.6476 288.046 80.821 288.652 81.2453V82.7356C288.184 82.216 287.544 81.8519 286.721 81.8519C285.43 81.8519 284.485 82.6578 284.485 84.0177Z" fill="#281B49"/>
<path d="M7.31254 32.602C8.9577 30.2253 11.4968 29.0371 14.9296 29.0371C19.0327 29.0371 22.547 30.4995 25.4722 33.4244C28.3768 36.3297 29.8293 39.8437 29.8293 43.9671V59.354H22.5168V43.9671C22.5168 41.8749 21.7749 40.0773 20.2925 38.5739C18.7887 37.0912 17.0018 36.3497 14.9296 36.3497C12.8375 36.3497 11.0498 37.0912 9.56711 38.5739C8.08436 40.057 7.3325 41.824 7.31254 43.8755V59.354H0V30.0732H7.31254V32.602Z" fill="#281B49"/>
<path d="M40.714 38.7873C39.0885 40.4125 38.2768 42.3725 38.2768 44.668C38.2768 46.9635 39.0885 48.9235 40.714 50.5484C42.3385 52.1736 44.2989 52.986 46.5948 52.986C48.8896 52.986 50.8496 52.1736 52.4751 50.5484C54.0794 48.9438 54.8925 47.0038 54.9124 44.7289V44.5765C54.8925 42.3216 54.0794 40.3922 52.4751 38.7873C50.8496 37.1624 48.8896 36.3496 46.5948 36.3496C44.2989 36.3496 42.3385 37.1624 40.714 38.7873ZM62.225 30.0123V59.2931H54.9124V56.2158C53.1654 58.938 50.3926 60.2986 46.5948 60.2986C42.2876 60.2986 38.6009 58.7749 35.5342 55.7282C32.4872 52.6612 30.9639 48.9745 30.9639 44.668C30.9639 40.3412 32.4872 36.6545 35.5342 33.6075C38.6009 30.5605 42.2876 29.0371 46.5948 29.0371C50.3926 29.0371 53.1654 30.3984 54.9124 33.1199V30.0123H62.225Z" fill="#281B49"/>
<path d="M73.0117 38.8176C71.3665 40.4431 70.5437 42.4127 70.5437 44.7286C70.5437 47.0444 71.3665 49.0247 73.0117 50.6702C74.6369 52.2954 76.6072 53.1075 78.9227 53.1075C81.2385 53.1075 83.2085 52.2954 84.8337 50.6702C86.4792 49.0247 87.3019 47.0444 87.3019 44.7286C87.3019 42.4127 86.4792 40.4431 84.8337 38.8176C83.2085 37.1721 81.2385 36.3496 78.9227 36.3496C76.6072 36.3496 74.6369 37.1721 73.0117 38.8176ZM78.9227 29.0371C83.2494 29.0371 86.9465 30.5708 90.0138 33.6378C93.0804 36.7051 94.6145 40.4018 94.6145 44.7286C94.6145 49.076 93.0804 52.7723 90.0138 55.8194C86.9465 58.8867 83.2494 60.42 78.9227 60.42C74.5962 60.42 70.8989 58.8867 67.8319 55.8194C64.7645 52.7723 63.2312 49.076 63.2312 44.7286C63.2312 40.4018 64.7645 36.7051 67.8319 33.6378C70.8989 30.5708 74.5962 29.0371 78.9227 29.0371Z" fill="#281B49"/>
<path d="M202.802 32.602C204.447 30.2253 206.986 29.0371 210.42 29.0371C214.522 29.0371 218.037 30.4995 220.961 33.4244C223.866 36.3297 225.319 39.8437 225.319 43.9671V59.354H218.006V43.9671C218.006 41.8749 217.264 40.0773 215.782 38.5739C214.278 37.0912 212.491 36.3497 210.42 36.3497C208.327 36.3497 206.539 37.0912 205.057 38.5739C203.574 40.057 202.822 41.824 202.802 43.8755V59.354H195.489V30.0732H202.802V32.602Z" fill="#281B49"/>
<path d="M236.253 38.8176C234.607 40.4431 233.784 42.4127 233.784 44.7286C233.784 47.0444 234.607 49.0247 236.253 50.6702C237.878 52.2954 239.848 53.1075 242.164 53.1075C244.479 53.1075 246.449 52.2954 248.075 50.6702C249.72 49.0247 250.543 47.0444 250.543 44.7286C250.543 42.4127 249.72 40.4431 248.075 38.8176C246.449 37.1721 244.479 36.3496 242.164 36.3496C239.848 36.3496 237.878 37.1721 236.253 38.8176ZM242.164 29.0371C246.49 29.0371 250.187 30.5708 253.255 33.6378C256.322 36.7051 257.855 40.4018 257.855 44.7286C257.855 49.076 256.322 52.7723 253.255 55.8194C250.187 58.8867 246.49 60.42 242.164 60.42C237.837 60.42 234.14 58.8867 231.073 55.8194C228.006 52.7723 226.472 49.076 226.472 44.7286C226.472 40.4018 228.006 36.7051 231.073 33.6378C234.14 30.5708 237.837 29.0371 242.164 29.0371Z" fill="#281B49"/>
<path d="M264.776 30.0732L270.809 43.8755L278.366 29.0371L285.922 43.8453L291.955 30.0732H299.724L285.8 60.3288L278.366 44.5462L269.712 60.3288L256.793 30.0732H264.776Z" fill="#281B49"/>
<path d="M124.133 38.6322C124.529 38.5445 125.144 38.4241 125.752 38.2696C127.23 37.8945 128.706 37.5087 130.178 37.111C130.322 37.0717 130.476 36.9327 130.555 36.8112C130.655 36.6581 130.568 36.526 130.436 36.4217C127.924 34.4301 125.174 32.7006 122.111 31.318C121.144 30.8813 120.125 30.5265 119.085 30.2072C116.651 29.4595 114.088 29.2004 111.397 29.4185C111.134 29.4399 110.868 29.5004 110.608 29.5631C109.331 29.869 108.807 30.9763 108.938 31.7054C109.097 32.5881 109.444 33.3915 109.953 34.1455C111.421 36.3226 113.223 38.2754 115.13 40.159C115.356 40.3823 115.688 40.5049 116.053 40.4398C117.636 40.157 119.221 39.8724 120.777 39.4192C121.811 39.1181 122.851 38.8329 124.133 38.6322ZM143.382 43.2621C143.653 44.6162 144.041 46.1234 144.25 47.6643C145.049 53.5646 144.292 59.4629 141.756 65.3426C140.682 67.8308 139.384 70.2485 137.823 72.5811C137.091 73.6757 136.315 74.7524 135.549 75.8322C135.288 76.2011 134.833 76.2916 134.404 76.0869C134.184 75.9822 133.957 75.8849 133.745 75.7706C132.966 75.3498 132.182 74.9345 131.417 74.4971C128.143 72.6252 125.056 70.564 122.261 68.2079C120.777 66.9571 119.403 65.6237 118.177 64.1767C117.193 63.0154 116.427 61.7426 115.768 60.4126C115.065 58.9901 115.175 57.5473 116.198 56.0731C116.766 55.2542 117.4 54.4806 118.143 53.7618C119.321 52.6235 120.681 51.6583 122.069 50.7254C123.513 49.7547 126.614 48.1219 128.355 47.242C129.949 46.4365 131.619 45.7806 133.213 44.9778C133.926 44.6186 134.692 44.3492 135.429 44.0292C135.496 43.9999 135.528 43.8994 135.576 43.832C135.512 43.8141 135.448 43.7776 135.382 43.7821C135.208 43.7938 135.027 43.8041 134.858 43.8495C133.209 44.2893 131.553 44.6912 129.887 45.0553C128.838 45.2844 127.801 45.59 126.763 45.8804C125.205 46.3161 123.642 46.7183 122.065 47.0741C120.666 47.39 119.28 47.7744 117.892 48.1443C117.08 48.3604 116.31 48.3139 115.548 48.1611C114.874 48.0263 114.26 47.7881 113.675 47.5001C112.8 47.069 111.999 46.5556 111.248 45.9888C110.059 45.0921 108.971 44.11 107.965 43.0643C105.845 40.861 104.001 38.4853 102.349 35.9881C101.647 34.9269 100.999 33.8372 100.415 32.7233C99.7276 31.4109 99.1691 30.0379 98.6072 28.6711C98.2111 27.708 98.1072 26.6667 98.0687 25.6193C98.0549 25.2428 98.1771 24.8695 98.3605 24.5058C98.5126 24.2047 98.7662 23.9772 99.091 23.8158C99.4097 23.6576 99.7376 23.5061 100.075 23.3898C103.086 22.3517 106.139 21.8421 109.259 21.9536C112.266 22.0609 115.091 22.6314 117.795 23.5261C120.173 24.3127 122.42 25.2972 124.57 26.421C127.076 27.7307 129.45 29.1907 131.731 30.7512C134.923 32.9356 137.958 35.2676 140.892 37.6949C141.382 38.1013 141.74 38.5651 141.982 39.114C142.551 40.403 142.973 41.7395 143.382 43.2621Z" fill="#281B49"/>
<path d="M172.415 12.7814C172.273 12.5105 172.09 12.1076 171.856 11.7301C171.575 11.2759 170.704 11.0034 170.054 11.161C169.709 11.2442 169.341 11.3354 169.045 11.5075C168.281 11.9503 167.526 12.4042 166.813 12.919C165.16 14.1123 163.794 15.5005 162.618 17.0266C161.496 18.4835 160.556 20.0134 159.76 21.5935C158.71 23.6746 157.853 25.7984 157.158 27.9546C157.112 28.0971 157.101 28.2577 157.132 28.395C157.17 28.5554 157.328 28.6246 157.514 28.618C157.6 28.6153 157.693 28.618 157.771 28.5891C159.619 27.903 161.483 27.2488 163.307 26.5097C164.469 26.039 165.62 25.5476 166.814 25.1532C168.352 24.6454 169.82 23.9895 171.277 23.3095C171.532 23.1905 171.741 23.0043 171.788 22.7817C172.297 20.3778 172.614 17.9756 172.704 15.5703C172.739 14.6595 172.614 13.7892 172.415 12.7814ZM150.062 40.2005C149.763 39.1342 149.477 38.064 149.162 37.0028C148.989 36.4216 149.01 35.8459 149.189 35.2293C150.184 31.7951 151.267 28.3744 152.549 24.9826C153.384 22.7703 154.307 20.5767 155.365 18.415C156.424 16.2516 157.597 14.1265 158.995 12.0777C160.113 10.4384 161.361 8.8689 162.786 7.39339C164.693 5.41652 166.867 3.70219 169.401 2.32922C169.951 2.03123 170.501 1.747 171.087 1.51783C172.423 0.995133 173.746 0.430113 175.161 0.135217C175.508 0.0629549 175.864 0.0433417 176.216 0.00480216C176.402 -0.015844 176.56 0.0312989 176.698 0.12283C176.894 0.253934 177.132 0.353721 177.286 0.514761C177.815 1.06911 178.248 1.68127 178.5 2.38496C178.975 3.70701 179.341 5.05452 179.541 6.45674C179.916 9.10221 180.09 11.7721 180.009 14.4771C179.931 17.1054 179.682 19.7381 179.111 22.3732C178.802 23.8023 178.401 25.2193 177.796 26.6102C177.477 27.3421 177.099 28.0516 176.617 28.7295C176.228 29.276 175.737 29.7508 175.166 30.1658C174.957 30.3182 174.712 30.4356 174.48 30.5639C174.403 30.6066 174.317 30.6396 174.233 30.6679C170.825 31.8092 167.545 33.2758 164.115 34.3608C163.432 34.5772 162.747 34.8174 162.098 35.1123C160.468 35.8538 158.718 36.3122 157.102 37.0809C157.05 37.106 157.025 37.18 156.987 37.2309C157.067 37.255 157.156 37.3152 157.227 37.2973C158.969 36.8576 160.75 36.6914 162.496 36.2809C166.023 35.7361 169.55 35.2166 173.083 35.2214C174.494 35.2234 175.886 35.294 177.238 35.5276C178.597 35.7623 179.885 36.1343 180.984 36.8208C181.252 36.989 181.52 37.1631 181.751 37.3662C181.921 37.5162 182.073 37.7003 182.158 37.8985C182.627 38.9883 182.944 40.1125 182.993 41.3247C183.07 43.1984 182.888 45.0724 182.515 46.956C182.232 48.3854 181.86 49.8069 181.419 51.2222C180.208 55.105 178.576 58.8943 176.591 62.6051C176.441 62.8862 176.234 63.1502 176.042 63.4175C175.93 63.5748 175.764 63.6254 175.571 63.5892C175.405 63.5579 175.225 63.5507 175.071 63.4987C170.63 62.0053 166.516 60.0746 162.859 57.5447C159.063 54.9185 156.013 51.7528 153.691 48.0437C152.14 45.5644 150.935 42.9547 150.062 40.2005Z" fill="#281B49"/>
<path d="M152.329 52.2134C153.029 54.4687 153.733 56.7229 154.427 58.9802C154.556 59.4024 154.649 59.836 154.75 60.2665C154.821 60.5662 154.608 60.9268 154.315 61.0452C153.4 61.4154 152.468 61.7386 151.491 61.8827C151.347 61.9041 151.161 61.8043 151.049 61.7124C150.935 61.6185 150.863 61.4739 150.815 61.3373C150.642 60.8504 150.481 60.3597 150.328 59.8663C148.969 55.4972 147.61 51.1285 146.26 46.757C146.086 46.1951 145.854 45.6479 145.813 45.0475C145.804 44.9047 145.989 44.488 146.117 44.4267C147.008 43.998 147.932 43.6776 148.918 43.5503C149.087 43.5283 149.52 43.6866 149.584 43.8032C149.657 43.9326 149.757 44.052 149.804 44.1889C149.998 44.7467 150.183 45.3073 150.359 45.8706C151.018 47.9841 151.673 50.0989 152.33 52.2134H152.329Z" fill="#281B49"/>
<path d="M148.015 38.7566C148.243 39.6107 148.475 40.4637 148.697 41.3198C148.767 41.5924 148.524 41.9812 148.242 42.0934C147.325 42.4581 146.397 42.7878 145.417 42.9203C145.273 42.9395 145.09 42.8363 144.98 42.7431C144.867 42.6477 144.795 42.5025 144.752 42.3645C144.247 40.7459 143.747 39.1258 143.257 37.5027C143.216 37.3688 143.219 37.2037 143.271 37.0657C143.321 36.9311 143.431 36.7581 143.565 36.6965C144.461 36.2839 145.399 35.9931 146.371 35.8118C146.541 35.7801 146.977 35.9302 147.031 36.0564C147.175 36.3954 147.335 36.7295 147.454 37.077C147.645 37.6352 147.808 38.2023 147.983 38.7656C147.994 38.7628 148.004 38.7597 148.015 38.7566Z" fill="#281B49"/>
<path d="M145.649 30.8675C145.279 30.6428 145.105 30.3118 145.193 29.9171C145.444 28.7912 145.733 27.6677 146.008 26.5432C146.099 26.1685 146.186 25.793 146.286 25.419C146.388 25.0357 146.357 24.6699 146.262 24.3096C146.149 23.8815 146.026 23.4562 145.926 23.0247C145.855 22.7174 145.997 22.4177 146.219 22.1631C146.437 21.9133 146.703 21.6862 146.976 21.4752C147.383 21.159 148.089 21.2653 148.342 21.6401C148.726 22.2085 148.868 22.8589 149.022 23.5041C149.091 23.7945 149.043 24.1045 148.9 24.3963C148.618 24.9724 148.32 25.5436 148.017 26.1137C147.337 27.3969 146.654 28.6794 145.96 29.9584C145.805 30.2447 145.668 30.53 145.609 30.8335L145.649 30.8675Z" fill="#281B49"/>
<path d="M142.398 31.9769C139.985 30.8382 137.654 29.596 135.313 28.3645C135.09 28.2468 134.933 28.0854 134.84 27.8872C134.53 27.2186 134.306 26.5225 134.208 25.7875C134.15 25.3567 134.652 24.8467 135.168 24.8388C135.61 24.8323 136.037 24.8849 136.418 25.0418C136.562 25.101 136.707 25.207 136.77 25.3285C136.938 25.6536 137.104 25.9874 137.195 26.3387C137.368 27.0015 137.773 27.5156 138.308 27.978C139.412 28.9343 140.482 29.9202 141.589 30.8744C141.954 31.1892 142.146 31.5715 142.282 31.993L142.398 31.9769Z" fill="#281B49"/>
<path d="M143.918 32.6614C144.736 32.3995 145.544 32.8004 145.812 33.3327C146.115 33.9342 145.707 34.78 145.051 35.089C144.731 35.2401 144.4 35.3478 144.049 35.3592C143.881 35.3643 143.706 35.3512 143.552 35.3096C142.986 35.1572 142.488 34.6124 142.603 33.9759C142.72 33.3338 143.167 32.8716 143.918 32.6614Z" fill="#281B49"/>
<path d="M145.627 30.7504C145.549 30.7634 145.471 30.7748 145.394 30.7899C145.321 30.8043 145.248 30.8221 145.175 30.8385C145.15 30.6596 145.244 30.6009 145.453 30.6716C145.522 30.6947 145.581 30.735 145.654 30.7755C145.665 30.7835 145.627 30.7504 145.627 30.7504Z" fill="#281B49"/>
<path d="M141.962 32.0634C142.003 32.0219 142.045 31.9805 142.086 31.9391C141.904 31.9275 141.897 31.9636 142.068 32.0478C142.074 32.0478 141.962 32.0634 141.962 32.0634Z" fill="#281B49"/>
</svg>
