<svg width="164" height="165" viewBox="22 10 124 135" fill="none" xmlns="http://www.w3.org/2000/svg">
<g filter="url(#filter0_d)">
<path opacity="0.4" d="M138.859 76.6323C138.859 88.4069 135.271 99.3459 129.127 108.412C121.063 120.312 108.598 128.987 94.0685 132.096C93.3692 132.246 92.6633 132.383 91.9547 132.506C91.288 132.624 90.6143 132.728 89.9405 132.82C89.4033 132.894 88.8617 132.962 88.3198 133.019C87.6877 133.089 87.0534 133.147 86.4145 133.196C85.7986 133.239 85.1804 133.276 84.5601 133.302C83.7569 133.337 82.9487 133.353 82.1384 133.353C50.8125 133.353 25.418 107.958 25.418 76.6323C25.418 66.6517 27.9971 57.2708 32.5255 49.1215C34.7086 45.1927 37.3456 41.5487 40.3668 38.2636C42.8971 35.5063 45.6986 33.0014 48.7291 30.7903C51.9148 28.466 55.348 26.4657 58.9875 24.8357C66.0553 21.6711 73.8922 19.9116 82.1386 19.9116C110.575 19.9116 134.123 40.8357 138.225 68.1289C138.644 70.9025 138.859 73.743 138.859 76.6323Z" fill="#B28EC2"/>
<g opacity="0.3">
<path d="M76.4658 97.2981C76.4658 93.5903 79.4717 90.5842 83.1798 90.5842H87.347C91.0548 90.5842 94.0609 87.5783 94.0609 83.8702C94.0609 80.1624 91.055 77.1562 87.347 77.1562H57.2503C53.5424 77.1562 50.5363 80.1622 50.5363 83.8702C50.5363 87.578 47.5304 90.5842 43.8223 90.5842H39.6554C35.9475 90.5842 32.9414 93.5901 32.9414 97.2981C32.9414 101.006 35.9473 104.012 39.6554 104.012H43.8226C47.5304 104.012 50.5365 107.018 50.5365 110.726C50.5365 114.434 53.5424 117.44 57.2505 117.44H96.4811C100.189 117.44 103.195 114.434 103.195 110.726C103.195 107.018 100.189 104.012 96.4811 104.012H83.18C79.4717 104.012 76.4658 101.006 76.4658 97.2981Z" fill="#B28EC2"/>
<path d="M138.86 76.6315C138.86 88.4061 135.272 99.3451 129.127 108.411H121.381C119.527 108.411 117.848 107.659 116.633 106.443C115.417 105.23 114.667 103.549 114.667 101.697C114.667 97.9883 111.66 94.9833 107.953 94.9833H103.786C101.932 94.9833 100.253 94.2308 99.0377 93.0154C97.8223 91.8022 97.0723 90.1215 97.0723 88.2693C97.0723 84.5604 100.077 81.5554 103.786 81.5554H107.953C109.806 81.5554 111.486 80.8029 112.7 79.5875C113.915 78.3743 114.667 76.6935 114.667 74.8414C114.667 71.1325 117.672 68.1274 121.381 68.1274H138.226C138.645 70.9017 138.86 73.7422 138.86 76.6315Z" fill="#B28EC2"/>
<path d="M101.343 58.405C101.343 62.1115 98.3376 65.119 94.6286 65.119H55.3989C53.5445 65.119 51.866 64.3665 50.6506 63.1511C49.4352 61.9379 48.685 60.2572 48.685 58.405C48.685 54.6961 45.6775 51.6911 41.971 51.6911H37.8038C35.9494 51.6911 34.2709 50.9386 33.0555 49.7232C32.8657 49.5334 32.6875 49.3319 32.5254 49.1212C34.7085 45.1924 37.3455 41.5484 40.3667 38.2634H41.9712C43.8234 38.2634 45.5041 37.5109 46.7173 36.2955C47.9327 35.0823 48.6852 33.4015 48.6852 31.5494C48.6852 31.2924 48.6991 31.0401 48.7291 30.7901C49.1042 27.4401 51.9472 24.8354 55.3989 24.8354H85.4956C87.3478 24.8354 89.0285 25.5855 90.2417 26.8011C91.4571 28.0165 92.2096 29.695 92.2096 31.5494C92.2096 35.2559 89.2021 38.2634 85.4956 38.2634H81.3284C77.6195 38.2634 74.6145 41.2684 74.6145 44.9773C74.6145 48.6838 77.6195 51.6913 81.3284 51.6913H94.6289C96.4832 51.6913 98.1618 52.4413 99.3772 53.6569C100.59 54.8721 101.343 56.5507 101.343 58.405Z" fill="#B28EC2"/>
</g>
<path d="M64.7644 99.1792L86.4154 133.195C85.7995 133.239 85.1814 133.276 84.561 133.302L63.3984 100.05L64.7644 99.1792Z" fill="#F0F0F0"/>
<path d="M88.3184 117.441H89.939V132.82C89.4018 132.894 88.8602 132.962 88.3184 133.019V117.441Z" fill="#F0F0F0"/>
<path d="M111.779 101.643L94.0688 132.096C93.3696 132.246 92.6637 132.383 91.9551 132.506L110.376 100.828L111.779 101.643Z" fill="#F0F0F0"/>
<path d="M88.9974 54.1208C85.0483 32.5149 68.2258 17.4895 51.4234 20.5607C34.6209 23.6318 24.2012 43.6365 28.1503 65.2424C32.0994 86.8483 48.9219 101.874 65.7244 98.8025C82.5268 95.7313 92.9465 75.7267 88.9974 54.1208Z" fill="#ED1C70"/>
<path d="M88.9966 54.1206C90.9281 64.6879 89.424 74.8709 85.4156 82.8758C82.094 86.3872 77.9491 88.8043 73.2188 89.6687C58.689 92.3245 44.139 79.329 40.7232 60.6428C37.3074 41.9567 46.3193 24.6542 60.8491 21.9984C62.0244 21.7836 63.197 21.6705 64.366 21.6543C76.1362 25.7911 86.0791 38.1608 88.9966 54.1206Z" fill="#F34B8F"/>
<path d="M75.5212 59.786C79.7764 59.786 83.2259 56.3365 83.2259 52.0812C83.2259 47.826 79.7764 44.3765 75.5212 44.3765C71.2659 44.3765 67.8164 47.826 67.8164 52.0812C67.8164 56.3365 71.2659 59.786 75.5212 59.786Z" fill="#F8609D"/>
<path d="M69.0325 42.6684C71.5044 42.6684 73.5083 40.6645 73.5083 38.1926C73.5083 35.7207 71.5044 33.7168 69.0325 33.7168C66.5605 33.7168 64.5566 35.7207 64.5566 38.1926C64.5566 40.6645 66.5605 42.6684 69.0325 42.6684Z" fill="#F8609D"/>
<path d="M138.748 67.679C140.544 46.8422 128.865 28.8181 112.661 27.4211C96.4578 26.024 81.8658 41.783 80.0693 62.6198C78.2728 83.4566 89.952 101.481 106.156 102.878C122.359 104.275 136.951 88.5158 138.748 67.679Z" fill="#281B49"/>
<path d="M138.748 67.6757C138.269 73.2299 136.88 78.4245 134.794 83.0269C129.795 89.9043 122.552 93.983 114.862 93.3201C101.656 92.1821 92.1358 77.4934 93.5997 60.5101C95.0634 43.5292 106.957 30.6863 120.162 31.8246C122.506 32.0265 124.731 32.6553 126.802 33.6494C135.066 40.9146 139.956 53.6585 138.748 67.6757Z" fill="#433A5B"/>
<path d="M89.1291 120.933C107.845 120.933 123.018 105.76 123.018 87.0441C123.018 68.3278 107.845 53.1553 89.1291 53.1553C70.4128 53.1553 55.2402 68.3278 55.2402 87.0441C55.2402 105.76 70.4128 120.933 89.1291 120.933Z" fill="#60B2CC"/>
<path d="M123.019 87.0434C123.019 96.7322 118.953 105.469 112.436 111.646C108.258 114.063 103.405 115.448 98.2284 115.448C82.5411 115.448 69.8242 102.731 69.8242 87.0434C69.8242 71.3561 82.5411 58.6392 98.2284 58.6392C103.405 58.6392 108.258 60.0235 112.436 62.4405C118.954 68.6173 123.019 77.3546 123.019 87.0434Z" fill="#79BFD6"/>
<g opacity="0.8">
<path d="M109.074 88.4071C113.005 88.4071 116.192 85.22 116.192 81.2885C116.192 77.357 113.005 74.1699 109.074 74.1699C105.142 74.1699 101.955 77.357 101.955 81.2885C101.955 85.22 105.142 88.4071 109.074 88.4071Z" fill="#B3DBE8"/>
<path d="M104.332 73.1356C106.67 73.1356 108.565 71.2405 108.565 68.9028C108.565 66.565 106.67 64.6699 104.332 64.6699C101.995 64.6699 100.1 66.565 100.1 68.9028C100.1 71.2405 101.995 73.1356 104.332 73.1356Z" fill="#B3DBE8"/>
</g>
<path d="M126.504 68.7385C130.34 68.7385 133.449 65.6291 133.449 61.7933C133.449 57.9576 130.34 54.8481 126.504 54.8481C122.668 54.8481 119.559 57.9576 119.559 61.7933C119.559 65.6291 122.668 68.7385 126.504 68.7385Z" fill="#4D426A"/>
<path d="M124.261 52.5234C126.371 52.5234 128.081 50.8132 128.081 48.7036C128.081 46.594 126.371 44.8838 124.261 44.8838C122.152 44.8838 120.441 46.594 120.441 48.7036C120.441 50.8132 122.152 52.5234 124.261 52.5234Z" fill="#4D426A"/>
<path opacity="0.7" d="M104.967 86.3325L104.525 86.763L100.644 90.546C99.8758 91.296 99.524 92.3749 99.7044 93.4353L100.725 99.3828C101.184 102.05 98.3848 104.083 95.9911 102.823L90.6477 100.015C89.6961 99.5145 88.5617 99.5145 87.6103 100.015L82.267 102.823C79.8732 104.083 77.0741 102.05 77.5326 99.3828L78.5536 93.4353C78.7341 92.3749 78.3846 91.296 77.6135 90.546L73.2911 86.3325C71.3556 84.4433 72.4229 81.1536 75.1016 80.7645L81.0746 79.8987C82.1373 79.7435 83.0565 79.0747 83.5309 78.1116L86.2025 72.6988C87.3995 70.2749 90.8581 70.2749 92.0551 72.6988L94.7267 78.1116C95.2013 79.0747 96.1203 79.7438 97.1854 79.8987L101.992 80.5956L103.158 80.7645C105.835 81.1536 106.905 84.4435 104.967 86.3325Z" fill="#9BCCDC"/>
<path d="M104.967 86.3326L104.525 86.7631C102.955 85.4551 101.957 83.4872 101.957 81.2879C101.957 81.054 101.969 80.8225 101.992 80.5957L103.159 80.7646C105.835 81.1537 106.905 84.4436 104.967 86.3326Z" fill="#B1DAE8"/>
</g>
<defs>
<filter id="filter0_d" x="0.417969" y="0.911621" width="163.512" height="163.441" filterUnits="userSpaceOnUse" color-interpolation-filters="sRGB">
<feFlood flood-opacity="0" result="BackgroundImageFix"/>
<feColorMatrix in="SourceAlpha" type="matrix" values="0 0 0 0 0 0 0 0 0 0 0 0 0 0 0 0 0 0 127 0"/>
<feOffset dy="6"/>
<feGaussianBlur stdDeviation="12.5"/>
<feColorMatrix type="matrix" values="0 0 0 0 0 0 0 0 0 0 0 0 0 0 0 0 0 0 0.01 0"/>
<feBlend mode="normal" in2="BackgroundImageFix" result="effect1_dropShadow"/>
<feBlend mode="normal" in="SourceGraphic" in2="effect1_dropShadow" result="shape"/>
</filter>
</defs>
</svg>
