<svg width="610" height="584" viewBox="0 0 610 584" fill="none" xmlns="http://www.w3.org/2000/svg">
<g opacity="0.07" filter="url(#filter0_d)">
<path d="M245.197 346.044C248.071 345.282 252.552 344.214 256.968 342.899C267.702 339.706 278.413 336.435 289.1 333.074C290.145 332.745 291.236 331.678 291.78 330.766C292.466 329.609 291.787 328.666 290.789 327.94C271.758 314.073 251.06 302.203 228.173 292.97C220.944 290.054 213.362 287.757 205.631 285.721C187.548 280.961 168.66 279.823 148.978 282.228C147.058 282.464 145.123 282.986 143.231 283.522C133.954 286.149 130.438 294.433 131.618 299.744C133.049 306.171 135.837 311.965 139.793 317.349C151.217 332.886 165.021 346.68 179.577 359.934C181.304 361.506 183.777 362.307 186.433 361.721C197.974 359.171 209.514 356.609 220.802 352.819C228.301 350.303 235.844 347.9 245.197 346.044ZM387.834 374.277C390.232 384.132 393.526 395.077 395.519 406.324C403.144 449.384 399.348 492.897 382.489 536.804C375.355 555.382 366.55 573.513 355.79 591.099C350.742 599.347 345.373 607.48 340.074 615.635C338.263 618.418 334.957 619.219 331.741 617.845C330.094 617.143 328.405 616.496 326.814 615.72C320.972 612.865 315.098 610.049 309.353 607.068C284.767 594.309 261.491 580.104 240.277 563.648C229.015 554.912 218.538 545.536 209.105 535.283C201.535 527.054 195.533 517.941 190.308 508.379C184.718 498.148 185.097 487.527 192.162 476.403C196.086 470.225 200.508 464.357 205.749 458.862C214.055 450.155 223.744 442.667 233.653 435.407C243.959 427.854 266.231 414.943 278.746 407.967C290.202 401.581 302.266 396.27 313.72 389.902C318.843 387.054 324.389 384.846 329.701 382.28C330.186 382.046 330.388 381.298 330.723 380.788C330.243 380.677 329.764 380.427 329.284 380.479C328.006 380.62 326.686 380.748 325.454 381.131C313.485 384.85 301.453 388.295 289.338 391.462C281.703 393.458 274.184 396.009 266.655 398.45C255.353 402.112 244.002 405.53 232.538 408.613C222.366 411.346 212.305 414.583 202.229 417.71C196.336 419.539 190.669 419.429 185.036 418.535C180.051 417.745 175.472 416.181 171.097 414.243C164.543 411.339 158.509 407.811 152.83 403.877C143.837 397.65 135.564 390.768 127.865 383.394C111.647 367.856 97.4087 350.972 84.5393 333.138C79.0692 325.561 73.9951 317.757 69.3767 309.757C63.9359 300.332 59.4277 290.422 54.8972 280.559C51.7036 273.61 50.6302 265.999 50.0349 258.322C49.8216 255.564 50.6051 252.788 51.843 250.063C52.8689 247.809 54.6616 246.065 56.9966 244.785C59.2897 243.528 61.6512 242.319 64.0949 241.363C85.8831 232.844 108.129 228.195 131.059 228.082C153.163 227.973 174.062 231.318 194.172 237.076C211.861 242.139 228.642 248.694 244.756 256.298C263.54 265.164 281.395 275.169 298.6 285.942C322.677 301.019 345.647 317.227 367.898 334.166C371.62 336.998 374.38 340.298 376.322 344.253C380.883 353.541 384.381 363.225 387.834 374.277Z" fill="#9C96B5"/>
<path d="M594.113 140.963C592.989 139.017 591.523 136.113 589.696 133.414C587.495 130.166 581.021 128.425 576.298 129.775C573.793 130.488 571.121 131.27 568.995 132.62C563.523 136.099 558.118 139.652 553.038 143.643C541.265 152.894 531.657 163.488 523.482 175.041C515.679 186.066 509.241 197.573 503.866 209.408C496.786 224.995 491.126 240.835 486.671 256.866C486.377 257.925 486.34 259.107 486.615 260.104C486.936 261.271 488.118 261.731 489.484 261.628C490.111 261.58 490.797 261.576 491.36 261.341C504.719 255.752 518.196 250.398 531.365 244.428C539.756 240.626 548.057 236.675 556.698 233.426C567.831 229.239 578.409 223.99 588.901 218.563C590.733 217.615 592.212 216.186 592.492 214.537C595.514 196.745 597.122 179.02 597.067 161.343C597.046 154.649 595.871 148.299 594.113 140.963ZM438.25 348.85C435.744 341.115 433.322 333.348 430.692 325.654C429.248 321.439 429.236 317.208 430.361 312.63C436.636 287.13 443.568 261.706 451.957 236.431C457.43 219.946 463.544 203.574 470.665 187.391C477.792 171.201 485.767 155.254 495.415 139.802C503.132 127.44 511.825 115.55 521.834 104.295C535.245 89.2174 550.688 75.9897 568.874 65.1583C572.823 62.8066 576.771 60.5567 581.001 58.6999C590.652 54.4635 600.189 49.9246 610.486 47.3388C613.012 46.7045 615.617 46.455 618.189 46.0646C619.553 45.8583 620.729 46.158 621.764 46.7895C623.243 47.6914 625.017 48.3536 626.195 49.4897C630.246 53.3999 633.6 57.7631 635.666 62.8512C639.545 72.4113 642.637 82.1916 644.515 92.4208C648.059 111.724 650.134 131.266 650.346 151.14C650.554 170.453 649.518 189.846 646.115 209.354C644.27 219.934 641.751 230.455 637.725 240.842C635.606 246.309 633.04 251.629 629.702 256.747C627.015 260.872 623.552 264.505 619.489 267.721C617.996 268.902 616.234 269.834 614.569 270.845C614.016 271.182 613.398 271.45 612.785 271.684C588.119 281.075 564.488 292.817 539.641 301.803C534.686 303.594 529.737 305.561 525.063 307.921C513.32 313.848 500.611 317.734 488.983 323.859C488.607 324.057 488.447 324.607 488.186 324.993C488.783 325.145 489.45 325.561 489.966 325.408C502.621 321.662 515.635 319.91 528.326 316.374C554.053 311.327 579.778 306.462 605.712 305.444C616.065 305.037 626.298 305.139 636.295 306.45C646.337 307.766 655.896 310.111 664.165 314.823C666.188 315.976 668.205 317.176 669.956 318.596C671.251 319.646 672.42 320.952 673.105 322.38C676.875 330.239 679.53 338.394 680.257 347.275C681.381 361.001 680.6 374.811 678.424 388.745C676.775 399.319 674.472 409.86 671.655 420.38C663.924 449.235 653.083 477.531 639.624 505.355C638.604 507.462 637.162 509.462 635.839 511.48C635.06 512.668 633.858 513.09 632.433 512.881C631.202 512.699 629.882 512.702 628.734 512.367C595.697 502.732 564.93 489.791 537.34 472.316C508.697 454.176 485.367 431.852 467.227 405.326C455.101 387.597 445.482 368.801 438.25 348.85Z" fill="#9C96B5"/>
<path d="M456.114 436.701C461.926 453.043 467.762 469.375 473.527 485.734C474.604 488.793 475.417 491.947 476.287 495.078C476.89 497.255 475.434 499.967 473.326 500.922C466.717 503.912 459.978 506.56 452.849 507.91C451.796 508.109 450.404 507.432 449.557 506.792C448.688 506.138 448.121 505.098 447.725 504.11C446.314 500.589 444.982 497.034 443.71 493.461C432.436 461.803 421.161 430.147 409.946 398.468C408.505 394.396 406.637 390.451 406.16 386.056C406.047 385.013 407.282 381.899 408.202 381.41C414.612 377.999 421.296 375.371 428.496 374.143C429.727 373.932 432.953 374.962 433.464 375.8C434.03 376.729 434.801 377.573 435.192 378.566C436.779 382.6 438.306 386.661 439.764 390.743C445.234 406.054 450.669 421.38 456.118 436.7C456.117 436.7 456.116 436.701 456.114 436.701Z" fill="#9C96B5"/>
<path d="M421.374 338.595C423.302 344.795 425.26 350.986 427.144 357.201C427.742 359.18 426.072 362.108 424.036 363.014C417.418 365.965 410.698 368.661 403.553 369.924C402.499 370.11 401.123 369.408 400.287 368.756C399.432 368.088 398.863 367.045 398.505 366.046C394.313 354.319 390.162 342.578 386.082 330.812C385.744 329.843 385.717 328.629 386.055 327.602C386.384 326.599 387.136 325.296 388.103 324.803C394.552 321.509 401.353 319.094 408.432 317.474C409.668 317.191 412.918 318.162 413.348 319.073C414.505 321.518 415.778 323.922 416.755 326.436C418.324 330.475 419.69 334.588 421.141 338.672C421.219 338.646 421.296 338.62 421.374 338.595Z" fill="#9C96B5"/>
<path d="M400.027 280.78C397.245 279.241 395.875 276.864 396.402 273.941C397.904 265.602 399.694 257.272 401.373 248.938C401.932 246.16 402.456 243.379 403.077 240.605C403.714 237.761 403.372 235.085 402.567 232.469C401.614 229.364 400.584 226.279 399.722 223.142C399.109 220.909 400.064 218.666 401.615 216.731C403.136 214.831 405.026 213.086 406.961 211.456C409.859 209.014 415.074 209.584 417.041 212.258C420.028 216.317 421.262 221.046 422.585 225.734C423.18 227.847 422.915 230.136 421.955 232.32C420.061 236.631 418.039 240.913 415.99 245.187C411.377 254.806 406.753 264.423 402.042 274.015C400.985 276.163 400.069 278.296 399.725 280.542L400.027 280.78Z" fill="#9C96B5"/>
<path d="M377.573 291.603C359.526 283.967 342.046 275.544 324.503 267.207C322.829 266.411 321.623 265.272 320.889 263.846C318.41 259.032 316.562 253.992 315.622 248.623C315.07 245.481 318.6 241.588 322.38 241.377C325.628 241.197 328.773 241.455 331.62 242.494C332.69 242.886 333.788 243.62 334.285 244.491C335.616 246.829 336.932 249.228 337.707 251.779C339.171 256.59 342.299 260.242 346.36 263.479C354.752 270.168 362.893 277.082 371.303 283.754C374.078 285.956 375.601 288.702 376.724 291.756L377.573 291.603Z" fill="#9C96B5"/>
<path d="M390.217 296.008C396.147 293.843 402.195 296.543 404.32 300.371C406.724 304.694 403.983 311.023 399.263 313.486C396.957 314.691 394.557 315.58 391.989 315.767C390.757 315.857 389.466 315.811 388.323 315.552C384.128 314.601 380.309 310.755 380.965 306.049C381.629 301.3 384.776 297.776 390.217 296.008Z" fill="#9C96B5"/>
<path d="M399.717 280.555C399.137 280.677 398.555 280.787 397.977 280.924C397.428 281.054 396.885 281.211 396.338 281.358C396.094 280.015 396.788 279.545 398.386 280.015C398.909 280.17 399.364 280.453 399.935 280.734C400.02 280.793 399.717 280.555 399.717 280.555Z" fill="#9C96B5"/>
<path d="M376.73 291.915L377.636 290.931C376.25 290.897 376.203 291.176 377.535 291.764C377.579 291.761 376.73 291.915 376.73 291.915Z" fill="#9C96B5"/>
</g>
<defs>
<filter id="filter0_d" x="0" y="0" width="730.768" height="672.502" filterUnits="userSpaceOnUse" color-interpolation-filters="sRGB">
<feFlood flood-opacity="0" result="BackgroundImageFix"/>
<feColorMatrix in="SourceAlpha" type="matrix" values="0 0 0 0 0 0 0 0 0 0 0 0 0 0 0 0 0 0 127 0"/>
<feOffset dy="4"/>
<feGaussianBlur stdDeviation="25"/>
<feColorMatrix type="matrix" values="0 0 0 0 0.611765 0 0 0 0 0.588235 0 0 0 0 0.709804 0 0 0 0.12 0"/>
<feBlend mode="normal" in2="BackgroundImageFix" result="effect1_dropShadow"/>
<feBlend mode="normal" in="SourceGraphic" in2="effect1_dropShadow" result="shape"/>
</filter>
</defs>
</svg>
