<svg width="41" height="40" viewBox="0 0 41 40" fill="none" xmlns="http://www.w3.org/2000/svg">
<path d="M20.5871 24.6748H17.1063C16.4353 24.6748 15.8482 25.22 15.8482 25.9329V28.0717C15.8482 28.7427 16.3934 29.3298 17.1063 29.3298H20.5871C21.2581 29.3298 21.8452 28.7846 21.8452 28.0717V25.9329C21.8452 25.2619 21.2581 24.6748 20.5871 24.6748Z" fill="white"/>
<path d="M11.6126 24.6748H8.13178C7.46078 24.6748 6.87366 25.22 6.87366 25.9329V28.0717C6.87366 28.7427 7.41885 29.3298 8.13178 29.3298H11.6126C12.2836 29.3298 12.8707 28.7846 12.8707 28.0717V25.9329C12.8707 25.2619 12.2836 24.6748 11.6126 24.6748Z" fill="white"/>
<path d="M20.5871 16.8325H17.1063C16.4353 16.8325 15.8482 17.3777 15.8482 18.0907V20.2295C15.8482 20.9005 16.3934 21.4876 17.1063 21.4876H20.5871C21.2581 21.4876 21.8452 20.9424 21.8452 20.2295V18.0907C21.8452 17.4197 21.2581 16.8325 20.5871 16.8325Z" fill="white"/>
<path d="M11.6126 16.8325H8.13178C7.46078 16.8325 6.87366 17.3777 6.87366 18.0907V20.2295C6.87366 20.9005 7.41885 21.4876 8.13178 21.4876H11.6126C12.2836 21.4876 12.8707 20.9424 12.8707 20.2295V18.0907C12.8707 17.4197 12.2836 16.8325 11.6126 16.8325Z" fill="white"/>
<path d="M29.5617 16.8325H26.0809C25.4099 16.8325 24.8228 17.3777 24.8228 18.0907V20.2295C24.8228 20.9005 25.368 21.4876 26.0809 21.4876H29.5617C30.2327 21.4876 30.8198 20.9424 30.8198 20.2295V18.0907C30.8198 17.4197 30.2327 16.8325 29.5617 16.8325Z" fill="white"/>
<path d="M37.0685 25.0522V8.40314C37.0685 7.31278 36.6491 6.34822 35.9781 5.59335V5.55141H35.9362C35.1394 4.67073 34.0071 4.12554 32.7489 4.12554H29.6036V2.23837C29.6036 1.44156 28.9746 0.8125 28.1778 0.8125H26.039C25.2422 0.8125 24.6131 1.44156 24.6131 2.23837V4.12554H13.0384V2.23837C13.0384 1.44156 12.4094 0.8125 11.6126 0.8125H9.47376C8.67695 0.8125 8.04789 1.44156 8.04789 2.23837V4.12554H4.9026C3.64448 4.12554 2.51218 4.67073 1.71537 5.55141V5.59335C1.04437 6.34822 0.625 7.31278 0.625 8.40314V31.259C0.625 33.6074 2.55411 35.5365 4.9026 35.5365H24.9905C26.3745 38.1367 29.1004 39.898 32.2457 39.898C36.7749 39.898 40.4654 36.2075 40.4654 31.6783C40.4654 28.9524 39.1234 26.52 37.0685 25.0522ZM24.026 31.6783C24.026 32.0138 24.0679 32.3493 24.1099 32.6848H4.9026C4.10579 32.6848 3.47673 32.0558 3.47673 31.259V13.8131H34.1748V23.7102C33.5457 23.5425 32.9167 23.4586 32.2457 23.4586C27.7165 23.4586 24.026 27.1491 24.026 31.6783ZM35.6426 30.8396L32.2457 34.4881C32.036 34.6978 31.7424 34.8236 31.4489 34.8236C31.1553 34.8236 30.8618 34.6978 30.6521 34.4881L28.6391 32.3074C28.2197 31.888 28.2617 31.217 28.681 30.7976C29.1004 30.3783 29.7714 30.4202 30.1908 30.8396L31.4489 32.1816L34.049 29.3718C34.4684 28.9524 35.1394 28.9105 35.5587 29.3298C36.02 29.7492 36.062 30.4202 35.6426 30.8396Z" fill="white"/>
</svg>
