<svg width="96" height="94" viewBox="0 0 96 94" fill="none" xmlns="http://www.w3.org/2000/svg">
<path d="M82.1718 6.1H77.9718L76.7718 10.5C75.6718 14.5 71.8718 17.5 67.8718 17.5C65.6719 17.5 63.5718 16.6 62.3718 14.9C61.0718 13.2 60.6718 10.9 61.2718 8.7L61.9718 6.1H48.3718L47.1718 10.5C46.1718 14.5 42.2718 17.5 38.2718 17.5C36.0718 17.5 33.9718 16.6 32.7718 14.9C31.4718 13.2 31.0718 10.9 31.6718 8.7L32.3718 6.1H27.9718C21.2718 6.1 14.5718 11.3 12.8718 18L0.471847 63.7C-0.528153 67.3 0.0718472 70.9 2.17185 73.5C4.17185 76.1 7.27185 77.6 10.7718 77.6H16.8718V80.3C16.8718 87.4 22.6718 93.2 29.7718 93.2H82.1718C89.2718 93.2 95.0718 87.4 95.0718 80.3V19C95.0718 11.9 89.2718 6.1 82.1718 6.1ZM10.8718 69.8C10.0718 69.8 9.07185 69.6 8.47185 68.8C7.97185 68.1 7.77185 67 8.17185 65.7L18.4718 27.5H80.6718L70.9718 63.7C70.0718 67 66.5718 69.8 63.3718 69.8H10.8718ZM87.2718 80.3C87.2718 83.1 84.9718 85.4 82.1718 85.4H29.7718C26.9718 85.4 24.6718 83.1 24.6718 80.3V77.6H63.1718C69.8718 77.6 76.5718 72.4 78.2718 65.7L87.1718 32.5V80.3H87.2718Z" fill="#7048E8"/>
<path d="M38.2718 13.9C40.6718 13.9 43.0718 12 43.6718 9.6L45.0718 4.3C45.6718 1.9 44.2718 0 41.9718 0C39.5718 0 37.1718 1.9 36.5718 4.3L35.1718 9.6C34.5718 11.9 35.9718 13.9 38.2718 13.9Z" fill="#7048E8"/>
<path d="M67.8718 13.9C70.2719 13.9 72.6718 12 73.2718 9.6L74.6718 4.3C75.2718 1.9 73.8718 0 71.5718 0C69.2718 0 66.7718 1.9 66.1718 4.3L64.6718 9.6C64.0718 11.9 65.4718 13.9 67.8718 13.9Z" fill="#7048E8"/>
<path d="M49.3718 39.3L44.4719 43.1L42.1718 40C40.8718 38.3 38.4718 37.9 36.6718 39.2C34.9718 40.5 34.5718 42.9 35.8718 44.7L38.2719 48L33.1718 52C31.4718 53.3 31.1719 55.8 32.5718 57.5C33.3718 58.5 34.4718 59 35.6718 59C36.4718 59 37.3718 58.7 38.0718 58.2L42.9719 54.4L45.2719 57.5C46.0718 58.5 47.1719 59.1 48.4719 59.1C49.2719 59.1 50.0718 58.9 50.7719 58.3C52.4719 57 52.8718 54.6 51.5718 52.8L49.1718 49.5L54.2719 45.5C55.9719 44.2 56.2719 41.7 54.8718 40C53.4718 38.2 51.0718 38 49.3718 39.3Z" fill="#7048E8"/>
</svg>
