<svg width="114" height="114" viewBox="30 20 114 114" fill="none" xmlns="http://www.w3.org/2000/svg">
<g filter="url(#filter0_d)">
<path d="M87 134C118.48 134 144 108.48 144 77C144 45.5198 118.48 20 87 20C55.5198 20 30 45.5198 30 77C30 108.48 55.5198 134 87 134Z" fill="#60B2CC"/>
<path d="M86.9998 20C85.9823 20 84.9712 20.0278 83.9668 20.0804C114.037 21.6572 137.934 46.5373 137.934 77C137.934 107.463 114.037 132.343 83.9668 133.92C84.9712 133.972 85.9823 134 86.9998 134C118.48 134 144 108.48 144 77C144 45.5197 118.48 20 86.9998 20Z" fill="#4F9DB6"/>
<path d="M86.9991 121.417C111.53 121.417 131.416 101.531 131.416 77C131.416 52.4692 111.53 32.583 86.9991 32.583C62.4682 32.583 42.582 52.4692 42.582 77C42.582 101.531 62.4682 121.417 86.9991 121.417Z" fill="white"/>
<path opacity="0.4" d="M86.7106 121.417C87.9408 121.417 89.1585 121.365 90.3633 121.267C67.5412 119.409 49.5987 100.301 49.5987 77.0004C49.5987 53.6997 67.5412 34.5918 90.3633 32.7337C89.1585 32.6355 87.9408 32.5832 86.7106 32.5832C62.1797 32.5832 42.2936 52.4695 42.2936 77.0002C42.2936 101.531 62.1797 121.417 86.7106 121.417Z" fill="#DBDBDB"/>
<path d="M86.9995 46.2535C86.0495 46.2535 85.2793 45.4833 85.2793 44.5332V42.0083C85.2793 41.0583 86.0495 40.2881 86.9995 40.2881C87.9496 40.2881 88.72 41.0583 88.72 42.0083V44.5332C88.72 45.4833 87.9496 46.2535 86.9995 46.2535Z" fill="#281B49"/>
<path d="M109.863 55.8017C109.423 55.8017 108.982 55.6336 108.646 55.2978C107.975 54.6258 107.975 53.5368 108.647 52.8648L110.432 51.0796C111.104 50.4076 112.193 50.4078 112.865 51.0796C113.537 51.7516 113.537 52.8406 112.865 53.5125L111.079 55.298C110.743 55.6336 110.303 55.8017 109.863 55.8017Z" fill="#281B49"/>
<path d="M121.804 78.7203H119.279C118.329 78.7203 117.559 77.9501 117.559 77C117.559 76.05 118.329 75.2798 119.279 75.2798H121.804C122.754 75.2798 123.524 76.05 123.524 77C123.524 77.9501 122.754 78.7203 121.804 78.7203Z" fill="#281B49"/>
<path d="M111.515 103.37C111.075 103.37 110.635 103.202 110.299 102.866L108.514 101.081C107.842 100.409 107.842 99.3199 108.514 98.6477C109.186 97.9762 110.275 97.9762 110.947 98.6477L112.732 100.433C113.404 101.105 113.404 102.194 112.732 102.866C112.396 103.202 111.956 103.37 111.515 103.37Z" fill="#281B49"/>
<path d="M86.812 113.524C85.862 113.524 85.0918 112.754 85.0918 111.804V109.279C85.0918 108.329 85.862 107.559 86.812 107.559C87.7621 107.559 88.5323 108.329 88.5323 109.279V111.804C88.5323 112.754 87.7621 113.524 86.812 113.524Z" fill="#281B49"/>
<path d="M62.1617 103.237C61.7215 103.237 61.2811 103.069 60.9453 102.733C60.2733 102.061 60.2736 100.972 60.9453 100.3L62.7308 98.5144C63.4028 97.8429 64.4918 97.8427 65.1638 98.5147C65.8355 99.1864 65.8355 100.276 65.1635 100.948L63.378 102.733C63.0423 103.069 62.6019 103.237 62.1617 103.237Z" fill="#281B49"/>
<path d="M54.5323 78.5328H52.0074C51.0573 78.5328 50.2871 77.7626 50.2871 76.8125C50.2871 75.8625 51.0573 75.0923 52.0074 75.0923H54.5323C55.4823 75.0923 56.2525 75.8625 56.2525 76.8125C56.2527 77.7626 55.4823 78.5328 54.5323 78.5328Z" fill="#281B49"/>
<path d="M64.08 55.6689C63.6398 55.6689 63.1996 55.501 62.8636 55.165L61.0781 53.3798C60.4064 52.7078 60.4062 51.6188 61.0779 50.9468C61.7499 50.275 62.8389 50.2748 63.5109 50.9466L65.2964 52.7321C65.9681 53.4038 65.9683 54.493 65.2966 55.165C64.9604 55.5008 64.5202 55.6689 64.08 55.6689Z" fill="#281B49"/>
<path d="M86.9989 78.7207H72.3882C71.4381 78.7207 70.668 77.9503 70.668 77.0003C70.668 76.0502 71.4381 75.28 72.3882 75.28H85.2784V53.3936C85.2784 52.4435 86.0486 51.6733 86.9987 51.6733C87.9488 51.6733 88.7189 52.4435 88.7189 53.3936V77.0003C88.7192 77.9503 87.949 78.7207 86.9989 78.7207Z" fill="#281B49"/>
<path d="M104.647 87.7971C104.382 87.7971 104.114 87.7356 103.862 87.6062L86.2113 78.5299C85.3663 78.0955 85.0337 77.0583 85.4681 76.2134C85.9025 75.3684 86.9396 75.0355 87.7848 75.4701L105.435 84.5463C106.28 84.9809 106.613 86.018 106.178 86.8628C105.873 87.4562 105.271 87.7971 104.647 87.7971Z" fill="#ED1C70"/>
<path d="M86.9998 81.5914C89.5357 81.5914 91.5914 79.5357 91.5914 76.9998C91.5914 74.4639 89.5357 72.4082 86.9998 72.4082C84.4639 72.4082 82.4082 74.4639 82.4082 76.9998C82.4082 79.5357 84.4639 81.5914 86.9998 81.5914Z" fill="#433A5B"/>
</g>
<defs>
<filter id="filter0_d" x="0" y="0" width="174" height="174" filterUnits="userSpaceOnUse" color-interpolation-filters="sRGB">
<feFlood flood-opacity="0" result="BackgroundImageFix"/>
<feColorMatrix in="SourceAlpha" type="matrix" values="0 0 0 0 0 0 0 0 0 0 0 0 0 0 0 0 0 0 127 0"/>
<feOffset dy="10"/>
<feGaussianBlur stdDeviation="15"/>
<feColorMatrix type="matrix" values="0 0 0 0 0 0 0 0 0 0 0 0 0 0 0 0 0 0 0.01 0"/>
<feBlend mode="normal" in2="BackgroundImageFix" result="effect1_dropShadow"/>
<feBlend mode="normal" in="SourceGraphic" in2="effect1_dropShadow" result="shape"/>
</filter>
</defs>
</svg>
