<svg width="20" height="20" viewBox="0 0 20 20" fill="none" xmlns="http://www.w3.org/2000/svg">
<path d="M17.6942 20C18.2865 20 18.875 19.7731 19.325 19.323C20.225 18.4229 20.225 16.9612 19.325 16.0612L13.2635 9.99904L19.325 3.93692C20.225 3.03683 20.225 1.57515 19.325 0.675065C18.425 -0.225022 16.9635 -0.225022 16.0596 0.675065L10.0019 6.73719L3.94039 0.675065C3.04039 -0.225022 1.57885 -0.225022 0.675 0.675065C-0.225 1.57515 -0.225 3.03683 0.675 3.93692L6.74038 9.99904L0.678846 16.0612C-0.221154 16.9612 -0.221154 18.4229 0.678846 19.323C1.12885 19.7731 1.71731 20 2.30962 20C2.90192 20 3.49039 19.7731 3.94039 19.323L10.0019 13.2609L16.0635 19.323C16.5135 19.7731 17.1019 20 17.6942 20Z" fill="#DEDEE1"/>
</svg>
