<svg width="101" height="114" viewBox="25 22 101 114" fill="none" xmlns="http://www.w3.org/2000/svg">
<g filter="url(#filter0_d)">
<path d="M86.6676 111.751H67.4512L75.1377 88.6914H82.8243L86.6676 111.751Z" fill="#FFC46C"/>
<path d="M75.1373 111.751H63.6074L67.4507 88.6914H75.1373V111.751Z" fill="#FFD89D"/>
<path d="M106.14 123.281C106.14 112.685 97.5194 104.064 86.9235 104.064H75.1374L64.8887 127.124H106.14V123.281Z" fill="#FF903D"/>
<path d="M63.3512 104.064C52.7552 104.064 44.1348 112.685 44.1348 123.281V127.124H75.1372V104.064H63.3512Z" fill="#FFB03B"/>
<path d="M121.357 120H75.1465L59.8281 126.385L75.1465 132.77H121.357V120Z" fill="#60B2CC"/>
<path d="M74.9192 120H28.4824V132.77H74.9192V120Z" fill="#79BFD6"/>
<path d="M48.8585 72.4023C43.3819 71.7668 38.2147 69.2351 34.309 65.2731C30.4024 61.3101 27.9159 56.0766 27.3075 50.5366L25 29.4482H41.7601L54.023 35.6459H31.8472L33.4017 49.8538C34.3372 58.3735 41.1318 65.2673 49.5575 66.2449L48.8585 72.4023Z" fill="#FFB03B"/>
<path d="M101.421 72.4023L100.685 66.2457C109.363 65.2512 116.361 58.3581 117.325 49.8556L118.93 35.6468H98.1387L108.691 29.4482H126.001L123.618 50.5383C122.99 56.0706 120.43 61.2983 116.407 65.2593C112.386 69.2187 107.064 71.7556 101.421 72.4023Z" fill="#FF903D"/>
<path d="M75.0219 19L62.2109 57.689L75.0219 96.378C90.7124 96.378 103.848 84.6322 105.578 69.0505L111.05 19H75.0219Z" fill="#FFB03B"/>
<path d="M38.9316 19L44.4685 69.0564C46.1972 84.6322 59.333 96.378 75.0236 96.378V19H38.9316Z" fill="#FFC46C"/>
<path d="M73.7964 49.7322C73.7986 48.2576 72.6357 47.0417 71.1308 47.0256C69.6254 47.0094 68.4401 48.2119 68.414 49.6661C68.3873 51.1573 69.5753 52.3795 71.058 52.406C72.5003 52.4316 73.7738 51.293 73.7964 49.7322ZM81.5543 49.4837C81.5559 47.9966 80.3616 46.7915 78.8822 46.787C77.3937 46.7824 76.1843 47.979 76.1744 49.4505C76.1645 50.9489 77.3683 52.1408 78.8159 52.1667C80.3156 52.1935 81.5569 50.9813 81.5543 49.4837ZM65.2936 56.5559C65.2658 56.5575 65.2436 56.5556 65.2232 56.5604C64.5904 56.7069 63.9708 56.8932 63.392 57.1938C63.1116 57.3395 61.0064 58.4727 60.7811 58.6971C60.5516 58.9259 60.443 59.204 60.4733 59.5302C60.5024 59.8453 60.5755 60.1518 60.6729 60.452C60.8221 60.9124 61.0419 61.3407 61.284 61.7577C61.7786 62.6097 62.3733 63.3888 63.0307 64.1199C63.3409 64.4646 63.6669 64.7954 63.9925 65.1259C64.1281 65.2633 64.7005 65.7862 64.8548 65.6682C65.0672 65.5059 65.2799 65.3444 65.4899 65.1792C66.3066 64.5372 68.4077 62.3213 69.0322 61.4897C69.06 61.4528 69.0848 61.4135 69.1142 61.3704C67.359 60.1405 66.087 58.5381 65.2936 56.5559ZM84.4195 57.3809C84.0168 58.1825 83.5349 58.9114 82.9599 59.5781C82.3857 60.2439 81.7353 60.8261 81.0112 61.3372C81.1117 61.5118 81.2023 61.6766 81.2997 61.8371C81.8597 62.7595 82.568 63.5572 83.3768 64.2648C83.7721 64.6106 84.1945 64.9255 84.6072 65.2512C84.7227 65.3422 84.8265 65.3342 84.9411 65.2416C84.965 65.2223 84.9883 65.2022 85.0096 65.1801C85.2768 64.9025 85.5503 64.6304 85.8097 64.3456C86.5167 63.5696 87.1594 62.7441 87.6863 61.8337C88.03 61.2399 88.3229 60.6247 88.444 59.9409C88.4807 59.7331 88.5207 59.5262 88.4764 59.3154C88.4165 59.0311 88.2479 58.8181 88.0253 58.6418C87.6826 58.3703 87.3035 58.1636 86.8964 58.0057C86.3066 57.7768 85.6972 57.6192 85.0763 57.5032C84.8615 57.4631 84.6467 57.4232 84.4195 57.3809ZM66.621 49.3749C66.6597 49.3878 66.676 49.3981 66.6922 49.3981C66.9593 49.3977 67.2263 49.3965 67.4933 49.3943C67.5191 49.394 67.5448 49.3831 67.5709 49.3814C67.6286 49.3773 67.6567 49.3452 67.6653 49.2907C67.6696 49.2648 67.6774 49.2395 67.6818 49.2136C67.7509 48.8186 67.8658 48.4387 68.0534 48.0828C68.4913 47.2518 69.1564 46.6735 70.0326 46.3478C70.684 46.1057 71.3489 46.135 72.0082 46.3273C73.0651 46.6354 73.8286 47.2808 74.2435 48.3105C74.3363 48.5409 74.3936 48.7858 74.4633 49.025C74.5118 49.1915 74.5511 49.2228 74.723 49.2143C74.8061 49.2102 74.8892 49.2091 74.9724 49.206C75.1195 49.2005 75.2666 49.1946 75.4179 49.1886C75.4344 49.1109 75.4503 49.0478 75.4609 48.9836C75.5906 48.1988 75.925 47.5182 76.4984 46.9624C77.4281 46.0611 78.5323 45.8088 79.7722 46.1128C80.3987 46.2664 80.9097 46.6237 81.3465 47.0909C81.7456 47.5177 82.0356 48.0055 82.1741 48.5781C82.2009 48.6886 82.2355 48.7973 82.27 48.9057C82.3006 49.0019 82.3119 49.0071 82.4104 49.0041C82.6555 48.9968 82.9007 48.9901 83.1458 48.9823C83.1965 48.9806 83.2472 48.975 83.3197 48.9696C83.2942 48.8961 83.2812 48.8371 83.2544 48.785C83.1009 48.4849 82.9575 48.1784 82.786 47.8886C82.0206 46.596 81.0119 45.5371 79.7353 44.7369C78.451 43.932 77.0536 43.4789 75.5416 43.3876C74.4404 43.321 73.366 43.4713 72.3182 43.8162C70.9528 44.2656 69.7686 45.0065 68.7564 46.0252C67.8967 46.8905 67.2421 47.8935 66.7582 49.0106C66.7082 49.126 66.669 49.2463 66.621 49.3749ZM84.8566 49.1364C85.1042 49.1152 85.3349 49.0917 85.5659 49.0765C86.0508 49.0444 86.5358 49.0149 87.0211 48.9876C87.3096 48.9715 87.5998 48.9744 87.8869 48.9461C88.4795 48.8879 89.0706 48.8145 89.6623 48.7476C89.853 48.726 89.9911 48.6421 90.0883 48.4642C90.6437 47.4483 91.1364 46.4041 91.5496 45.3223C91.7441 44.813 91.9031 44.2957 91.9669 43.7526C91.9849 43.601 92.0116 43.4468 92.0009 43.2961C91.9883 43.1183 91.939 42.9431 91.9067 42.7666C91.8822 42.6317 91.8123 42.5235 91.7162 42.4293C91.4774 42.195 91.1853 42.1057 90.8571 42.0951C90.6075 42.087 90.371 42.1448 90.1317 42.1987C88.7345 42.5137 87.4509 43.0855 86.2712 43.8957C85.4048 44.4908 84.6122 45.1721 83.8798 45.9247C83.7151 46.0939 83.5558 46.2685 83.3874 46.4479C84.0073 47.2737 84.4965 48.1648 84.8566 49.1364ZM66.0857 47.342C66.0403 47.2859 66.0041 47.2364 65.9633 47.1912C65.6027 46.7911 65.2494 46.384 64.8782 45.9941C64.2766 45.3618 63.6316 44.7774 62.934 44.2501C61.7177 43.3307 60.3831 42.6561 58.9078 42.2649C58.5991 42.1832 58.2911 42.0979 57.9688 42.082C57.733 42.0704 57.5034 42.091 57.2909 42.1991C56.964 42.3654 56.7358 42.6129 56.6946 42.9922C56.6542 43.3648 56.6757 43.7355 56.7614 44.1015C56.8724 44.5757 57.0387 45.0322 57.2113 45.4863C57.5962 46.499 58.0755 47.4678 58.5838 48.4231C58.6894 48.6215 58.8589 48.7204 59.0788 48.745C59.4094 48.782 59.7396 48.8228 60.0702 48.8605C60.6577 48.9274 61.2472 48.9653 61.8384 48.9799C62.1884 48.9885 62.5385 49.0064 62.8875 49.0313C63.145 49.0497 63.4006 49.0919 63.6578 49.1127C64.0984 49.1484 64.5398 49.176 64.9809 49.2065C65.0497 49.2113 65.1188 49.2131 65.1933 49.2166C65.43 48.5611 65.7254 47.9422 66.0857 47.342ZM66.3091 50.3405C66.2978 50.3768 66.2922 50.3888 66.2903 50.4015C66.1875 51.0412 66.0579 51.6771 66.0086 52.3244C65.98 52.7002 65.9723 53.0774 66.0173 53.4524C66.0557 53.7739 66.1116 54.0932 66.1577 54.4139C66.2654 55.1642 66.4701 55.8863 66.7875 56.5751C67.0255 57.0921 67.2586 57.6128 67.5763 58.0877C68.6166 59.6431 69.9837 60.8085 71.7144 61.5369C72.6142 61.9156 73.5495 62.1473 74.5248 62.2032C75.0281 62.2322 75.5316 62.2195 76.0337 62.1611C76.6884 62.0851 77.3293 61.9479 77.9528 61.7346C79.24 61.294 80.3502 60.5716 81.3157 59.6186C81.9278 59.0144 82.4381 58.3351 82.8664 57.589C83.5402 56.415 83.9127 55.1486 84.0679 53.8111C84.116 53.3968 84.127 52.9814 84.118 52.565C84.1076 52.0693 84.0684 51.5765 83.9589 51.0918C83.8778 50.7331 83.7915 50.3757 83.7044 50.0185C83.6734 49.891 83.6513 49.8711 83.5394 49.8738C83.1716 49.8831 82.8039 49.8947 82.4365 49.9094C82.3215 49.9138 82.3031 49.9351 82.2811 50.0475C82.2575 50.1678 82.2414 50.2897 82.2127 50.4088C82.0402 51.1228 81.6864 51.7361 81.1424 52.2265C80.359 52.9326 79.436 53.2199 78.3871 53.0761C77.5664 52.9636 76.8959 52.5718 76.3402 51.9661C75.9833 51.577 75.7422 51.1273 75.5972 50.622C75.555 50.4748 75.5009 50.3312 75.4516 50.1861C75.4356 50.1387 75.4167 50.1001 75.3524 50.1024C75.1248 50.1107 74.897 50.1121 74.6694 50.1204C74.5497 50.1247 74.5285 50.1466 74.5023 50.261C74.4984 50.278 74.4943 50.2957 74.4946 50.3129C74.5015 50.5511 74.4195 50.768 74.3388 50.9863C74.1238 51.5684 73.8043 52.0808 73.3244 52.48C72.5107 53.157 71.5873 53.4782 70.5286 53.265C69.396 53.0371 68.5349 52.4286 68.0399 51.3635C67.9041 51.0713 67.8202 50.755 67.7121 50.45C67.695 50.4016 67.6751 50.3541 67.6562 50.3054C67.2012 50.3173 66.7563 50.3289 66.3091 50.3405ZM73.0838 42.426C73.0889 42.4375 73.0992 42.4466 73.1152 42.4671C74.3398 42.245 75.5728 42.235 76.8203 42.4418L73.0838 42.426ZM77.5784 42.2695C77.463 42.5249 77.6562 42.1972 77.5413 42.4528C77.5239 42.4915 77.5089 42.5314 77.489 42.5797C78.8786 42.9184 80.1383 43.51 81.2846 44.3595C81.4156 44.2156 81.5412 44.0767 81.6678 43.9386C82.7207 42.7909 83.8303 41.7032 85.0544 40.7362C86.0819 39.9246 87.1714 39.2093 88.3421 38.6205C89.6734 37.951 91.0727 37.4839 92.5428 37.2379C92.8875 37.1802 93.2381 37.1522 93.5873 37.1282C94.0283 37.0979 94.4706 37.0799 94.9126 37.0675C95.3257 37.0561 95.735 37.0992 96.1364 37.2019C96.1984 37.2179 96.2682 37.2404 96.3119 37.283C96.4494 37.4168 96.5834 37.5534 96.6686 37.7329C96.8731 38.1642 96.9678 38.6168 96.9742 39.0927C96.981 39.5838 96.9799 40.0752 96.9193 40.5623C96.8593 41.0441 96.7798 41.524 96.6933 42.0019C96.5112 43.0069 96.2593 43.9953 95.948 44.9678C95.5338 46.2625 95.0405 47.526 94.4255 48.7397C93.9811 49.6165 93.4873 50.4633 92.8775 51.238C92.5214 51.6904 92.1332 52.1116 91.6765 52.4656C91.2323 52.8099 90.7374 53.0432 90.1794 53.1276C90.0329 53.1498 89.8823 53.1429 89.7337 53.1508C89.0385 53.1881 88.3432 53.224 87.6481 53.2639C86.9704 53.3029 86.2931 53.346 85.6156 53.3877C85.5725 53.3904 85.5295 53.3969 85.4872 53.4014C85.4416 53.7904 85.397 54.172 85.3506 54.568C85.4561 54.5896 85.561 54.6128 85.6666 54.6323C86.7309 54.8289 87.7835 55.0734 88.8153 55.4025C89.6892 55.6811 90.5411 56.0118 91.3336 56.4806C91.8695 56.7979 92.3464 57.1826 92.7445 57.6668C92.9699 57.9414 93.0669 58.2441 93.085 58.5946C93.1229 59.3311 93.0138 60.0419 92.7876 60.7416C92.4475 61.793 91.9775 62.7836 91.4182 63.7337C90.5173 65.264 89.4562 66.6785 88.3067 68.0288C87.6021 68.8567 86.8604 69.6505 86.0851 70.4124C85.939 70.556 85.7693 70.6757 85.6088 70.8042C85.5296 70.8673 85.4383 70.8772 85.3492 70.8313C85.2288 70.7696 85.1051 70.7101 84.996 70.6314C83.9354 69.8672 82.9245 69.0415 81.9755 68.1422C80.57 66.8102 79.3197 65.349 78.3062 63.6937C78.1598 63.4547 78.0239 63.2094 77.8831 62.967C77.8593 62.9259 77.8358 62.8847 77.81 62.8396C75.5236 63.4356 73.2855 63.308 71.0885 62.4382C71.0361 62.5374 70.9873 62.63 70.9383 62.7225C70.19 64.1308 69.2632 65.4124 68.2014 66.5999C67.0435 67.8948 65.7578 69.0488 64.3721 70.0938C64.1063 70.2943 63.8431 70.4983 63.5777 70.6993C63.348 70.8731 63.1104 70.8719 62.8987 70.6733C62.6046 70.398 62.3178 70.1145 62.0366 69.8258C61.3915 69.1633 60.773 68.4763 60.1778 67.7687C59.1524 66.5497 58.2049 65.2739 57.3857 63.9059C56.8901 63.0781 56.4469 62.2234 56.1037 61.3197C55.8713 60.7075 55.7179 60.0737 55.6142 59.4283C55.5824 59.2304 55.561 59.0283 55.561 58.8281C55.5612 58.2809 55.7755 57.8158 56.1383 57.4142C56.4021 57.1221 56.7232 56.9 57.0442 56.6784C57.7786 56.1714 58.5905 55.8258 59.4282 55.5315C60.4468 55.1737 61.4911 54.9157 62.5507 54.7165C63.2391 54.587 63.9292 54.4667 64.6183 54.3418C64.6396 54.338 64.6597 54.3294 64.6916 54.3195C64.6607 54.0247 64.6299 53.7303 64.5976 53.4222C64.5167 53.4164 64.4356 53.4069 64.3543 53.4055C63.3821 53.3879 62.4113 53.3429 61.441 53.2764C60.7335 53.2279 60.0245 53.1973 59.3162 53.1596C59.0845 53.1472 58.8522 53.1429 58.621 53.1249C58.184 53.0907 57.7884 52.9287 57.4125 52.713C57.0175 52.4862 56.6795 52.1883 56.3666 51.8607C55.6064 51.0649 55.0205 50.1465 54.5045 49.1817C53.8859 48.0246 53.3835 46.8165 52.9553 45.5769C52.6537 44.7032 52.387 43.8193 52.1796 42.9182C52.0146 42.2004 51.8919 41.4757 51.8215 40.7425C51.786 40.3719 51.7537 40.001 51.7158 39.6308C51.6784 39.2651 51.7167 38.9044 51.785 38.5466C51.8253 38.3361 51.8772 38.1276 51.9327 37.9205C52.0023 37.6616 52.1608 37.4583 52.3659 37.293C52.5446 37.1492 52.766 37.1232 52.9842 37.0982C53.3853 37.0522 53.7881 37.0472 54.1911 37.0658C54.5365 37.0817 54.8827 37.0923 55.227 37.121C56.2302 37.2046 57.2115 37.4021 58.169 37.7133C59.9228 38.2829 61.5219 39.1493 63.0021 40.2423C63.9165 40.9175 64.778 41.6545 65.5938 42.4456C66.4091 43.2363 67.1792 44.069 67.9174 44.9316C67.9398 44.9577 67.9642 44.9821 67.9967 45.017C69.2893 43.8506 70.7661 43.0525 72.4472 42.614C72.3854 42.4705 72.6616 42.606 72.6044 42.4742" fill="#281B49"/>
<path d="M75.1858 58.1812C73.7734 58.1735 72.5464 57.6416 71.5589 56.5651C71.4997 56.5006 71.4446 56.4322 71.3865 56.3669C71.2771 56.2442 71.2417 56.1006 71.2608 55.94C71.2948 55.6516 71.6088 55.4861 71.8617 55.6276C71.9218 55.6614 71.976 55.7088 72.0254 55.7576C72.2031 55.9327 72.3693 56.1202 72.5547 56.2866C73.228 56.8905 74.0246 57.2045 74.9232 57.268C75.3217 57.2962 75.7191 57.2918 76.1136 57.2202C76.8994 57.0774 77.573 56.7189 78.1445 56.1634C78.2323 56.078 78.3214 55.9936 78.4129 55.9121C78.5202 55.8167 78.6444 55.7725 78.7888 55.8056C79.0884 55.8742 79.2113 56.2564 79.0092 56.5101C78.9087 56.6364 78.7992 56.7583 78.6798 56.8667C78.0256 57.4613 77.2757 57.8793 76.4052 58.0608C76.1833 58.1071 75.9556 58.1291 75.7297 58.1524C75.5643 58.1695 75.3975 58.1707 75.1858 58.1812Z" fill="#281B49"/>
<path d="M79.0766 48.6875C79.4996 48.6888 79.8354 49.0252 79.8355 49.4477C79.8355 49.8727 79.4898 50.2158 79.0639 50.2125C78.6096 50.2089 78.3018 49.8195 78.3054 49.4348C78.309 49.0655 78.6363 48.667 79.0766 48.6875Z" fill="#281B49"/>
<path d="M71.8792 49.5987C71.8778 50.0197 71.5393 50.3581 71.1178 50.36C70.6937 50.362 70.3479 50.0155 70.35 49.5903C70.3522 49.1721 70.6969 48.8278 71.113 48.8277C71.5384 48.8277 71.8807 49.1719 71.8792 49.5987Z" fill="#281B49"/>
<path d="M75.1305 43.1228C72.6389 43.1228 70.2965 44.0931 68.5346 45.8549C66.7727 47.6168 65.8025 49.9592 65.8025 52.4508C65.8025 54.9424 66.7727 57.285 68.5346 59.0468C70.2965 60.8087 72.6389 61.779 75.1305 61.779C77.6221 61.779 79.9647 60.8087 81.7265 59.0468C83.4884 57.285 84.4586 54.9424 84.4586 52.4508C84.4586 49.9592 83.4884 47.6168 81.7265 45.8549C79.9647 44.0931 77.6221 43.1228 75.1305 43.1228ZM75.1305 62.9604C73.7121 62.9604 72.3356 62.6824 71.0396 62.1343C69.7882 61.6048 68.6642 60.8472 67.6993 59.8822C66.7342 58.9172 65.9765 57.7934 65.4472 56.5418C64.899 55.2458 64.6211 53.8694 64.6211 52.4508C64.6211 51.0324 64.899 49.656 65.4472 48.3599C65.9765 47.1084 66.7342 45.9845 67.6993 45.0196C68.6642 44.0546 69.7882 43.2968 71.0396 42.7676C72.3356 42.2193 73.7121 41.9414 75.1305 41.9414C76.5491 41.9414 77.9254 42.2193 79.2214 42.7676C80.473 43.2968 81.5969 44.0546 82.5618 45.0196C83.5268 45.9845 84.2845 47.1084 84.8138 48.3599C85.3621 49.656 85.64 51.0324 85.64 52.4508C85.64 53.8694 85.3621 55.2458 84.8138 56.5418C84.2845 57.7934 83.5268 58.9172 82.5618 59.8822C81.5969 60.8472 80.473 61.6048 79.2214 62.1343C77.9254 62.6824 76.5491 62.9604 75.1305 62.9604Z" fill="#281B49"/>
<path d="M78.7778 37.1992L79.4863 37.4512L77.6135 42.7177L76.9049 42.4658L78.7778 37.1992Z" fill="#281B49"/>
<path d="M80.1934 37.4126C80.1934 37.9619 79.748 38.4072 79.1984 38.4072C78.649 38.4072 78.2036 37.9619 78.2036 37.4126C78.2036 36.8631 78.649 36.4178 79.1984 36.4178C79.748 36.4178 80.1934 36.8631 80.1934 37.4126Z" fill="#281B49"/>
<path d="M70.7133 37.6178L73.1133 42.666L72.4343 42.9888L70.0343 37.9406L70.7133 37.6178Z" fill="#281B49"/>
<path d="M71.1715 37.1178C71.5599 37.5062 71.56 38.1361 71.1716 38.5247C70.7831 38.9131 70.1532 38.9131 69.7646 38.5246C69.3762 38.1362 69.3761 37.5063 69.7645 37.1177C70.1532 36.7293 70.7831 36.7293 71.1715 37.1178Z" fill="#281B49"/>
<path d="M75.0188 42.4041C73.6401 42.4041 72.3028 42.674 71.0442 43.2064C69.8283 43.7207 68.7361 44.457 67.7982 45.3949C66.8602 46.3329 66.1239 47.425 65.6097 48.6409C65.0773 49.8995 64.8074 51.2368 64.8074 52.6155C64.8074 53.9942 65.0773 55.3315 65.6097 56.5901C66.1239 57.806 66.8602 58.8981 67.7982 59.836C68.7361 60.774 69.8283 61.5103 71.0442 62.0245C72.3028 62.557 73.6401 62.8269 75.0188 62.8269C76.3975 62.8269 77.7348 62.557 78.9933 62.0245C80.2092 61.5103 81.3014 60.774 82.2393 59.836C83.1773 58.8981 83.9137 57.806 84.4279 56.5901C84.9602 55.3315 85.2302 53.9942 85.2302 52.6155C85.2302 51.2368 84.9602 49.8995 84.4279 48.6409C83.9137 47.425 83.1773 46.3329 82.2393 45.3949C81.3014 44.457 80.2092 43.7207 78.9933 43.2064C77.7348 42.674 76.3975 42.4041 75.0188 42.4041ZM75.0188 63.6324C73.5317 63.6324 72.0889 63.341 70.7303 62.7665C69.4185 62.2115 68.2403 61.4173 67.2287 60.4056C66.217 59.394 65.4227 58.2158 64.8678 56.9039C64.2932 55.5455 64.002 54.1026 64.002 52.6155C64.002 51.1284 64.2932 49.6856 64.8678 48.3271C65.4227 47.0151 66.217 45.8371 67.2287 44.8254C68.2403 43.8138 69.4185 43.0194 70.7303 42.4645C72.0889 41.8899 73.5317 41.5986 75.0188 41.5986C76.5058 41.5986 77.9487 41.8899 79.3072 42.4645C80.6191 43.0194 81.7973 43.8138 82.8089 44.8254C83.8206 45.8371 84.6149 47.0151 85.1698 48.3271C85.7443 49.6856 86.0356 51.1284 86.0356 52.6155C86.0356 54.1026 85.7443 55.5455 85.1698 56.9039C84.6149 58.2158 83.8206 59.394 82.8089 60.4056C81.7973 61.4173 80.6191 62.2115 79.3072 62.7665C77.9487 63.341 76.5058 63.6324 75.0188 63.6324Z" fill="#281B49"/>
</g>
<defs>
<filter id="filter0_d" x="0" y="0" width="151.001" height="163.77" filterUnits="userSpaceOnUse" color-interpolation-filters="sRGB">
<feFlood flood-opacity="0" result="BackgroundImageFix"/>
<feColorMatrix in="SourceAlpha" type="matrix" values="0 0 0 0 0 0 0 0 0 0 0 0 0 0 0 0 0 0 127 0"/>
<feOffset dy="6"/>
<feGaussianBlur stdDeviation="12.5"/>
<feColorMatrix type="matrix" values="0 0 0 0 0 0 0 0 0 0 0 0 0 0 0 0 0 0 0.01 0"/>
<feBlend mode="normal" in2="BackgroundImageFix" result="effect1_dropShadow"/>
<feBlend mode="normal" in="SourceGraphic" in2="effect1_dropShadow" result="shape"/>
</filter>
</defs>
</svg>
