<svg width="80" height="47" viewBox="30 20 80 47" fill="none" xmlns="http://www.w3.org/2000/svg">
<g filter="url(#filter0_d)">
<path d="M57.8715 29.5967V57.1996H31.4125C30.7704 57.1996 30.25 56.6791 30.25 56.0371V29.5967H57.8715Z" fill="white" stroke="#F1F1F1" stroke-width="0.5"/>
<path d="M58.1212 29.3467V57.4496H39.708C41.326 57.4496 42.6367 56.1389 42.6367 54.5209V29.3467H58.1212Z" fill="#F1F1F1"/>
<path d="M109.75 29.5967V56.0362C109.75 56.6778 109.23 57.1979 108.588 57.1979H82.127V29.5967H109.75Z" fill="white" stroke="#F1F1F1" stroke-width="0.5"/>
<path d="M110 29.3467V56.0362C110 56.8159 109.368 57.4479 108.589 57.4479H102.54C104.212 57.4479 105.567 56.0933 105.567 54.4212V29.3467H110Z" fill="#F1F1F1"/>
<path d="M58.1215 24.209V29.3469H30V25.6215C30 24.8413 30.6324 24.209 31.4125 24.209H58.1215Z" fill="#72C9E4"/>
<path d="M58.1212 24.209V29.3469H42.6367V27.2187C42.6367 25.5568 41.2889 24.209 39.627 24.209H58.1212Z" fill="#60B2CC"/>
<path d="M110 25.6206V29.3469H81.877V24.209H108.588C109.368 24.209 110 24.841 110 25.6206Z" fill="#BAB4D4"/>
<path d="M110 25.6206V29.3469H105.566V26.5516C105.566 25.2578 104.517 24.209 103.224 24.209H108.588C109.368 24.209 110 24.841 110 25.6206Z" fill="#9C96B5"/>
<path d="M91.5053 21.4387V29.3468L69.6984 30.1621L47.8926 29.3468V21.4387C47.8926 20.644 48.5368 20 49.3312 20H90.0665C90.8611 20 91.5053 20.6442 91.5053 21.4387Z" fill="#FF3687"/>
<path d="M91.5056 21.4387V29.3468H85.9354V23.4996C85.9354 21.5674 84.3697 20 82.4375 20H90.0669C90.8614 20 91.5056 20.6442 91.5056 21.4387Z" fill="#ED1C70"/>
<path d="M91.2553 29.5967V66.5248C91.2553 67.1813 90.7231 67.7134 90.0667 67.7134H49.3312C48.6747 67.7134 48.1426 67.1812 48.1426 66.5248V29.5967H91.2553Z" fill="white" stroke="#F1F1F1" stroke-width="0.5"/>
<path d="M91.5067 29.3467V66.5248C91.5067 67.3194 90.8625 67.9634 90.068 67.9634H82.0957C84.2171 67.9634 85.9364 66.2424 85.9364 64.121V29.3467H91.5067Z" fill="#F1F1F1"/>
<path opacity="0.8" d="M80.9203 50.1733V52.6066C80.9203 53.9827 79.8036 55.0995 78.4274 55.0995H61.5711C60.1949 55.0995 59.0781 53.9827 59.0781 52.6066V50.1733C59.0781 48.7952 60.1949 47.6785 61.5711 47.6785H78.4274C79.8036 47.6785 80.9203 48.7952 80.9203 50.1733Z" fill="#B28EC2"/>
<path d="M80.919 50.1736V52.6074C80.919 53.9822 79.8026 55.1003 78.4261 55.1003H74.0635C75.44 55.1003 76.5581 53.9822 76.5581 52.6074V50.1736C76.5581 48.7954 75.44 47.679 74.0635 47.679H78.4261C79.8026 47.679 80.919 48.7954 80.919 50.1736Z" fill="#B28EC2"/>
<path d="M63.6577 40.0967H55.3034C54.8484 40.0967 54.4795 39.7278 54.4795 39.2728V35.1352C54.4795 34.6802 54.8484 34.3113 55.3034 34.3113H63.6577C64.1127 34.3113 64.4816 34.6802 64.4816 35.1352V39.2728C64.4818 39.7278 64.1129 40.0967 63.6577 40.0967Z" fill="#F1F1F1"/>
<path d="M77.0435 26.002H62.3546C61.6549 26.002 61.0879 25.4348 61.0879 24.7352C61.0879 24.0357 61.6549 23.4685 62.3546 23.4685H77.0435C77.7432 23.4685 78.3102 24.0357 78.3102 24.7352C78.3102 25.4348 77.7432 26.002 77.0435 26.002Z" fill="#DE1D6A"/>
<path d="M104.102 39.7993H96.5773C95.8775 39.7993 95.3105 39.2322 95.3105 38.5326C95.3105 37.833 95.8775 37.2659 96.5773 37.2659H104.102C104.802 37.2659 105.369 37.833 105.369 38.5326C105.369 39.2322 104.802 39.7993 104.102 39.7993Z" fill="#C7C7C7"/>
<path d="M104.102 45.2488H96.5773C95.8775 45.2488 95.3105 44.6816 95.3105 43.9821C95.3105 43.2825 95.8775 42.7153 96.5773 42.7153H104.102C104.802 42.7153 105.369 43.2825 105.369 43.9821C105.369 44.6816 104.802 45.2488 104.102 45.2488Z" fill="#C7C7C7"/>
<path d="M42.6372 39.7993H35.1124C34.4127 39.7993 33.8457 39.2322 33.8457 38.5326C33.8457 37.833 34.4127 37.2659 35.1124 37.2659H42.6372C43.3369 37.2659 43.9039 37.833 43.9039 38.5326C43.9039 39.2322 43.3369 39.7993 42.6372 39.7993Z" fill="#C7C7C7"/>
<path d="M42.6372 45.2488H35.1124C34.4127 45.2488 33.8457 44.6816 33.8457 43.9821C33.8457 43.2825 34.4127 42.7153 35.1124 42.7153H42.6372C43.3369 42.7153 43.9039 43.2825 43.9039 43.9821C43.9039 44.6816 43.3369 45.2488 42.6372 45.2488Z" fill="#C7C7C7"/>
<path d="M84.2137 38.471H70.7755C70.0758 38.471 69.5088 37.9038 69.5088 37.2042C69.5088 36.5047 70.0758 35.9375 70.7755 35.9375H84.2137C84.9134 35.9375 85.4804 36.5047 85.4804 37.2042C85.4804 37.9038 84.9134 38.471 84.2137 38.471Z" fill="#C7C7C7"/>
</g>
<defs>
<filter id="filter0_d" x="0" y="0" width="140" height="107.963" filterUnits="userSpaceOnUse" color-interpolation-filters="sRGB">
<feFlood flood-opacity="0" result="BackgroundImageFix"/>
<feColorMatrix in="SourceAlpha" type="matrix" values="0 0 0 0 0 0 0 0 0 0 0 0 0 0 0 0 0 0 127 0"/>
<feOffset dy="10"/>
<feGaussianBlur stdDeviation="15"/>
<feColorMatrix type="matrix" values="0 0 0 0 0 0 0 0 0 0 0 0 0 0 0 0 0 0 0.01 0"/>
<feBlend mode="normal" in2="BackgroundImageFix" result="effect1_dropShadow"/>
<feBlend mode="normal" in="SourceGraphic" in2="effect1_dropShadow" result="shape"/>
</filter>
</defs>
</svg>
