<svg width="46" height="65" viewBox="30 20 46 65" fill="none" xmlns="http://www.w3.org/2000/svg">
<g filter="url(#filter0_d)">
<path d="M62.9228 74.5256L32.1267 67.449C31.1017 67.2135 30.4617 66.1916 30.6972 65.1666L40.7364 21.4783C40.9719 20.4532 41.9937 19.8133 43.0187 20.0488L73.8147 27.1254C74.8397 27.3609 75.4797 28.3827 75.2442 29.4077L65.205 73.0961C64.9696 74.1211 63.9478 74.7611 62.9228 74.5256Z" fill="#72C9E4"/>
<path d="M73.8151 27.1254L72.1591 26.7449L62.5125 68.7252C62.2702 69.779 61.2196 70.4372 60.1657 70.1949L31.0777 63.5108L30.6972 65.1667C30.4617 66.1915 31.1016 67.2132 32.1265 67.4487L62.923 74.5254C63.9478 74.7609 64.9695 74.1211 65.205 73.0962L75.2443 29.4072C75.4797 28.3826 74.8398 27.3608 73.8151 27.1254Z" fill="#60B2CC"/>
<path d="M63.5028 78.1462H31.9043C30.8526 78.1462 30 77.2936 30 76.2419V31.415C30 30.3634 30.8526 29.5107 31.9043 29.5107H63.5029C64.5546 29.5107 65.4072 30.3634 65.4072 31.415V76.2419C65.4071 77.2936 64.5545 78.1462 63.5028 78.1462Z" fill="#BAB4D5"/>
<path d="M63.5032 29.5107H61.8041V72.5852C61.8041 73.6665 60.9275 74.5432 59.8461 74.5432H30V76.2423C30 77.2938 30.8525 78.1462 31.9039 78.1462H63.5032C64.5548 78.1462 65.4071 77.2937 65.4071 76.2423V31.4147C65.4071 30.3631 64.5548 29.5107 63.5032 29.5107Z" fill="#9C96B5"/>
<path d="M43.4402 40.6295H34.8051C34.2644 40.6295 33.8262 40.1913 33.8262 39.6506C33.8262 39.1099 34.2645 38.6716 34.8051 38.6716H43.4402C43.9809 38.6716 44.4191 39.1099 44.4191 39.6506C44.4191 40.1913 43.9809 40.6295 43.4402 40.6295Z" fill="#9C96B5"/>
<path d="M43.4402 46.0196H34.8051C34.2644 46.0196 33.8262 45.5814 33.8262 45.0407C33.8262 44.5 34.2645 44.0618 34.8051 44.0618H43.4402C43.9809 44.0618 44.4191 44.5 44.4191 45.0407C44.4191 45.5814 43.9809 46.0196 43.4402 46.0196Z" fill="#9C96B5"/>
<path d="M43.4402 51.4104H34.8051C34.2644 51.4104 33.8262 50.9721 33.8262 50.4314C33.8262 49.8908 34.2645 49.4525 34.8051 49.4525H43.4402C43.9809 49.4525 44.4191 49.8908 44.4191 50.4314C44.4191 50.9721 43.9809 51.4104 43.4402 51.4104Z" fill="#9C96B5"/>
<path d="M43.4402 56.8008H34.8051C34.2644 56.8008 33.8262 56.3625 33.8262 55.8218C33.8262 55.2811 34.2645 54.8429 34.8051 54.8429H43.4402C43.9809 54.8429 44.4191 55.2811 44.4191 55.8218C44.4191 56.3625 43.9809 56.8008 43.4402 56.8008Z" fill="#9C96B5"/>
<path d="M43.4402 62.1911H34.8051C34.2644 62.1911 33.8262 61.7529 33.8262 61.2122C33.8262 60.6715 34.2645 60.2333 34.8051 60.2333H43.4402C43.9809 60.2333 44.4191 60.6715 44.4191 61.2122C44.4191 61.7529 43.9809 62.1911 43.4402 62.1911Z" fill="#9C96B5"/>
<path d="M43.4402 67.5819H34.8051C34.2644 67.5819 33.8262 67.1436 33.8262 66.603C33.8262 66.0623 34.2645 65.624 34.8051 65.624H43.4402C43.9809 65.624 44.4191 66.0623 44.4191 66.603C44.4191 67.1436 43.9809 67.5819 43.4402 67.5819Z" fill="#9C96B5"/>
<path d="M64.9027 37.306L65.0795 37.1293L64.9027 37.306L75.1542 47.5573C75.1542 47.5573 75.1542 47.5573 75.1542 47.5573C75.597 48.0003 75.8457 48.6008 75.8457 49.227V83.0417C75.8457 83.9853 75.0808 84.7501 74.1373 84.7501H42.6469C41.7033 84.7501 40.9385 83.9852 40.9385 83.0417V38.3229C40.9385 37.3793 41.7034 36.6145 42.6469 36.6145H63.2331C63.8594 36.6145 64.46 36.8633 64.9027 37.306Z" fill="white" stroke="#F1F1F1" stroke-width="0.5"/>
<path d="M75.3319 47.3806L71.816 43.8646C72.3056 44.3543 72.5806 45.0184 72.5806 45.7109V79.5255C72.5806 80.6072 71.7039 81.4839 70.6222 81.4839H40.6895V83.0416C40.6895 84.1231 41.5662 85 42.6478 85H74.1383C75.2198 85 76.0967 84.1232 76.0967 83.0416V49.2269C76.0967 48.5343 75.8216 47.8702 75.3319 47.3806Z" fill="#F1F1F1"/>
<path d="M75.3292 47.3808L65.0777 37.1295C64.7172 36.7689 64.2618 36.526 63.7705 36.4222V47.3825C63.7705 48.1035 64.355 48.688 65.0761 48.688H76.0364C75.9327 48.1966 75.6896 47.7412 75.3292 47.3808Z" fill="#F1F1F1"/>
<path d="M75.3292 47.3805L73.0523 45.1038H63.7705V47.3822C63.7705 48.1031 64.355 48.6878 65.0761 48.6878H76.0364C75.9327 48.1965 75.6896 47.7409 75.3292 47.3805Z" fill="#DEDEDE"/>
<path d="M69.2972 62.8721C69.8378 62.8721 70.2761 62.4339 70.2761 61.8932C70.2761 61.3525 69.8377 60.9142 69.2972 60.9142H49.9167V57.4818H69.2972C69.8378 57.4818 70.2761 57.0436 70.2761 56.5029C70.2761 55.9622 69.8377 55.524 69.2972 55.524H49.9167V54.22C49.9167 53.6792 49.4783 53.241 48.9377 53.241C48.3972 53.241 47.9588 53.6792 47.9588 54.22V55.524H45.1078C44.5671 55.524 44.1289 55.9622 44.1289 56.5029C44.1289 57.0436 44.5673 57.4818 45.1078 57.4818H47.9588V60.9142H45.1078C44.5671 60.9142 44.1289 61.3525 44.1289 61.8932C44.1289 62.4339 44.5673 62.8721 45.1078 62.8721H47.9588V66.3047H45.1078C44.5671 66.3047 44.1289 66.7429 44.1289 67.2836C44.1289 67.8243 44.5673 68.2625 45.1078 68.2625H47.9588V71.6949H45.1078C44.5671 71.6949 44.1289 72.1332 44.1289 72.6739C44.1289 73.2146 44.5673 73.6529 45.1078 73.6529H47.9588V74.9551C47.9588 75.4959 48.3972 75.9341 48.9377 75.9341C49.4783 75.9341 49.9167 75.4959 49.9167 74.9551V73.6529H69.2972C69.8378 73.6529 70.2761 73.2147 70.2761 72.6739C70.2761 72.1332 69.8377 71.6949 69.2972 71.6949H49.9167V68.2625H69.2972C69.8378 68.2625 70.2761 67.8243 70.2761 67.2836C70.2761 66.7429 69.8377 66.3047 69.2972 66.3047H49.9167V62.8721H69.2972Z" fill="#C7C7C7"/>
</g>
<defs>
<filter id="filter0_d" x="0" y="0" width="106.097" height="125" filterUnits="userSpaceOnUse" color-interpolation-filters="sRGB">
<feFlood flood-opacity="0" result="BackgroundImageFix"/>
<feColorMatrix in="SourceAlpha" type="matrix" values="0 0 0 0 0 0 0 0 0 0 0 0 0 0 0 0 0 0 127 0"/>
<feOffset dy="10"/>
<feGaussianBlur stdDeviation="15"/>
<feColorMatrix type="matrix" values="0 0 0 0 0 0 0 0 0 0 0 0 0 0 0 0 0 0 0.01 0"/>
<feBlend mode="normal" in2="BackgroundImageFix" result="effect1_dropShadow"/>
<feBlend mode="normal" in="SourceGraphic" in2="effect1_dropShadow" result="shape"/>
</filter>
</defs>
</svg>
