<svg width="51" height="51" viewBox="30 20 51 51" fill="none" xmlns="http://www.w3.org/2000/svg">
<g filter="url(#filter0_d)">
<path d="M77.5067 33.7898L80.75 37.2493V65.9225C80.75 68.5939 78.5941 70.75 75.9226 70.75H35.0774C32.4059 70.75 30.25 68.5939 30.25 65.9225V37.2493L33.4933 33.7898H77.5067Z" fill="white" stroke="#F1F1F1" stroke-width="0.5"/>
<path d="M81 37.1504V65.9225C81 68.7319 78.7322 71 75.9226 71H55.5V33.5398H77.615L81 37.1504Z" fill="#F1F1F1"/>
<path d="M81 28.4624V37.1505H30V28.4624C30 25.6528 32.2678 23.385 35.0774 23.385H75.9226C78.7322 23.385 81 25.6528 81 28.4624Z" fill="#FF3687"/>
<path d="M81 28.4624V37.1505H55.5V23.385H75.9226C78.7322 23.385 81 25.6528 81 28.4624Z" fill="#ED1C70"/>
<path d="M38.462 30.1549C37.5265 30.1549 36.7695 29.3979 36.7695 28.4624V21.6925C36.7695 20.757 37.5265 20 38.462 20C39.3975 20 40.1545 20.757 40.1545 21.6925V28.4624C40.1545 29.3979 39.3975 30.1549 38.462 30.1549Z" fill="#433A5B"/>
<path d="M48.6173 30.1549C47.6818 30.1549 46.9248 29.3979 46.9248 28.4624V21.6925C46.9248 20.757 47.6818 20 48.6173 20C49.5528 20 50.3098 20.757 50.3098 21.6925V28.4624C50.3098 29.3979 49.5528 30.1549 48.6173 30.1549Z" fill="#433A5B"/>
<path d="M62.3829 30.1549C61.4474 30.1549 60.6904 29.3979 60.6904 28.4624V21.6925C60.6904 20.757 61.4474 20 62.3829 20C63.3184 20 64.0754 20.757 64.0754 21.6925V28.4624C64.0754 29.3979 63.3184 30.1549 62.3829 30.1549Z" fill="#281B49"/>
<path d="M72.5372 30.1549C71.6017 30.1549 70.8447 29.3979 70.8447 28.4624V21.6925C70.8447 20.757 71.6017 20 72.5372 20C73.4727 20 74.2297 20.757 74.2297 21.6925V28.4624C74.2297 29.3979 73.4727 30.1549 72.5372 30.1549Z" fill="#281B49"/>
<path d="M41.847 43.9204H38.462C37.5265 43.9204 36.7695 43.1634 36.7695 42.2279C36.7695 41.2924 37.5265 40.5354 38.462 40.5354H41.847C42.7825 40.5354 43.5394 41.2924 43.5394 42.2279C43.5394 43.1634 42.7825 43.9204 41.847 43.9204Z" fill="#ADACB2"/>
<path d="M52.1151 43.9204H48.6173C47.6818 43.9204 46.9248 43.1634 46.9248 42.2279C46.9248 41.2924 47.6818 40.5354 48.6173 40.5354H52.1151C53.0506 40.5354 53.8075 41.2924 53.8075 42.2279C53.8075 43.1634 53.0506 43.9204 52.1151 43.9204Z" fill="#ADACB2"/>
<path d="M62.3826 43.9204H58.8849C57.9494 43.9204 57.1924 43.1634 57.1924 42.2279C57.1924 41.2924 57.9494 40.5354 58.8849 40.5354H62.3826C63.3181 40.5354 64.0751 41.2924 64.0751 42.2279C64.0751 43.1634 63.3181 43.9204 62.3826 43.9204Z" fill="#8A8891"/>
<path d="M72.5374 43.9204H69.1524C68.2169 43.9204 67.46 43.1634 67.46 42.2279C67.46 41.2924 68.2169 40.5354 69.1524 40.5354H72.5374C73.4729 40.5354 74.2299 41.2924 74.2299 42.2279C74.2299 43.1634 73.4729 43.9204 72.5374 43.9204Z" fill="#8A8891"/>
<path d="M41.847 50.6904H38.462C37.5265 50.6904 36.7695 49.9334 36.7695 48.9979C36.7695 48.0624 37.5265 47.3054 38.462 47.3054H41.847C42.7825 47.3054 43.5394 48.0624 43.5394 48.9979C43.5394 49.9334 42.7825 50.6904 41.847 50.6904Z" fill="#ADACB2"/>
<path d="M52.1151 50.6904H48.6173C47.6818 50.6904 46.9248 49.9334 46.9248 48.9979C46.9248 48.0624 47.6818 47.3054 48.6173 47.3054H52.1151C53.0506 47.3054 53.8075 48.0624 53.8075 48.9979C53.8075 49.9334 53.0506 50.6904 52.1151 50.6904Z" fill="#ADACB2"/>
<path d="M62.3826 50.6904H58.8849C57.9494 50.6904 57.1924 49.9334 57.1924 48.9979C57.1924 48.0624 57.9494 47.3054 58.8849 47.3054H62.3826C63.3181 47.3054 64.0751 48.0624 64.0751 48.9979C64.0751 49.9334 63.3181 50.6904 62.3826 50.6904Z" fill="#8A8891"/>
<path d="M72.5374 50.6904H69.1524C68.2169 50.6904 67.46 49.9334 67.46 48.9979C67.46 48.0624 68.2169 47.3054 69.1524 47.3054H72.5374C73.4729 47.3054 74.2299 48.0624 74.2299 48.9979C74.2299 49.9334 73.4729 50.6904 72.5374 50.6904Z" fill="#8A8891"/>
<path d="M41.847 57.4602H38.462C37.5265 57.4602 36.7695 56.7032 36.7695 55.7677C36.7695 54.8322 37.5265 54.0752 38.462 54.0752H41.847C42.7825 54.0752 43.5394 54.8322 43.5394 55.7677C43.5394 56.7032 42.7825 57.4602 41.847 57.4602Z" fill="#ADACB2"/>
<path d="M52.1151 57.4602H48.6173C47.6818 57.4602 46.9248 56.7032 46.9248 55.7677C46.9248 54.8322 47.6818 54.0752 48.6173 54.0752H52.1151C53.0506 54.0752 53.8075 54.8322 53.8075 55.7677C53.8075 56.7032 53.0506 57.4602 52.1151 57.4602Z" fill="#ADACB2"/>
<path d="M62.3826 57.4602H58.8849C57.9494 57.4602 57.1924 56.7032 57.1924 55.7677C57.1924 54.8322 57.9494 54.0752 58.8849 54.0752H62.3826C63.3181 54.0752 64.0751 54.8322 64.0751 55.7677C64.0751 56.7032 63.3181 57.4602 62.3826 57.4602Z" fill="#8A8891"/>
<path d="M41.847 64.2302H38.462C37.5265 64.2302 36.7695 63.4732 36.7695 62.5377C36.7695 61.6022 37.5265 60.8452 38.462 60.8452H41.847C42.7825 60.8452 43.5394 61.6022 43.5394 62.5377C43.5394 63.4732 42.7825 64.2302 41.847 64.2302Z" fill="#ADACB2"/>
<path d="M52.1151 64.2302H48.6173C47.6818 64.2302 46.9248 63.4732 46.9248 62.5377C46.9248 61.6022 47.6818 60.8452 48.6173 60.8452H52.1151C53.0506 60.8452 53.8075 61.6022 53.8075 62.5377C53.8075 63.4732 53.0506 64.2302 52.1151 64.2302Z" fill="#ADACB2"/>
<path d="M62.3826 64.2302H58.8849C57.9494 64.2302 57.1924 63.4732 57.1924 62.5377C57.1924 61.6022 57.9494 60.8452 58.8849 60.8452H62.3826C63.3181 60.8452 64.0751 61.6022 64.0751 62.5377C64.0751 63.4732 63.3181 64.2302 62.3826 64.2302Z" fill="#8A8891"/>
</g>
<defs>
<filter id="filter0_d" x="0" y="0" width="111" height="111" filterUnits="userSpaceOnUse" color-interpolation-filters="sRGB">
<feFlood flood-opacity="0" result="BackgroundImageFix"/>
<feColorMatrix in="SourceAlpha" type="matrix" values="0 0 0 0 0 0 0 0 0 0 0 0 0 0 0 0 0 0 127 0"/>
<feOffset dy="10"/>
<feGaussianBlur stdDeviation="15"/>
<feColorMatrix type="matrix" values="0 0 0 0 0 0 0 0 0 0 0 0 0 0 0 0 0 0 0.01 0"/>
<feBlend mode="normal" in2="BackgroundImageFix" result="effect1_dropShadow"/>
<feBlend mode="normal" in="SourceGraphic" in2="effect1_dropShadow" result="shape"/>
</filter>
</defs>
</svg>
