<svg width="69" height="60" viewBox="30 20 69 60" fill="none" xmlns="http://www.w3.org/2000/svg">
<g filter="url(#filter0_d)">
<path d="M60.5222 20H34.3656C31.9545 20 30 21.9546 30 24.3656V46.0737C30 48.4658 31.9242 50.4075 34.309 50.4378V50.4392L35.5254 51.1276H42.4658L44.0942 50.4393H60.5218C62.9329 50.4393 64.8874 48.4848 64.8874 46.0737V24.3656C64.8874 21.9548 62.933 20.0003 60.5222 20Z" fill="#72C9E4"/>
<path d="M68.8885 20H60.1348C62.5459 20 64.5004 21.9545 64.5004 24.3656V46.0737C64.5004 48.4848 62.5459 50.4393 60.1348 50.4393H68.8885C71.2995 50.4393 73.254 48.4848 73.254 46.0737V24.3656C73.254 21.9546 71.2995 20 68.8885 20Z" fill="#60B2CC"/>
<path d="M34.3096 60.5802C34.3096 61.2163 35.1124 61.4951 35.5067 60.9959L43.3208 51.1033C43.652 50.6839 44.1571 50.4392 44.6916 50.4392H34.3096V60.5802Z" fill="#60B2CC"/>
<path d="M85.5422 70.4506C85.7112 69.1711 86.5265 68.0733 87.7141 67.5147C89.333 66.7531 90.4527 65.1083 90.4527 63.2019V38.2651C90.4527 35.6336 88.3195 33.5002 85.6879 33.5002H54.3284C51.6967 33.5002 49.5635 35.6335 49.5635 38.2651V63.2019C49.5635 65.8335 51.6967 67.9667 54.3284 67.9667H82.1241C82.8149 67.9667 83.4673 68.2829 83.8953 68.8247L83.6991 68.9796L83.8953 68.8247L85.368 70.6892C85.4595 70.6477 85.5277 70.56 85.5422 70.4506ZM85.5422 70.4506C85.5422 70.4506 85.5422 70.4506 85.5422 70.4506L85.79 70.4834L85.5422 70.4506Z" fill="white" stroke="#F1F1F1" stroke-width="0.5"/>
<path d="M93.9853 33.2502H85.2021C87.9717 33.2502 90.217 35.4954 90.217 38.2651V63.2018C90.217 65.2088 89.038 66.9397 87.3348 67.7409C86.0801 68.331 85.2672 69.5785 85.2672 70.9649L92.6753 80.3435C93.1282 80.9169 94.0504 80.5966 94.0504 79.8659V68.215C96.7899 68.1801 99.0004 65.9496 99.0004 63.2017V38.2651C99.0002 35.4954 96.755 33.2502 93.9853 33.2502Z" fill="#F1F1F1"/>
<path d="M90.6781 43.3976H57.6359C57.0609 43.3976 56.5947 42.9314 56.5947 42.3564C56.5947 41.7813 57.0609 41.3152 57.6359 41.3152H90.6781C91.2531 41.3152 91.7193 41.7813 91.7193 42.3564C91.7193 42.9314 91.2531 43.3976 90.6781 43.3976Z" fill="#C7C7C7"/>
<path d="M90.6781 51.3575H57.6359C57.0609 51.3575 56.5947 50.8914 56.5947 50.3163C56.5947 49.7413 57.0609 49.2751 57.6359 49.2751H90.6781C91.2531 49.2751 91.7193 49.7413 91.7193 50.3163C91.7193 50.8913 91.2531 51.3575 90.6781 51.3575Z" fill="#C7C7C7"/>
<path d="M90.6781 59.317H57.6359C57.0609 59.317 56.5947 58.8509 56.5947 58.2758C56.5947 57.7008 57.0609 57.2346 57.6359 57.2346H90.6781C91.2531 57.2346 91.7193 57.7008 91.7193 58.2758C91.7193 58.8509 91.2531 59.317 90.6781 59.317Z" fill="#C7C7C7"/>
</g>
<defs>
<filter id="filter0_d" x="0" y="0" width="129" height="120.638" filterUnits="userSpaceOnUse" color-interpolation-filters="sRGB">
<feFlood flood-opacity="0" result="BackgroundImageFix"/>
<feColorMatrix in="SourceAlpha" type="matrix" values="0 0 0 0 0 0 0 0 0 0 0 0 0 0 0 0 0 0 127 0"/>
<feOffset dy="10"/>
<feGaussianBlur stdDeviation="15"/>
<feColorMatrix type="matrix" values="0 0 0 0 0 0 0 0 0 0 0 0 0 0 0 0 0 0 0.01 0"/>
<feBlend mode="normal" in2="BackgroundImageFix" result="effect1_dropShadow"/>
<feBlend mode="normal" in="SourceGraphic" in2="effect1_dropShadow" result="shape"/>
</filter>
</defs>
</svg>
