<svg width="96" height="96" viewBox="25 19 96 96" fill="none" xmlns="http://www.w3.org/2000/svg">
<g filter="url(#filter0_d)">
<path d="M119.867 64.7009L115.561 61.3971L118.865 57.0914C120.025 55.5796 119.435 53.3787 117.675 52.6493L112.661 50.5725L114.738 45.5585C115.467 43.7978 114.328 41.8245 112.438 41.5759L107.058 40.8676L107.766 35.4868C108.015 33.5975 106.404 31.9861 104.514 32.2349L102.215 32.5376V101.463L104.514 101.765C106.404 102.014 108.015 100.403 107.766 98.5137L107.058 93.133L112.438 92.4247C114.328 92.1759 115.467 90.2028 114.738 88.4421L112.661 83.4281L117.675 81.3513C119.435 80.6221 120.025 78.4212 118.865 76.9092L115.561 72.6035L119.867 69.2997C121.379 68.1396 121.379 65.861 119.867 64.7009Z" fill="#ED1C70"/>
<path d="M98.4245 106.438L99.1328 101.057L102.214 101.463C103.122 100.924 103.715 99.7831 103.568 98.5135L102.945 93.1328L107.676 92.4245C109.338 92.1757 110.339 90.2026 109.698 88.442L107.872 83.4279L112.281 81.3511C113.829 80.6219 114.347 78.421 113.327 76.909L110.422 72.6033L114.208 69.2995C115.537 68.1394 115.537 65.8609 114.208 64.7007L110.422 61.397L113.327 57.0912C114.347 55.5794 113.829 53.3785 112.281 52.6492L107.872 50.5723L109.698 45.5583C110.339 43.7976 109.338 41.8243 107.676 41.5757L102.945 40.8674L103.568 35.4866C103.715 34.2169 103.122 33.0759 102.214 32.5374L99.1326 32.9432L99.0716 32.4801L98.4241 27.5626C98.1753 25.6731 96.2022 24.5341 94.4416 25.2632L89.4275 27.3401L87.3507 22.3261C86.6213 20.5654 84.4205 19.9757 82.9086 21.1358L78.6029 24.4396L75.2995 20.1339C74.1394 18.622 71.8609 18.622 70.7008 20.1339L67.397 24.4396L63.0912 21.1358C61.5794 19.9757 59.3785 20.5654 58.6492 22.3261L56.5723 27.3401L51.5583 25.2632C49.7976 24.5341 47.8243 25.6733 47.5757 27.5626L46.8674 32.9432L41.4868 32.2349C39.5973 31.9861 37.9861 33.5973 38.2349 35.4868L38.9432 40.8674L33.5626 41.5757C31.6733 41.8245 30.5339 43.7976 31.2632 45.5583L33.3401 50.5723L28.3261 52.6492C26.5654 53.3785 25.9757 55.5792 27.1358 57.0912L30.4396 61.397L26.1339 64.7007C24.622 65.8609 24.622 68.1394 26.1339 69.2995L30.4396 72.6033L27.1358 76.909C25.9757 78.4209 26.5654 80.6217 28.3261 81.3511L33.3401 83.4279L31.2632 88.442C30.5339 90.2026 31.6731 92.1759 33.5626 92.4245L38.9432 93.1328L38.2349 98.5135C37.9861 100.403 39.5973 102.014 41.4868 101.765L46.8674 101.057L47.5757 106.438C47.8245 108.327 49.7976 109.466 51.5583 108.737L56.5723 106.66L58.6492 111.674C59.3783 113.435 61.5792 114.025 63.0912 112.864L67.397 109.561L70.7008 113.866C71.8609 115.378 74.1394 115.378 75.2995 113.866L78.6033 109.561L82.909 112.864C84.4209 114.025 86.6217 113.435 87.3511 111.674L89.4279 106.66L94.442 108.737C96.2026 109.466 98.1757 108.327 98.4245 106.438Z" fill="#F34B8F"/>
</g>
<defs>
<filter id="filter0_d" x="0" y="0" width="146.001" height="146" filterUnits="userSpaceOnUse" color-interpolation-filters="sRGB">
<feFlood flood-opacity="0" result="BackgroundImageFix"/>
<feColorMatrix in="SourceAlpha" type="matrix" values="0 0 0 0 0 0 0 0 0 0 0 0 0 0 0 0 0 0 127 0"/>
<feOffset dy="6"/>
<feGaussianBlur stdDeviation="12.5"/>
<feColorMatrix type="matrix" values="0 0 0 0 0 0 0 0 0 0 0 0 0 0 0 0 0 0 0.01 0"/>
<feBlend mode="normal" in2="BackgroundImageFix" result="effect1_dropShadow"/>
<feBlend mode="normal" in="SourceGraphic" in2="effect1_dropShadow" result="shape"/>
</filter>
</defs>
</svg>
