<svg xmlns="http://www.w3.org/2000/svg" width="18" height="19" viewBox="0 0 18 19" fill="none">
<path d="M17.3577 2.2514L15.7462 0.639872C14.893 -0.213291 13.509 -0.213291 12.6748 0.639872L1.75435 11.5793C1.67851 11.6551 1.60267 11.7689 1.56475 11.8827L0.0290609 17.0964C-0.0467758 17.3429 0.0290609 17.6273 0.218653 17.8169C0.408244 18.0065 0.692632 18.0823 0.939101 18.0065L6.15287 16.4518C6.26663 16.4139 6.38038 16.357 6.45622 16.2622L17.3767 5.34174C18.2109 4.48858 18.2109 3.10456 17.3577 2.2514ZM1.79226 16.2243L2.75918 12.9823C3.57442 13.589 4.40863 14.4421 5.03428 15.2574L1.79226 16.2243ZM6.22871 14.4232C5.50826 13.4752 4.54134 12.5083 3.59338 11.7879L11.8217 3.55958C12.7696 4.22315 13.7745 5.24695 14.457 6.19491L6.22871 14.4232ZM16.3339 4.29899L15.4808 5.15215C14.7603 4.20419 13.7934 3.23728 12.8455 2.51683L13.6986 1.66367C13.983 1.37928 14.438 1.37928 14.7224 1.66367L16.3339 3.2752C16.6183 3.55958 16.6183 4.03356 16.3339 4.29899Z" fill="#6133AF"/>
</svg>