<svg width="42" height="42" viewBox="0 0 42 42" fill="none" xmlns="http://www.w3.org/2000/svg">
<path d="M20.94 2.40849e-06C16.8316 -0.00197561 12.815 1.21445 9.39811 3.49549C5.98118 5.77652 3.31744 9.01965 1.74387 12.8147C0.170305 16.6097 -0.242389 20.7862 0.557897 24.8158C1.35818 28.8454 3.3355 32.5473 6.23984 35.453C9.14418 38.3587 12.845 40.3379 16.8743 41.1401C20.9036 41.9424 25.0802 41.5316 28.876 39.9598C32.6718 38.3881 35.9163 35.726 38.1989 32.3102C40.4816 28.8944 41.7 24.8782 41.7 20.7699C41.6815 15.2688 39.4887 9.99803 35.5998 6.10718C31.7108 2.21633 26.4411 0.0210893 20.94 2.40849e-06ZM32.63 23.1899C32.4897 25.6772 31.477 28.0355 29.77 29.85C27.4155 31.9812 24.3434 33.1456 21.1678 33.1104C17.9921 33.0751 14.9467 31.8429 12.64 29.6599C10.4267 27.3462 9.2072 24.2578 9.24271 21.0562C9.27822 17.8545 10.5659 14.794 12.83 12.5299C14.4776 10.908 16.5667 9.80779 18.8362 9.3667C21.1057 8.92561 23.4548 9.16326 25.59 10.0499L27.3 11.0499L29.2 12.3799L26.2 15.3799L25.06 14.62C23.6572 13.7761 22.011 13.4295 20.3871 13.6364C18.7632 13.8432 17.2564 14.5913 16.11 15.7599C14.7034 17.2457 13.9195 19.2139 13.9195 21.2599C13.9195 23.3059 14.7034 25.2741 16.11 26.7599C16.7967 27.4831 17.6233 28.059 18.5396 28.4525C19.456 28.846 20.4427 29.049 21.44 29.049C22.4372 29.049 23.4241 28.846 24.3404 28.4525C25.2567 28.059 26.0833 27.4831 26.77 26.7599C27.6189 25.9469 28.213 24.9046 28.48 23.7599V23.3799H21.63V19.5699H32.44L32.63 20.5199V23.1899Z" fill="white"/>
</svg>
