<svg width="42" height="42" viewBox="0 0 42 42" fill="none" xmlns="http://www.w3.org/2000/svg">
<path d="M21.21 2.40849e-06C17.1016 -0.00197561 13.085 1.21445 9.66805 3.49549C6.25113 5.77652 3.58744 9.01965 2.01387 12.8147C0.440309 16.6097 0.0275541 20.7862 0.827839 24.8158C1.62812 28.8454 3.60551 32.5473 6.50985 35.453C9.41418 38.3587 13.115 40.3379 17.1443 41.1401C21.1736 41.9424 25.3502 41.5316 29.146 39.9598C32.9418 38.3881 36.1862 35.726 38.4689 32.3102C40.7516 28.8944 41.97 24.8782 41.97 20.7699C41.9713 18.0428 41.4353 15.3423 40.3926 12.8224C39.3499 10.3025 37.821 8.01279 35.8931 6.08399C33.9652 4.15518 31.6762 2.62509 29.1568 1.58118C26.6374 0.537266 23.9371 2.09211e-06 21.21 2.40849e-06ZM15.21 31.3899H10.15V16.1799H15.21V31.3899ZM12.68 14.1C12.1709 14.0515 11.6868 13.8562 11.2866 13.5378C10.8863 13.2195 10.5872 12.7918 10.4254 12.3066C10.2637 11.8215 10.2464 11.2998 10.3756 10.8049C10.5047 10.3101 10.7749 9.86349 11.1531 9.51929C11.5313 9.17509 12.0014 8.94819 12.5062 8.86609C13.011 8.784 13.5287 8.85028 13.9965 9.05689C14.4644 9.26349 14.8621 9.60153 15.1414 10.0299C15.4208 10.4583 15.5696 10.9586 15.57 11.47C15.5733 11.8388 15.4988 12.2042 15.3512 12.5422C15.2036 12.8803 14.9863 13.1834 14.7135 13.4316C14.4407 13.6799 14.1185 13.8677 13.7681 13.9829C13.4177 14.0981 13.0469 14.138 12.68 14.1ZM33.44 31.3899H28.38V23.25C28.38 21.25 27.65 19.8099 25.82 19.8099C25.2501 19.8132 24.6952 19.9927 24.2315 20.324C23.7677 20.6552 23.4179 21.1219 23.23 21.6599C23.0959 22.0589 23.0382 22.4796 23.06 22.8999V31.3899H18.01C18.01 31.3899 18.07 17.6099 18.01 16.1799H23.06V18.33C23.5163 17.5332 24.1833 16.8776 24.9876 16.4348C25.792 15.9921 26.7027 15.7793 27.62 15.8199C30.95 15.8199 33.44 17.9999 33.44 22.6699V31.3899Z" fill="white"/>
</svg>
