<svg width="43" height="42" viewBox="0 0 43 42" fill="none" xmlns="http://www.w3.org/2000/svg">
<path d="M21.66 2.40849e-06C17.5516 -0.00197561 13.535 1.21445 10.1181 3.49549C6.70114 5.77652 4.03745 9.01965 2.46389 12.8147C0.890321 16.6097 0.477566 20.7862 1.27785 24.8158C2.07814 28.8454 4.05552 32.5473 6.95986 35.453C9.8642 38.3587 13.565 40.3379 17.5943 41.1401C21.6235 41.9424 25.8002 41.5316 29.596 39.9598C33.3918 38.3881 36.6362 35.726 38.9189 32.3102C41.2016 28.8944 42.42 24.8782 42.42 20.7699C42.42 15.2631 40.2331 9.98176 36.3401 6.08692C32.4471 2.19207 27.1668 0.00265374 21.66 2.40849e-06ZM21.95 16.1399C21.9399 16.0949 21.9421 16.0481 21.9561 16.0042C21.9702 15.9602 21.9957 15.9207 22.03 15.8899C22.0958 15.8154 22.1696 15.7484 22.25 15.6899C22.3022 15.6392 22.3722 15.6108 22.445 15.6108C22.5178 15.6108 22.5877 15.6392 22.64 15.6899C22.7385 15.8519 22.8032 16.0323 22.83 16.22C22.859 16.3008 22.859 16.3892 22.83 16.47L22.58 16.96L21.99 18.0599C21.9514 18.1294 21.9211 18.2033 21.9 18.2799H21.8C21.8 18.2799 21.8 18.2799 21.87 18.2799C21.8438 18.2542 21.8239 18.2228 21.8117 18.1881C21.7996 18.1534 21.7956 18.1164 21.8 18.08C21.87 17.76 21.96 17.44 22.03 17.08C22.03 16.97 22.09 16.86 22.11 16.75C22.1397 16.6488 22.1397 16.5411 22.11 16.4399C22.01 16.3799 21.98 16.2499 21.95 16.1399ZM18.84 16.6899C18.9624 16.6903 19.084 16.7106 19.2 16.75C19.2416 16.7643 19.2769 16.7925 19.3 16.83C19.3502 16.9221 19.3904 17.0194 19.42 17.12C19.4724 17.3074 19.5848 17.4725 19.74 17.59L20.67 18.4099C20.7576 18.4906 20.82 18.5948 20.85 18.71H20.9C20.23 18.39 19.58 18.04 18.9 17.71C18.8397 17.6793 18.7907 17.6302 18.76 17.5699C18.67 17.3802 18.6093 17.1779 18.58 16.97C18.582 16.8997 18.6095 16.8326 18.6574 16.7811C18.7052 16.7296 18.7701 16.6972 18.84 16.6899ZM20.75 28.24C20.4384 28.9585 20.0636 29.6478 19.63 30.2999C19.42 30.6199 19.19 30.93 18.98 31.23C18.9437 31.2807 18.8904 31.3166 18.8299 31.3313C18.7693 31.346 18.7054 31.3384 18.65 31.3099L18.46 31.22L17.8 30.85C16.872 30.3337 15.9948 29.731 15.18 29.0499C14.7585 28.7001 14.367 28.3154 14.01 27.8999C13.7387 27.568 13.5072 27.2056 13.32 26.8199C13.2208 26.6248 13.1794 26.4054 13.2007 26.1875C13.222 25.9696 13.305 25.7623 13.44 25.59C13.6071 25.351 13.7945 25.1268 14 24.9199C14.3463 24.5998 14.7213 24.3119 15.12 24.0599C15.54 23.7799 16.42 23.2999 16.92 23.0599C17.42 22.8199 17.85 22.6399 18.31 22.4099C18.51 22.3099 18.73 22.2299 18.94 22.1399C18.94 22.1399 18.94 22.14 18.94 22.08H18.88H18.73C18.26 22.2 17.73 22.3199 17.31 22.4199C17.01 22.4866 16.71 22.5666 16.41 22.6599C15.97 22.7799 15.52 22.9 15.07 23C14.62 23.1 14.28 23.1999 13.88 23.3099C13.6594 23.3598 13.4305 23.3598 13.21 23.3099C13.0232 23.2677 12.842 23.204 12.67 23.12C12.4258 23.0028 12.1916 22.8657 11.97 22.71C11.6361 22.4539 11.3218 22.1731 11.03 21.87C10.4375 21.2529 9.90201 20.5835 9.43001 19.87C9.23001 19.57 9.04001 19.2599 8.87001 18.9399C8.68296 18.5624 8.51606 18.1751 8.37001 17.7799C8.26776 17.5011 8.21362 17.2069 8.20998 16.9099C8.20752 16.7967 8.23888 16.6853 8.30001 16.59C8.34331 16.4999 8.41794 16.4288 8.50997 16.3899C8.59862 16.3398 8.69255 16.2995 8.79 16.2699C9.62977 15.9697 10.5186 15.8307 11.41 15.86C12.241 15.8895 13.0631 16.0411 13.85 16.3099C14.5192 16.5306 15.1683 16.8082 15.79 17.1399C16.4799 17.5108 17.1477 17.9216 17.79 18.37C18.7 19 19.57 19.66 20.41 20.37C20.5406 20.4798 20.6463 20.616 20.72 20.7699C20.8798 21.1562 21.0102 21.554 21.11 21.96C21.19 22.34 21.3 22.77 21.36 23.22C21.6208 24.9143 21.4097 26.6477 20.75 28.23V28.24ZM21.67 21.7799C21.6406 21.7492 21.6199 21.7113 21.61 21.6699C21.47 21.2099 21.32 20.7499 21.18 20.2799C21.1688 20.237 21.1714 20.1916 21.1876 20.1503C21.2037 20.1089 21.2326 20.0738 21.27 20.0499C21.5269 19.9381 21.7951 19.8543 22.07 19.7999C22.1047 19.7983 22.1394 19.8037 22.1721 19.8157C22.2047 19.8277 22.2346 19.8462 22.26 19.87C22.26 19.97 22.35 20.0599 22.38 20.1599C22.41 20.2599 22.48 20.4799 22.53 20.6399C22.59 20.8899 22.66 21.13 22.72 21.37C22.7274 21.4161 22.7185 21.4632 22.6947 21.5034C22.671 21.5436 22.6339 21.5742 22.59 21.59C22.3315 21.7045 22.0592 21.7852 21.78 21.83C21.7373 21.8238 21.6983 21.8024 21.67 21.7699V21.7799ZM24.34 27.0099C24.0798 27.1199 23.8081 27.2005 23.53 27.25C23.4877 27.2638 23.4422 27.2638 23.4 27.25C23.3687 27.2207 23.3477 27.182 23.34 27.1399C23.34 27.0099 23.24 26.86 23.2 26.72L22.03 22.99C21.9702 22.8322 21.9299 22.6676 21.91 22.5C21.9104 22.4661 21.9178 22.4327 21.9315 22.4017C21.9453 22.3708 21.9652 22.343 21.99 22.3199C22.2412 22.1934 22.5114 22.1089 22.79 22.0699C22.8592 22.0721 22.9259 22.0966 22.98 22.1399L23.05 22.25C23.05 22.41 23.15 22.57 23.21 22.73L23.77 24.5499L24.37 26.48C24.37 26.6 24.43 26.73 24.46 26.85C24.4526 26.8824 24.438 26.9127 24.4172 26.9387C24.3964 26.9647 24.37 26.9857 24.34 27V27.0099ZM32.4 23.0099C32.31 23.4199 32.21 23.83 32.09 24.23C31.7285 25.3573 31.2632 26.4487 30.7 27.49L30.54 27.72C30.5184 27.7314 30.4944 27.7373 30.47 27.7373C30.4456 27.7373 30.4216 27.7314 30.4 27.72H30.26C29.0222 27.321 27.8472 26.7485 26.77 26.0199C25.7206 25.3042 24.8318 24.3779 24.16 23.2999C23.7333 22.5985 23.3973 21.8459 23.16 21.0599C23.08 20.7599 23 20.4499 22.91 20.1499C22.8602 19.9835 22.8602 19.8063 22.91 19.6399C23.19 18.6399 23.51 17.64 23.91 16.71C24.15 16.08 24.42 15.45 24.72 14.84C25.0084 14.2097 25.3426 13.6013 25.72 13.0199C26.0495 12.5468 26.4138 12.0989 26.81 11.6799C27.3629 11.1065 28.0003 10.6209 28.7 10.24C28.8528 10.1493 29.0135 10.0722 29.18 10.0099C29.5574 9.84231 29.949 9.70855 30.35 9.60999H30.65C30.672 9.60005 30.6959 9.59485 30.72 9.59485C30.7441 9.59485 30.768 9.60005 30.79 9.60999C30.8471 9.64084 30.9007 9.67771 30.95 9.71997C31.0994 9.8765 31.2181 10.0596 31.3 10.2599C31.4385 10.6356 31.5389 11.0242 31.6 11.4199C31.7083 12.1815 31.7518 12.951 31.73 13.72C31.7171 14.4761 31.6334 15.2294 31.48 15.97C31.399 16.3895 31.2715 16.7986 31.1 17.1899C31.0098 17.4002 30.8993 17.6012 30.77 17.7899C30.6532 17.9485 30.5114 18.087 30.35 18.2L30.16 18.3199H30.09C29.09 18.6399 28.17 19.0599 27.19 19.3199C26.9946 19.3786 26.8041 19.4522 26.62 19.5399C26.15 19.7499 25.62 19.88 25.19 20.1C25.19 20.1 25.19 20.1 25.25 20.1C25.76 19.98 26.25 19.9299 26.77 19.8099C27.7606 19.6315 28.7637 19.5311 29.77 19.5099C30.1682 19.502 30.5664 19.5289 30.96 19.59C31.3129 19.6573 31.6514 19.7859 31.96 19.97C32.0393 20.0106 32.1132 20.061 32.18 20.12C32.2282 20.1604 32.266 20.2118 32.29 20.2699C32.4317 20.5853 32.5131 20.9245 32.53 21.2699C32.5593 21.8398 32.5156 22.4112 32.4 22.97V23.0099Z" fill="white"/>
</svg>
