<svg width="42" height="42" viewBox="0 0 50 50" fill="none" xmlns="http://www.w3.org/2000/svg">
<circle cx="25" cy="25" r="25" fill="white"/>
<path fill-rule="evenodd" clip-rule="evenodd" d="M19.291 12.6667H30.0447C33.6969 12.6667 36.6681 15.638 36.668 19.2899V30.0436C36.668 33.6955 33.6969 36.6667 30.0447 36.6667H19.291C15.639 36.6667 12.668 33.6957 12.668 30.0436V19.2899C12.668 15.638 15.639 12.6667 19.291 12.6667ZM30.0457 34.5374C32.5236 34.5374 34.5395 32.5215 34.5395 30.0436H34.5394V19.2899C34.5394 16.8121 32.5234 14.7961 30.0455 14.7961H19.2918C16.814 14.7961 14.7982 16.8121 14.7982 19.2899V30.0436C14.7982 32.5215 16.814 34.5375 19.2918 34.5374H30.0457ZM18.3815 24.667C18.3815 21.2009 21.2012 18.3811 24.6672 18.3811C28.1332 18.3811 30.9529 21.2009 30.9529 24.667C30.9529 28.1329 28.1332 30.9525 24.6672 30.9525C21.2012 30.9525 18.3815 28.1329 18.3815 24.667ZM20.5456 24.6668C20.5456 26.9393 22.3945 28.788 24.6669 28.788C26.9394 28.788 28.7883 26.9393 28.7883 24.6668C28.7883 22.3942 26.9395 20.5453 24.6669 20.5453C22.3944 20.5453 20.5456 22.3942 20.5456 24.6668Z" fill="#281A49"/>
<mask id="mask0_2529_6870" style="mask-type:alpha" maskUnits="userSpaceOnUse" x="12" y="12" width="25" height="25">
<path fill-rule="evenodd" clip-rule="evenodd" d="M19.291 12.6667H30.0447C33.6969 12.6667 36.6681 15.638 36.668 19.2899V30.0436C36.668 33.6955 33.6969 36.6668 30.0447 36.6668H19.291C15.639 36.6668 12.668 33.6957 12.668 30.0436V19.2899C12.668 15.638 15.639 12.6667 19.291 12.6667ZM30.0457 34.5374C32.5236 34.5374 34.5395 32.5215 34.5395 30.0436H34.5394V19.2899C34.5394 16.8121 32.5234 14.7961 30.0455 14.7961H19.2918C16.814 14.7961 14.7982 16.8121 14.7982 19.2899V30.0436C14.7982 32.5215 16.814 34.5375 19.2918 34.5374H30.0457ZM18.3815 24.667C18.3815 21.2009 21.2012 18.3811 24.6672 18.3811C28.1332 18.3811 30.9529 21.2009 30.9529 24.667C30.9529 28.1329 28.1332 30.9525 24.6672 30.9525C21.2012 30.9525 18.3815 28.1329 18.3815 24.667ZM20.5456 24.6668C20.5456 26.9393 22.3945 28.788 24.6669 28.788C26.9394 28.788 28.7883 26.9393 28.7883 24.6668C28.7883 22.3942 26.9395 20.5453 24.6669 20.5453C22.3944 20.5453 20.5456 22.3942 20.5456 24.6668Z" fill="white"/>
</mask>
<g mask="url(#mask0_2529_6870)">
</g>
</svg>
