<svg width="43" height="42" viewBox="0 0 43 42" fill="none" xmlns="http://www.w3.org/2000/svg">
<path d="M42.25 20.77C42.252 16.6612 41.0353 12.6441 38.7538 9.22698C36.4723 5.80984 33.2286 3.1462 29.4329 1.57293C25.6373 -0.000341654 21.4603 -0.412492 17.4304 0.388604C13.4005 1.1897 9.69873 3.16808 6.79339 6.07342C3.88805 8.97876 1.9097 12.6805 1.1086 16.7104C0.307509 20.7403 0.71966 24.9173 2.29293 28.7129C3.8662 32.5086 6.5299 35.7523 9.94705 38.0337C13.3642 40.3152 17.3812 41.5319 21.49 41.53H21.84V25.3799H17.38V20.18H21.84V16.35C21.84 11.91 24.55 9.50005 28.51 9.50005C29.846 9.49103 31.1815 9.55776 32.51 9.70001V14.34H29.84C27.69 14.34 27.27 15.34 27.27 16.86V20.17H32.42L31.75 25.37H27.27V40.69C31.6027 39.437 35.4099 36.8077 38.1161 33.1995C40.8222 29.5913 42.2803 25.2003 42.27 20.69L42.25 20.77Z" fill="white"/>
</svg>
