<svg width="25" height="17" viewBox="0 0 25 17" fill="none" xmlns="http://www.w3.org/2000/svg">
<g clip-path="url(#clip0_4099_23552)">
<path d="M0 1.04297C1.6709 2.45819 3.34163 3.87373 5.01221 5.2896C6.13428 6.24057 7.2557 7.19218 8.37646 8.14443L8.59619 8.33116C8.46094 8.44859 8.33643 8.55879 8.20996 8.66804L0 15.6251V1.04297Z" fill="white"/>
<path d="M25 15.6251L17.1245 8.94621L16.4062 8.33356C16.7695 8.02411 17.123 7.72236 17.4775 7.42206L25 1.04297V15.6251Z" fill="white"/>
<path d="M12.5 9.73684L1.02539 0H23.9746L12.5 9.73684Z" fill="white"/>
<path d="M9.72265 9.28516L12.5005 11.6433L15.2793 9.28804L24.3706 16.9993H0.634766L9.72265 9.28516Z" fill="white"/>
</g>
<defs>
<clipPath id="clip0_4099_23552">
<rect width="25" height="17" fill="white"/>
</clipPath>
</defs>
</svg>
