<svg width="40" height="40" viewBox="0 0 40 40" fill="none" xmlns="http://www.w3.org/2000/svg">
<circle cx="20" cy="20" r="20" fill="#EBE4FF"/>
<path fill-rule="evenodd" clip-rule="evenodd" d="M31.2855 18.7484L27.5423 22.3783C27.3199 22.5939 27.1262 23.1872 27.1769 23.4928L28.0458 28.634C28.1661 29.3462 28.005 29.9857 27.5922 30.4357C27.5763 30.4543 27.1443 31 26.1101 31C25.7976 31 25.4821 30.8782 25.1689 30.7126L20.5582 28.2751C20.4833 28.2354 20.3297 28.1874 20.1209 28.1703C19.7978 28.1446 19.5133 28.2051 19.3855 28.2717L14.7634 30.6865C14.3428 30.9058 13.9244 30.9539 13.5173 30.9686C12.645 31.0004 12.2947 30.3461 12.2531 30.2928C12.0095 29.9796 11.7507 29.4309 11.8963 28.5932L12.7914 23.4565C12.844 23.1513 12.6529 22.5568 12.432 22.3412L8.70617 18.692C8.08274 18.0812 7.85765 17.3267 8.08879 16.6218C8.31955 15.918 8.9479 15.4429 9.81155 15.3196L14.9749 14.5833C15.281 14.5391 15.7879 14.1737 15.9252 13.8957L18.2449 9.22692C18.6569 8.39905 19.3711 7.94295 20.1572 8.00573C20.8423 8.05981 21.4385 8.50873 21.7952 9.236L24.0915 13.9173C24.2277 14.1953 24.7323 14.5633 25.0384 14.6086L30.1983 15.3715C31.0616 15.4993 31.6869 15.977 31.9143 16.6827C32.1412 17.3876 31.9128 18.1414 31.2855 18.7484Z" fill="#6133AF"/>
</svg>
