<svg width="115" height="115" viewBox="0 0 115 115" fill="none" xmlns="http://www.w3.org/2000/svg">
<g filter="url(#filter0_d)">
<path d="M60.7226 20H31.6113C30.7089 20 30 20.7089 30 21.6113V47.4999C30 48.4022 30.7089 49.1113 31.6113 49.1113H36.5527V53.9452C36.5527 54.5898 36.9394 55.1698 37.5517 55.4276C38.1318 55.6855 38.8409 55.5566 39.2919 55.0731L45.2862 49.1113H62.3339V21.6113C62.3339 20.7089 61.625 20 60.7226 20V20Z" fill="#BAB4D4"/>
<path d="M62.334 21.6113V49.1113H46.2207V20H60.7226C61.6251 20 62.334 20.7089 62.334 21.6113Z" fill="#9C96B5"/>
<path d="M69.9017 68.272L69.8282 68.1972H69.7234H67.1679H51.0547C50.3021 68.1972 49.6934 67.5884 49.6934 66.8358V37.832C49.6934 37.0794 50.3021 36.4707 51.0547 36.4707H67.1679H83.3886C84.1412 36.4707 84.7499 37.0794 84.7499 37.832V66.8358C84.7499 67.5884 84.1412 68.1972 83.3886 68.1972H78.4472H78.1972V68.4472V73.3886C78.1972 73.9389 77.8647 74.4362 77.3572 74.6461L77.3558 74.6467C76.8631 74.8539 76.2703 74.7473 75.874 74.3517C75.8738 74.3515 75.8736 74.3512 75.8733 74.351L69.9017 68.272Z" fill="white" stroke="#F1F1F1" stroke-width="0.5"/>
<path d="M75.6966 74.5278C76.1653 74.9965 76.867 75.1235 77.4527 74.8771C78.0539 74.6285 78.4472 74.04 78.4472 73.3886V68.4472H83.3886C84.2793 68.4472 85 67.7265 85 66.8358V37.832C85 36.9414 84.2793 36.2207 83.3886 36.2207H67.168V68.4472H69.7234L75.6966 74.5278Z" fill="#F1F1F1"/>
<path d="M55.8886 31.3868C55.8886 32.2891 55.1798 32.9981 54.2773 32.9981H38.1641C37.2616 32.9981 36.5527 32.2891 36.5527 31.3868C36.5527 30.4844 37.2616 29.7755 38.1641 29.7755H54.2773C55.1798 29.7755 55.8886 30.4844 55.8886 31.3868Z" fill="#9C96B5"/>
<path d="M44.6094 39.4434H38.1641C37.2734 39.4434 36.5527 38.7227 36.5527 37.832C36.5527 36.9414 37.2734 36.2207 38.1641 36.2207H44.6094C45.5001 36.2207 46.2208 36.9414 46.2208 37.832C46.2208 38.7227 45.5001 39.4434 44.6094 39.4434Z" fill="#9C96B5"/>
<path d="M62.334 62.002H57.5C56.6101 62.002 55.8887 61.2805 55.8887 60.3907V50.7226C55.8887 49.8327 56.6101 49.1113 57.5 49.1113H65.5567V59.6274L62.334 62.002Z" fill="#5CC3E6"/>
<path d="M76.8359 49.1113H68.7793V45.8886C68.7793 44.7087 68.1139 43.7213 67.168 43.1599C66.6868 42.8743 66.1566 42.666 65.5566 42.666H63.9453C63.0554 42.666 62.334 43.3872 62.334 44.2773V62.0019H67.168H76.8359C77.7258 62.0019 78.4472 61.2804 78.4472 60.3906V50.7226C78.4472 49.8325 77.7258 49.1113 76.8359 49.1113Z" fill="#FFD9B3"/>
<path d="M78.4472 60.3906V50.7226C78.4472 49.8325 77.7258 49.1113 76.8359 49.1113H68.7793V45.8887C68.7793 44.7087 68.1139 43.7213 67.168 43.1599V62.0019H76.8359C77.7258 62.0019 78.4472 61.2805 78.4472 60.3906Z" fill="#FFBB99"/>
<path d="M55.8887 31.3867C55.8887 32.289 55.1798 32.9981 54.2774 32.9981H46.2207V29.7754H54.2774C55.1798 29.7754 55.8887 30.4843 55.8887 31.3867Z" fill="#817C98"/>
</g>
<defs>
<filter id="filter0_d" x="0" y="0" width="115" height="115" filterUnits="userSpaceOnUse" color-interpolation-filters="sRGB">
<feFlood flood-opacity="0" result="BackgroundImageFix"/>
<feColorMatrix in="SourceAlpha" type="matrix" values="0 0 0 0 0 0 0 0 0 0 0 0 0 0 0 0 0 0 127 0"/>
<feOffset dy="10"/>
<feGaussianBlur stdDeviation="15"/>
<feColorMatrix type="matrix" values="0 0 0 0 0 0 0 0 0 0 0 0 0 0 0 0 0 0 0.01 0"/>
<feBlend mode="normal" in2="BackgroundImageFix" result="effect1_dropShadow"/>
<feBlend mode="normal" in="SourceGraphic" in2="effect1_dropShadow" result="shape"/>
</filter>
</defs>
</svg>
