<svg width="26" height="18" viewBox="0 0 26 18" fill="none" xmlns="http://www.w3.org/2000/svg">
<path d="M23.592 0.850061H2.82895C1.73597 0.850061 0.85 1.73603 0.85 2.82901V15.1711C0.85 16.264 1.73597 17.15 2.82895 17.15H23.592C24.6849 17.15 25.5709 16.264 25.5709 15.1711V2.82901C25.5709 1.73603 24.685 0.850061 23.592 0.850061Z" fill="#F5F5F5" stroke="#C4C4C4" stroke-width="0.3"/>
<path d="M1.1001 2.23084H25.3198C25.072 1.51457 24.392 1.00006 23.5915 1.00006H2.82845C2.0279 1.00006 1.34798 1.51457 1.1001 2.23084Z" fill="#FF4B55"/>
<path d="M25.4209 5.92313H1V7.15385H25.4209V5.92313Z" fill="#FF4B55"/>
<path d="M25.4209 3.46143H1V4.69215H25.4209V3.46143Z" fill="#FF4B55"/>
<path d="M1 9.19435C1 9.42687 1.18855 9.61542 1.42107 9.61542H25.4209V8.38464H1V9.19435Z" fill="#FF4B55"/>
<path d="M25.4209 13.308H1V14.5388H25.4209V13.308Z" fill="#FF4B55"/>
<path d="M25.3198 15.7692H1.1001C1.34798 16.4855 2.02795 17 2.82845 17H23.5915C24.392 17 25.072 16.4855 25.3198 15.7692Z" fill="#FF4B55"/>
<path d="M25.4209 10.8464H1V12.0771H25.4209V10.8464Z" fill="#FF4B55"/>
<path d="M1.42107 9.61539H11.9473C12.1799 9.61539 12.3684 9.42684 12.3684 9.19432V1.42107C12.3684 1.1885 12.1799 1 11.9473 1H2.82895C1.81882 1.00005 1 1.81886 1 2.82899V9.19432C1 9.42689 1.18855 9.61539 1.42107 9.61539Z" fill="#41479B"/>
<path d="M2.18224 1.96654L2.27544 2.24604L2.57007 2.24828C2.60822 2.24862 2.62401 2.29727 2.59334 2.31993L2.35634 2.49493L2.44524 2.77581C2.45679 2.81216 2.41534 2.8423 2.38429 2.82008L2.14461 2.6488L1.90493 2.82013C1.87388 2.84235 1.83253 2.81221 1.84397 2.77586L1.93288 2.49497L1.69587 2.31997C1.6652 2.29727 1.68099 2.24862 1.71915 2.24833L2.01378 2.24609L2.10698 1.96659C2.119 1.93034 2.17013 1.93034 2.18224 1.96654Z" fill="#F5F5F5"/>
<path d="M2.18224 3.42857L2.27544 3.70807L2.57007 3.71032C2.60822 3.71065 2.62401 3.75925 2.59334 3.78196L2.35634 3.95701L2.44524 4.23789C2.45679 4.27424 2.41534 4.30438 2.38429 4.28216L2.14461 4.11088L1.90493 4.2822C1.87388 4.30438 1.83253 4.27429 1.84397 4.23794L1.93288 3.95705L1.69587 3.782C1.6652 3.7593 1.68099 3.7107 1.71915 3.71036L2.01378 3.70812L2.10698 3.42862C2.119 3.39241 2.17013 3.39241 2.18224 3.42857Z" fill="#F5F5F5"/>
<path d="M2.18224 4.8907L2.27544 5.17021L2.57007 5.17245C2.60822 5.17278 2.62401 5.22139 2.59334 5.24409L2.35634 5.41914L2.44524 5.70003C2.45679 5.73637 2.41534 5.76652 2.38429 5.74429L2.14461 5.57301L1.90493 5.74434C1.87388 5.76652 1.83253 5.73647 1.84397 5.70007L1.93288 5.41919L1.69587 5.24414C1.6652 5.22143 1.68099 5.17283 1.71915 5.1725L2.01378 5.17025L2.10698 4.89075C2.119 4.8545 2.17013 4.8545 2.18224 4.8907Z" fill="#F5F5F5"/>
<path d="M2.18224 6.3528L2.27544 6.6323L2.57007 6.63455C2.60822 6.63488 2.62401 6.68353 2.59334 6.70619L2.35634 6.88123L2.44524 7.16212C2.45679 7.19847 2.41534 7.22861 2.38429 7.20639L2.14461 7.03511L1.90493 7.20643C1.87388 7.22861 1.83253 7.19852 1.84397 7.16217L1.93288 6.88128L1.69587 6.70623C1.6652 6.68363 1.68099 6.63493 1.71915 6.63459L2.01378 6.63235L2.10698 6.35285C2.119 6.3166 2.17013 6.3166 2.18224 6.3528Z" fill="#F5F5F5"/>
<path d="M2.18224 7.81492L2.27544 8.09443L2.57007 8.09667C2.60822 8.097 2.62401 8.14561 2.59334 8.16831L2.35634 8.34336L2.44524 8.62425C2.45679 8.66059 2.41534 8.69074 2.38429 8.66851L2.14461 8.49723L1.90493 8.66856C1.87388 8.69074 1.83253 8.66064 1.84397 8.62429L1.93288 8.3434L1.69587 8.16836C1.6652 8.14565 1.68099 8.09705 1.71915 8.09672L2.01378 8.09447L2.10698 7.81497C2.119 7.77877 2.17013 7.77877 2.18224 7.81492Z" fill="#F5F5F5"/>
<path d="M3.31701 2.68324L3.41021 2.96275L3.70483 2.96499C3.74299 2.96532 3.75878 3.01398 3.72811 3.03663L3.4911 3.21168L3.58001 3.49257C3.59155 3.52891 3.5501 3.55906 3.51905 3.53683L3.27937 3.3655L3.0397 3.53683C3.00865 3.55901 2.96729 3.52891 2.97874 3.49257L3.06765 3.21168L2.83064 3.03663C2.79997 3.01393 2.81576 2.96532 2.85392 2.96499L3.14854 2.96275L3.24174 2.68324C3.25376 2.64709 3.30494 2.64709 3.31701 2.68324Z" fill="#F5F5F5"/>
<path d="M3.31701 4.14544L3.41021 4.42494L3.70483 4.42719C3.74299 4.42752 3.75878 4.47617 3.72811 4.49883L3.4911 4.67387L3.58001 4.95476C3.59155 4.99111 3.5501 5.02125 3.51905 4.99903L3.27937 4.8277L3.0397 4.99903C3.00865 5.02121 2.96729 4.99116 2.97874 4.95476L3.06765 4.67387L2.83064 4.49883C2.79997 4.47622 2.81576 4.42752 2.85392 4.42719L3.14854 4.42494L3.24174 4.14544C3.25376 4.10924 3.30494 4.10924 3.31701 4.14544Z" fill="#F5F5F5"/>
<path d="M3.31701 5.60757L3.41021 5.88707L3.70483 5.88931C3.74299 5.88965 3.75878 5.93825 3.72811 5.96095L3.4911 6.136L3.58001 6.41689C3.59155 6.45324 3.5501 6.48338 3.51905 6.46115L3.27937 6.28983L3.0397 6.46115C3.00865 6.48333 2.96729 6.45324 2.97874 6.41689L3.06765 6.136L2.83064 5.96095C2.79997 5.93825 2.81576 5.88965 2.85392 5.88931L3.14854 5.88707L3.24174 5.60757C3.25376 5.57136 3.30494 5.57136 3.31701 5.60757Z" fill="#F5F5F5"/>
<path d="M3.31701 7.06969L3.41021 7.34919L3.70483 7.35143C3.74299 7.35177 3.75878 7.40037 3.72811 7.42308L3.4911 7.59812L3.58001 7.87901C3.59155 7.91536 3.5501 7.9455 3.51905 7.92328L3.27937 7.75195L3.0397 7.92328C3.00865 7.9455 2.96729 7.91536 2.97874 7.87901L3.06765 7.59812L2.83064 7.42308C2.79997 7.40037 2.81576 7.35177 2.85392 7.35143L3.14854 7.34919L3.24174 7.06969C3.25376 7.03353 3.30494 7.03353 3.31701 7.06969Z" fill="#F5F5F5"/>
<path d="M4.45177 1.96648L4.54497 2.24599L4.8396 2.24823C4.87776 2.24856 4.89354 2.29721 4.86287 2.31987L4.62587 2.49487L4.71477 2.77576C4.72632 2.8121 4.68487 2.84225 4.65382 2.82002L4.41414 2.64869L4.17446 2.82002C4.14341 2.84225 4.10206 2.8121 4.1135 2.77576L4.20241 2.49487L3.96541 2.31987C3.93474 2.29717 3.95052 2.24852 3.98868 2.24823L4.28331 2.24599L4.37651 1.96648C4.38853 1.93028 4.43971 1.93028 4.45177 1.96648Z" fill="#F5F5F5"/>
<path d="M4.45177 3.42857L4.54497 3.70808L4.8396 3.71032C4.87776 3.71066 4.89354 3.75926 4.86287 3.78196L4.62587 3.95701L4.71477 4.2379C4.72632 4.27424 4.68487 4.30439 4.65382 4.28216L4.41414 4.11083L4.17446 4.28216C4.14341 4.30434 4.10206 4.27424 4.1135 4.2379L4.20241 3.95701L3.96541 3.78196C3.93474 3.75926 3.95052 3.71066 3.98868 3.71032L4.28331 3.70808L4.37651 3.42857C4.38853 3.39242 4.43971 3.39242 4.45177 3.42857Z" fill="#F5F5F5"/>
<path d="M4.45177 4.89071L4.54497 5.17021L4.8396 5.17246C4.87776 5.17279 4.89354 5.22139 4.86287 5.2441L4.62587 5.41914L4.71477 5.70003C4.72632 5.73638 4.68487 5.76652 4.65382 5.7443L4.41414 5.57297L4.17446 5.7443C4.14341 5.76647 4.10206 5.73643 4.1135 5.70003L4.20241 5.41914L3.96541 5.2441C3.93474 5.22139 3.95052 5.17279 3.98868 5.17246L4.28331 5.17021L4.37651 4.89071C4.38853 4.85451 4.43971 4.85451 4.45177 4.89071Z" fill="#F5F5F5"/>
<path d="M4.45177 6.3528L4.54497 6.63231L4.8396 6.63455C4.87776 6.63489 4.89354 6.68354 4.86287 6.70619L4.62587 6.88124L4.71477 7.16213C4.72632 7.19847 4.68487 7.22862 4.65382 7.20639L4.41414 7.03506L4.17446 7.20639C4.14341 7.22857 4.10206 7.19847 4.1135 7.16213L4.20241 6.88124L3.96541 6.70619C3.93474 6.68358 3.95052 6.63489 3.98868 6.63455L4.28331 6.63231L4.37651 6.3528C4.38853 6.3166 4.43971 6.3166 4.45177 6.3528Z" fill="#F5F5F5"/>
<path d="M4.45177 7.81493L4.54497 8.09443L4.8396 8.09667C4.87776 8.09701 4.89354 8.14561 4.86287 8.16831L4.62587 8.34336L4.71477 8.62425C4.72632 8.6606 4.68487 8.69074 4.65382 8.66851L4.41414 8.49719L4.17446 8.66851C4.14341 8.69069 4.10206 8.6606 4.1135 8.62425L4.20241 8.34336L3.96541 8.16831C3.93474 8.14561 3.95052 8.09701 3.98868 8.09667L4.28331 8.09443L4.37651 7.81493C4.38853 7.77877 4.43971 7.77877 4.45177 7.81493Z" fill="#F5F5F5"/>
<path d="M5.58751 2.68324L5.68072 2.96275L5.97534 2.96499C6.0135 2.96532 6.02929 3.01398 5.99862 3.03663L5.76161 3.21168L5.85052 3.49257C5.86206 3.52891 5.82061 3.55906 5.78956 3.53683L5.54988 3.3655L5.3102 3.53683C5.27915 3.55901 5.2378 3.52891 5.24925 3.49257L5.33815 3.21168L5.10115 3.03663C5.07048 3.01393 5.08627 2.96532 5.12442 2.96499L5.41905 2.96275L5.51225 2.68324C5.52422 2.64709 5.57545 2.64709 5.58751 2.68324Z" fill="#F5F5F5"/>
<path d="M5.58751 4.14544L5.68072 4.42494L5.97534 4.42719C6.0135 4.42752 6.02929 4.47617 5.99862 4.49883L5.76161 4.67387L5.85052 4.95476C5.86206 4.99111 5.82061 5.02125 5.78956 4.99903L5.54988 4.8277L5.3102 4.99903C5.27915 5.02121 5.2378 4.99116 5.24925 4.95476L5.33815 4.67387L5.10115 4.49883C5.07048 4.47622 5.08627 4.42752 5.12442 4.42719L5.41905 4.42494L5.51225 4.14544C5.52422 4.10924 5.57545 4.10924 5.58751 4.14544Z" fill="#F5F5F5"/>
<path d="M5.58751 5.60757L5.68072 5.88707L5.97534 5.88931C6.0135 5.88965 6.02929 5.93825 5.99862 5.96095L5.76161 6.136L5.85052 6.41689C5.86206 6.45324 5.82061 6.48338 5.78956 6.46115L5.54988 6.28983L5.3102 6.46115C5.27915 6.48333 5.2378 6.45324 5.24925 6.41689L5.33815 6.136L5.10115 5.96095C5.07048 5.93825 5.08627 5.88965 5.12442 5.88931L5.41905 5.88707L5.51225 5.60757C5.52422 5.57136 5.57545 5.57136 5.58751 5.60757Z" fill="#F5F5F5"/>
<path d="M5.58751 7.06969L5.68072 7.34919L5.97534 7.35143C6.0135 7.35177 6.02929 7.40037 5.99862 7.42308L5.76161 7.59812L5.85052 7.87901C5.86206 7.91536 5.82061 7.9455 5.78956 7.92328L5.54988 7.75195L5.3102 7.92328C5.27915 7.9455 5.2378 7.91536 5.24925 7.87901L5.33815 7.59812L5.10115 7.42308C5.07048 7.40037 5.08627 7.35177 5.12442 7.35143L5.41905 7.34919L5.51225 7.06969C5.52422 7.03353 5.57545 7.03353 5.58751 7.06969Z" fill="#F5F5F5"/>
<path d="M6.72135 1.96648L6.81455 2.24598L7.10918 2.24822C7.14733 2.24856 7.16312 2.29721 7.13245 2.31986L6.89545 2.49487L6.98435 2.77575C6.9959 2.8121 6.95445 2.84224 6.9234 2.82002L6.68367 2.64874L6.44399 2.82006C6.41294 2.84229 6.37159 2.81215 6.38304 2.7758L6.47194 2.49491L6.23494 2.31991C6.20427 2.29721 6.22005 2.24856 6.25821 2.24827L6.55284 2.24603L6.64604 1.96652C6.65811 1.93027 6.70928 1.93027 6.72135 1.96648Z" fill="#F5F5F5"/>
<path d="M6.72135 3.42857L6.81455 3.70808L7.10918 3.71032C7.14733 3.71066 7.16312 3.75926 7.13245 3.78196L6.89545 3.95701L6.98435 4.2379C6.9959 4.27424 6.95445 4.30439 6.9234 4.28216L6.68367 4.11083L6.44399 4.28216C6.41294 4.30434 6.37159 4.27424 6.38304 4.2379L6.47194 3.95701L6.23494 3.78196C6.20427 3.75926 6.22005 3.71066 6.25821 3.71032L6.55284 3.70808L6.64604 3.42857C6.65811 3.39242 6.70928 3.39242 6.72135 3.42857Z" fill="#F5F5F5"/>
<path d="M6.72135 4.89071L6.81455 5.17022L7.10918 5.17246C7.14733 5.17279 7.16312 5.2214 7.13245 5.2441L6.89545 5.41915L6.98435 5.70004C6.9959 5.73638 6.95445 5.76653 6.9234 5.7443L6.68367 5.57293L6.44399 5.74425C6.41294 5.76643 6.37159 5.73634 6.38304 5.69999L6.47194 5.4191L6.23494 5.24405C6.20427 5.22135 6.22005 5.17275 6.25821 5.17241L6.55284 5.17017L6.64604 4.89067C6.65811 4.85451 6.70928 4.85451 6.72135 4.89071Z" fill="#F5F5F5"/>
<path d="M6.72135 6.3528L6.81455 6.63231L7.10918 6.63455C7.14733 6.63489 7.16312 6.68354 7.13245 6.70619L6.89545 6.88124L6.98435 7.16213C6.9959 7.19847 6.95445 7.22862 6.9234 7.20639L6.68367 7.03506L6.44399 7.20639C6.41294 7.22857 6.37159 7.19847 6.38304 7.16213L6.47194 6.88124L6.23494 6.70619C6.20427 6.68358 6.22005 6.63489 6.25821 6.63455L6.55284 6.63231L6.64604 6.3528C6.65811 6.3166 6.70928 6.3166 6.72135 6.3528Z" fill="#F5F5F5"/>
<path d="M6.72135 7.81493L6.81455 8.09443L7.10918 8.09667C7.14733 8.09701 7.16312 8.14561 7.13245 8.16831L6.89545 8.34336L6.98435 8.62425C6.9959 8.6606 6.95445 8.69074 6.9234 8.66851L6.68367 8.49719L6.44399 8.66851C6.41294 8.69069 6.37159 8.6606 6.38304 8.62425L6.47194 8.34336L6.23494 8.16831C6.20427 8.14561 6.22005 8.09701 6.25821 8.09667L6.55284 8.09443L6.64604 7.81493C6.65811 7.77877 6.70928 7.77877 6.72135 7.81493Z" fill="#F5F5F5"/>
<path d="M7.85607 2.68324L7.94927 2.96275L8.24389 2.96499C8.28205 2.96532 8.29784 3.01398 8.26717 3.03663L8.03016 3.21168L8.11907 3.49257C8.13061 3.52891 8.08917 3.55906 8.05811 3.53683L7.81844 3.3655L7.57876 3.53683C7.54771 3.55901 7.50635 3.52891 7.5178 3.49257L7.60671 3.21168L7.3697 3.03663C7.33903 3.01393 7.35482 2.96532 7.39298 2.96499L7.6876 2.96275L7.7808 2.68324C7.79287 2.64709 7.844 2.64709 7.85607 2.68324Z" fill="#F5F5F5"/>
<path d="M7.85607 4.14544L7.94927 4.42494L8.24389 4.42719C8.28205 4.42752 8.29784 4.47617 8.26717 4.49883L8.03016 4.67387L8.11907 4.95476C8.13061 4.99111 8.08917 5.02125 8.05811 4.99903L7.81844 4.8277L7.57876 4.99903C7.54771 5.02121 7.50635 4.99116 7.5178 4.95476L7.60671 4.67387L7.3697 4.49883C7.33903 4.47622 7.35482 4.42752 7.39298 4.42719L7.6876 4.42494L7.7808 4.14544C7.79287 4.10924 7.844 4.10924 7.85607 4.14544Z" fill="#F5F5F5"/>
<path d="M7.85607 5.60757L7.94927 5.88707L8.24389 5.88931C8.28205 5.88965 8.29784 5.93825 8.26717 5.96095L8.03016 6.136L8.11907 6.41689C8.13061 6.45324 8.08917 6.48338 8.05811 6.46115L7.81844 6.28983L7.57876 6.46115C7.54771 6.48333 7.50635 6.45324 7.5178 6.41689L7.60671 6.136L7.3697 5.96095C7.33903 5.93825 7.35482 5.88965 7.39298 5.88931L7.6876 5.88707L7.7808 5.60757C7.79287 5.57136 7.844 5.57136 7.85607 5.60757Z" fill="#F5F5F5"/>
<path d="M7.85607 7.06969L7.94927 7.34919L8.24389 7.35143C8.28205 7.35177 8.29784 7.40037 8.26717 7.42308L8.03016 7.59812L8.11907 7.87901C8.13061 7.91536 8.08917 7.9455 8.05811 7.92328L7.81844 7.75195L7.57876 7.92328C7.54771 7.9455 7.50635 7.91536 7.5178 7.87901L7.60671 7.59812L7.3697 7.42308C7.33903 7.40037 7.35482 7.35177 7.39298 7.35143L7.6876 7.34919L7.7808 7.06969C7.79287 7.03353 7.844 7.03353 7.85607 7.06969Z" fill="#F5F5F5"/>
<path d="M8.99181 1.96648L9.08501 2.24599L9.37964 2.24823C9.41779 2.24856 9.43358 2.29721 9.40291 2.31987L9.16591 2.49487L9.25481 2.77576C9.26636 2.8121 9.22491 2.84225 9.19386 2.82002L8.95418 2.64869L8.7145 2.82002C8.68345 2.84225 8.6421 2.8121 8.65354 2.77576L8.74245 2.49487L8.50544 2.31987C8.47478 2.29717 8.49056 2.24852 8.52872 2.24823L8.82335 2.24599L8.91655 1.96648C8.92852 1.93028 8.97974 1.93028 8.99181 1.96648Z" fill="#F5F5F5"/>
<path d="M8.99181 3.42857L9.08501 3.70808L9.37964 3.71032C9.41779 3.71066 9.43358 3.75926 9.40291 3.78196L9.16591 3.95701L9.25481 4.2379C9.26636 4.27424 9.22491 4.30439 9.19386 4.28216L8.95418 4.11083L8.7145 4.28216C8.68345 4.30434 8.6421 4.27424 8.65354 4.2379L8.74245 3.95701L8.50544 3.78196C8.47478 3.75926 8.49056 3.71066 8.52872 3.71032L8.82335 3.70808L8.91655 3.42857C8.92852 3.39242 8.97974 3.39242 8.99181 3.42857Z" fill="#F5F5F5"/>
<path d="M8.99181 4.89071L9.08501 5.17021L9.37964 5.17246C9.41779 5.17279 9.43358 5.22139 9.40291 5.2441L9.16591 5.41914L9.25481 5.70003C9.26636 5.73638 9.22491 5.76652 9.19386 5.7443L8.95418 5.57297L8.7145 5.7443C8.68345 5.76647 8.6421 5.73643 8.65354 5.70003L8.74245 5.41914L8.50544 5.2441C8.47478 5.22139 8.49056 5.17279 8.52872 5.17246L8.82335 5.17021L8.91655 4.89071C8.92852 4.85451 8.97974 4.85451 8.99181 4.89071Z" fill="#F5F5F5"/>
<path d="M8.99181 6.3528L9.08501 6.63231L9.37964 6.63455C9.41779 6.63489 9.43358 6.68354 9.40291 6.70619L9.16591 6.88124L9.25481 7.16213C9.26636 7.19847 9.22491 7.22862 9.19386 7.20639L8.95418 7.03506L8.7145 7.20639C8.68345 7.22857 8.6421 7.19847 8.65354 7.16213L8.74245 6.88124L8.50544 6.70619C8.47478 6.68358 8.49056 6.63489 8.52872 6.63455L8.82335 6.63231L8.91655 6.3528C8.92852 6.3166 8.97974 6.3166 8.99181 6.3528Z" fill="#F5F5F5"/>
<path d="M8.99181 7.81493L9.08501 8.09443L9.37964 8.09667C9.41779 8.09701 9.43358 8.14561 9.40291 8.16831L9.16591 8.34336L9.25481 8.62425C9.26636 8.6606 9.22491 8.69074 9.19386 8.66851L8.95418 8.49719L8.7145 8.66851C8.68345 8.69069 8.6421 8.6606 8.65354 8.62425L8.74245 8.34336L8.50544 8.16831C8.47478 8.14561 8.49056 8.09701 8.52872 8.09667L8.82335 8.09443L8.91655 7.81493C8.92852 7.77877 8.97974 7.77877 8.99181 7.81493Z" fill="#F5F5F5"/>
<path d="M10.1266 2.68324L10.2198 2.96275L10.5144 2.96499C10.5526 2.96532 10.5683 3.01398 10.5377 3.03663L10.3007 3.21168L10.3896 3.49257C10.4011 3.52891 10.3597 3.55906 10.3286 3.53683L10.0889 3.3655L9.84927 3.53683C9.81822 3.55901 9.77686 3.52891 9.78831 3.49257L9.87722 3.21168L9.64021 3.03663C9.60954 3.01393 9.62533 2.96532 9.66349 2.96499L9.95811 2.96275L10.0513 2.68324C10.0633 2.64709 10.1145 2.64709 10.1266 2.68324Z" fill="#F5F5F5"/>
<path d="M10.1266 4.14544L10.2198 4.42494L10.5144 4.42719C10.5526 4.42752 10.5683 4.47617 10.5377 4.49883L10.3007 4.67387L10.3896 4.95476C10.4011 4.99111 10.3597 5.02125 10.3286 4.99903L10.0889 4.8277L9.84927 4.99903C9.81822 5.02121 9.77686 4.99116 9.78831 4.95476L9.87722 4.67387L9.64021 4.49883C9.60954 4.47622 9.62533 4.42752 9.66349 4.42719L9.95811 4.42494L10.0513 4.14544C10.0633 4.10924 10.1145 4.10924 10.1266 4.14544Z" fill="#F5F5F5"/>
<path d="M10.1266 5.60757L10.2198 5.88707L10.5144 5.88931C10.5526 5.88965 10.5683 5.93825 10.5377 5.96095L10.3007 6.136L10.3896 6.41689C10.4011 6.45324 10.3597 6.48338 10.3286 6.46115L10.0889 6.28983L9.84927 6.46115C9.81822 6.48333 9.77686 6.45324 9.78831 6.41689L9.87722 6.136L9.64021 5.96095C9.60954 5.93825 9.62533 5.88965 9.66349 5.88931L9.95811 5.88707L10.0513 5.60757C10.0633 5.57136 10.1145 5.57136 10.1266 5.60757Z" fill="#F5F5F5"/>
<path d="M10.1266 7.06969L10.2198 7.34919L10.5144 7.35143C10.5526 7.35177 10.5683 7.40037 10.5377 7.42308L10.3007 7.59812L10.3896 7.87901C10.4011 7.91536 10.3597 7.9455 10.3286 7.92328L10.0889 7.75195L9.84927 7.92328C9.81822 7.9455 9.77686 7.91536 9.78831 7.87901L9.87722 7.59812L9.64021 7.42308C9.60954 7.40037 9.62533 7.35177 9.66349 7.35143L9.95811 7.34919L10.0513 7.06969C10.0633 7.03353 10.1145 7.03353 10.1266 7.06969Z" fill="#F5F5F5"/>
<path d="M11.2613 1.96648L11.3545 2.24599L11.6492 2.24823C11.6873 2.24856 11.7031 2.29721 11.6724 2.31987L11.4354 2.49487L11.5243 2.77576C11.5359 2.8121 11.4944 2.84225 11.4634 2.82002L11.2237 2.64869L10.984 2.82002C10.953 2.84225 10.9116 2.8121 10.9231 2.77576L11.012 2.49487L10.775 2.31987C10.7443 2.29717 10.7601 2.24852 10.7983 2.24823L11.0929 2.24599L11.1861 1.96648C11.1981 1.93028 11.2492 1.93028 11.2613 1.96648Z" fill="#F5F5F5"/>
<path d="M11.2613 3.42857L11.3545 3.70808L11.6492 3.71032C11.6873 3.71066 11.7031 3.75926 11.6724 3.78196L11.4354 3.95701L11.5243 4.2379C11.5359 4.27424 11.4944 4.30439 11.4634 4.28216L11.2237 4.11083L10.984 4.28216C10.953 4.30434 10.9116 4.27424 10.9231 4.2379L11.012 3.95701L10.775 3.78196C10.7443 3.75926 10.7601 3.71066 10.7983 3.71032L11.0929 3.70808L11.1861 3.42857C11.1981 3.39242 11.2492 3.39242 11.2613 3.42857Z" fill="#F5F5F5"/>
<path d="M11.2613 4.89071L11.3545 5.17021L11.6492 5.17246C11.6873 5.17279 11.7031 5.22139 11.6724 5.2441L11.4354 5.41914L11.5243 5.70003C11.5359 5.73638 11.4944 5.76652 11.4634 5.7443L11.2237 5.57297L10.984 5.7443C10.953 5.76647 10.9116 5.73643 10.9231 5.70003L11.012 5.41914L10.775 5.2441C10.7443 5.22139 10.7601 5.17279 10.7983 5.17246L11.0929 5.17021L11.1861 4.89071C11.1981 4.85451 11.2492 4.85451 11.2613 4.89071Z" fill="#F5F5F5"/>
<path d="M11.2613 6.3528L11.3545 6.63231L11.6492 6.63455C11.6873 6.63489 11.7031 6.68354 11.6724 6.70619L11.4354 6.88124L11.5243 7.16213C11.5359 7.19847 11.4944 7.22862 11.4634 7.20639L11.2237 7.03506L10.984 7.20639C10.953 7.22857 10.9116 7.19847 10.9231 7.16213L11.012 6.88124L10.775 6.70619C10.7443 6.68358 10.7601 6.63489 10.7983 6.63455L11.0929 6.63231L11.1861 6.3528C11.1981 6.3166 11.2492 6.3166 11.2613 6.3528Z" fill="#F5F5F5"/>
<path d="M11.2613 7.81493L11.3545 8.09443L11.6492 8.09667C11.6873 8.09701 11.7031 8.14561 11.6724 8.16831L11.4354 8.34336L11.5243 8.62425C11.5359 8.6606 11.4944 8.69074 11.4634 8.66851L11.2237 8.49719L10.984 8.66851C10.953 8.69069 10.9116 8.6606 10.9231 8.62425L11.012 8.34336L10.775 8.16831C10.7443 8.14561 10.7601 8.09701 10.7983 8.09667L11.0929 8.09443L11.1861 7.81493C11.1981 7.77877 11.2492 7.77877 11.2613 7.81493Z" fill="#F5F5F5"/>
</svg>
