<svg width="26" height="18" viewBox="16 16 26 18" fill="none" xmlns="http://www.w3.org/2000/svg">
<g filter="url(#filter0_d)">
<path d="M39.592 16.4H18.8289C17.4874 16.4 16.4 17.4874 16.4 18.8289V31.1711C16.4 32.5125 17.4874 33.6 18.8289 33.6H39.592C40.9334 33.6 42.0209 32.5126 42.0209 31.1711V18.8289C42.0209 17.4874 40.9335 16.4 39.592 16.4Z" fill="#F5F5F5" stroke="#ED1C70" stroke-width="1.2"/>
<path d="M31.5474 21.4957C29.6127 20.2059 26.9995 20.7332 25.7105 22.6646C25.064 23.6286 25.3268 24.9385 26.2941 25.5834C27.2607 26.2283 28.5664 25.9664 29.2113 24.999C29.8562 24.0317 31.1628 23.773 32.1293 24.4145C33.0975 25.0595 33.3578 26.3694 32.712 27.3334C34.0019 25.3988 33.4805 22.7856 31.5474 21.4957Z" fill="#FF4B55"/>
<path d="M25.7114 22.6646C25.0649 23.6286 25.3277 24.9386 26.295 25.5835C27.2616 26.2284 28.5673 25.9665 29.2122 24.9991C29.8571 24.0317 31.1637 23.7731 32.1302 24.4146C33.0984 25.0595 33.3587 26.3694 32.7129 27.3334C31.4248 29.2715 28.8125 29.7922 26.8778 28.5023C24.9448 27.2127 24.4216 24.5994 25.7114 22.6646Z" fill="#41479B"/>
<path d="M33.6901 19.9054L34.4549 21.055C34.5192 21.1516 34.4932 21.282 34.3968 21.3466L34.2028 21.4764C34.1061 21.5412 33.9751 21.5152 33.9105 21.4183L33.1447 20.2689C33.0803 20.1723 33.1064 20.0416 33.2031 19.9771L33.3979 19.847C33.4948 19.7823 33.6256 19.8086 33.6901 19.9054Z" fill="#464655"/>
<path d="M34.8705 21.6779L35.6378 22.8268C35.7026 22.9238 35.6762 23.0551 35.5788 23.1194L35.384 23.2481C35.2874 23.312 35.1573 23.2857 35.0929 23.1894L34.326 22.0417C34.2615 21.9451 34.2874 21.8144 34.3841 21.7497L34.5784 21.6198C34.6751 21.5552 34.8059 21.5812 34.8705 21.6779Z" fill="#464655"/>
<path d="M34.5093 19.3589L36.4568 22.2815C36.5212 22.3782 36.4951 22.5089 36.3983 22.5734L36.2027 22.7038C36.1059 22.7683 35.9752 22.7421 35.9107 22.6454L33.9626 19.723C33.8981 19.6263 33.9243 19.4955 34.0211 19.431L34.2174 19.3003C34.3142 19.2361 34.4448 19.2622 34.5093 19.3589Z" fill="#464655"/>
<path d="M35.3259 18.8133L36.0924 19.9651C36.157 20.0621 36.1305 20.1931 36.0332 20.2573L35.8383 20.3861C35.7416 20.45 35.6114 20.4238 35.5471 20.3273L34.78 19.177C34.7155 19.0802 34.7417 18.9495 34.8384 18.885L35.0339 18.7547C35.1306 18.6902 35.2614 18.7163 35.3259 18.8133Z" fill="#464655"/>
<path d="M36.5069 20.5895L37.2722 21.7389C37.3366 21.8356 37.3105 21.9661 37.214 22.0306L37.0196 22.1605C36.9228 22.2252 36.7919 22.1991 36.7274 22.1022L35.9621 20.9527C35.8977 20.8561 35.9238 20.7256 36.0203 20.6611L36.2146 20.5311C36.3114 20.4664 36.4423 20.4925 36.5069 20.5895Z" fill="#464655"/>
<path d="M23.3312 26.8116L25.2784 29.731C25.3429 29.8277 25.3169 29.9584 25.2201 30.0229L25.0252 30.1532C24.9284 30.2177 24.7977 30.1916 24.7331 30.0949L22.7859 27.1755C22.7214 27.0788 22.7475 26.9481 22.8442 26.8836L23.0392 26.7534C23.1359 26.6888 23.2667 26.7149 23.3312 26.8116Z" fill="#464655"/>
<path d="M22.5132 27.3577L23.2777 28.5044C23.3421 28.601 23.3161 28.7314 23.2196 28.7961L23.0257 28.9259C22.929 28.9906 22.7981 28.9646 22.7335 28.8679L21.9681 27.7215C21.9035 27.6248 21.9296 27.494 22.0263 27.4295L22.2212 27.2993C22.3179 27.2348 22.4486 27.2609 22.5132 27.3577Z" fill="#464655"/>
<path d="M23.6946 29.1308L24.4599 30.2804C24.5243 30.377 24.4982 30.5076 24.4017 30.5721L24.2071 30.7021C24.1104 30.7668 23.9795 30.7407 23.915 30.6438L23.1491 29.4945C23.0847 29.3978 23.1108 29.2672 23.2074 29.2027L23.4024 29.0725C23.4992 29.0077 23.6301 29.0339 23.6946 29.1308Z" fill="#464655"/>
<path d="M21.6955 27.9036L23.6415 30.8231C23.7059 30.9197 23.6798 31.0503 23.5834 31.1149L23.3889 31.2449C23.2922 31.3096 23.1613 31.2835 23.0967 31.1868L21.1497 28.2676C21.0851 28.1709 21.1113 28.0401 21.208 27.9756L21.4037 27.8452C21.5003 27.7807 21.6311 27.8068 21.6955 27.9036Z" fill="#464655"/>
<path d="M22.7858 22.827L24.7327 19.9052C24.7973 19.8084 24.928 19.7823 25.0248 19.8468L25.2198 19.977C25.3164 20.0415 25.3425 20.1722 25.278 20.2689L23.3304 23.1891C23.266 23.2856 23.1357 23.3118 23.039 23.2478L22.8449 23.1192C22.7477 23.055 22.7212 22.9239 22.7858 22.827Z" fill="#464655"/>
<path d="M21.968 22.2817L23.9152 19.3593C23.9797 19.2625 24.1106 19.2364 24.2074 19.301L24.4019 19.4311C24.4984 19.4956 24.5244 19.6262 24.4601 19.7228L22.5133 22.6453C22.4488 22.7421 22.318 22.7683 22.2212 22.7037L22.0263 22.5735C21.9296 22.509 21.9035 22.3784 21.968 22.2817Z" fill="#464655"/>
<path d="M21.149 21.7388L23.0965 18.8135C23.161 18.7166 23.2919 18.6905 23.3887 18.7551L23.5832 18.8852C23.6797 18.9497 23.7057 19.0801 23.6414 19.1768L21.6952 22.1025C21.6308 22.1993 21.4999 22.2256 21.4032 22.161L21.2076 22.0306C21.1108 21.9661 21.0847 21.8355 21.149 21.7388Z" fill="#464655"/>
<path d="M33.1449 29.731L33.9103 28.5846C33.9749 28.4878 34.1058 28.4618 34.2024 28.5266L34.3964 28.6564C34.4929 28.721 34.5188 28.8515 34.4544 28.9481L33.6899 30.0947C33.6254 30.1915 33.4946 30.2177 33.3978 30.1531L33.203 30.023C33.1063 29.9584 33.0803 29.8277 33.1449 29.731Z" fill="#464655"/>
<path d="M34.3258 27.964L35.0924 26.8119C35.1569 26.7151 35.2877 26.6888 35.3845 26.7534L35.5798 26.8836C35.6766 26.9481 35.7028 27.0789 35.6382 27.1757L34.8699 28.3259C34.8055 28.4224 34.6752 28.4486 34.5785 28.3845L34.3848 28.2561C34.2877 28.1917 34.2613 28.0608 34.3258 27.964Z" fill="#464655"/>
<path d="M33.9626 30.28L34.7285 29.1306C34.793 29.0338 34.9237 29.0076 35.0205 29.0721L35.2162 29.2027C35.3129 29.2672 35.339 29.3978 35.2746 29.4945L34.5092 30.644C34.4448 30.7408 34.3142 30.7671 34.2173 30.7026L34.0211 30.572C33.9243 30.5075 33.8981 30.3767 33.9626 30.28Z" fill="#464655"/>
<path d="M35.1449 28.504L35.9112 27.3573C35.9758 27.2607 36.1064 27.2346 36.2031 27.2991L36.3987 27.4295C36.4955 27.494 36.5216 27.6249 36.457 27.7216L35.6907 28.8684C35.6261 28.965 35.4955 28.991 35.3988 28.9266L35.2031 28.7962C35.1063 28.7316 35.0802 28.6008 35.1449 28.504Z" fill="#464655"/>
<path d="M34.7802 30.8229L35.5469 29.6755C35.6113 29.5792 35.7414 29.553 35.838 29.6168L36.0329 29.7456C36.1302 29.8099 36.1566 29.941 36.092 30.0381L35.3258 31.187C35.2613 31.2837 35.1306 31.3098 35.0339 31.2454L34.8384 31.1151C34.7416 31.0505 34.7155 30.9196 34.7802 30.8229Z" fill="#464655"/>
<path d="M35.9621 29.0528L36.7269 27.904C36.7914 27.8071 36.9224 27.781 37.0191 27.8457L37.2134 27.9755C37.31 28.0401 37.336 28.1707 37.2715 28.2674L36.506 29.4146C36.4416 29.5112 36.3112 29.5374 36.2145 29.4733L36.0209 29.3449C35.9239 29.2806 35.8975 29.1497 35.9621 29.0528Z" fill="#464655"/>
</g>
<defs>
<filter id="filter0_d" x="0.799805" y="0.799988" width="56.8209" height="48.4" filterUnits="userSpaceOnUse" color-interpolation-filters="sRGB">
<feFlood flood-opacity="0" result="BackgroundImageFix"/>
<feColorMatrix in="SourceAlpha" type="matrix" values="0 0 0 0 0 0 0 0 0 0 0 0 0 0 0 0 0 0 127 0"/>
<feOffset/>
<feGaussianBlur stdDeviation="7.5"/>
<feColorMatrix type="matrix" values="0 0 0 0 0.929412 0 0 0 0 0.109804 0 0 0 0 0.439216 0 0 0 0.1 0"/>
<feBlend mode="normal" in2="BackgroundImageFix" result="effect1_dropShadow"/>
<feBlend mode="normal" in="SourceGraphic" in2="effect1_dropShadow" result="shape"/>
</filter>
</defs>
</svg>
