<svg width="128" height="128" viewBox="30 15 98 98" fill="none" xmlns="http://www.w3.org/2000/svg">
<g filter="url(#filter0_d)">
<path d="M72.0823 53.1086H35.5219C32.5861 53.1086 30.2061 50.7175 30.2061 47.7679C30.2061 44.8183 32.5861 42.4272 35.5219 42.4272H72.0824C75.0183 42.4272 77.3981 44.8183 77.3981 47.7679C77.3981 50.7175 75.0181 53.1086 72.0823 53.1086Z" fill="#904F40"/>
<path d="M53.8026 72.5393C45.3026 72.5393 38.4121 65.6165 38.4121 57.0768V35.586C38.4121 27.0463 45.3026 20.1235 53.8026 20.1235C62.3025 20.1235 69.193 27.0463 69.193 35.586V57.0766C69.193 65.6165 62.3025 72.5393 53.8026 72.5393Z" fill="#B46E59"/>
<path d="M57.7529 72.0265C56.4923 72.363 55.1709 72.5405 53.8037 72.5405C45.3024 72.5405 38.4121 65.6177 38.4121 57.0769V35.5879C38.4121 27.0471 45.3026 20.1243 53.8037 20.1243C55.1707 20.1243 56.4923 20.3018 57.7529 20.6383C51.1639 22.3912 46.3105 28.4205 46.3105 35.5879V57.0769C46.3105 64.2442 51.1639 70.2736 57.7529 72.0265Z" fill="#A55E4D"/>
<path d="M53.8021 59.1622C51.2469 59.1622 48.8445 58.1624 47.0378 56.3472C46.4653 55.772 46.4653 54.8392 47.0378 54.264C47.6107 53.6888 48.539 53.6888 49.1115 54.264C50.3645 55.5228 52.0303 56.2161 53.8023 56.2161C55.5743 56.2161 57.2403 55.5228 58.4933 54.264C59.066 53.6886 59.9943 53.6888 60.567 54.264C61.1395 54.8392 61.1395 55.772 60.567 56.3472C58.7599 58.1624 56.3575 59.1622 53.8021 59.1622Z" fill="#ED1C70"/>
<path d="M49.7855 48.9385C48.9755 48.9385 48.3193 48.279 48.3193 47.4655V44.3421C48.3193 43.5285 48.9757 42.8691 49.7855 42.8691C50.5954 42.8691 51.2516 43.5285 51.2516 44.3421V47.4655C51.2516 48.279 50.5954 48.9385 49.7855 48.9385Z" fill="#281B49"/>
<path d="M57.8177 48.9385C57.0078 48.9385 56.3516 48.279 56.3516 47.4655V44.3421C56.3516 43.5285 57.008 42.8691 57.8177 42.8691C58.6276 42.8691 59.2838 43.5285 59.2838 44.3421V47.4655C59.284 48.279 58.6276 48.9385 57.8177 48.9385Z" fill="#281B49"/>
<path d="M74.8477 37.7085C74.8477 41.0201 72.3838 43.7556 69.1933 44.1592V40.3233L66.7749 40.7019C65.9675 40.8289 65.164 40.8892 64.367 40.8892C57.9277 40.8892 52.0352 36.8681 49.7555 30.638C49.7555 34.917 46.302 38.3867 42.0429 38.3867H38.4112V44.1592C36.9495 43.9741 35.6409 43.3001 34.6513 42.3057C33.4814 41.1303 32.7568 39.5037 32.7568 37.7085C32.7568 34.2409 35.4589 31.4077 38.8627 31.2162C38.2437 30.6254 37.7383 29.9099 37.3884 29.1111C37.0406 28.3122 36.8459 27.4303 36.8459 26.5026C36.8459 22.9101 39.7424 20 43.3182 20H64.286C66.0749 20 67.6919 20.7281 68.8638 21.9033C70.0337 23.0807 70.7583 24.7053 70.7583 26.5026C70.7583 28.358 69.9817 30.0327 68.7416 31.2162C70.4436 31.312 71.9695 32.069 73.0711 33.2341C74.1727 34.399 74.8477 35.9757 74.8477 37.7085Z" fill="#433A5B"/>
<path d="M44.5587 26.5026C44.5587 27.4303 44.7533 28.3122 45.1012 29.1111C45.4511 29.9099 45.9563 30.6254 46.5755 31.2162C43.1717 31.4077 40.4696 34.2407 40.4696 37.7085C40.4696 37.9373 40.4819 38.164 40.5047 38.3867H38.4112V44.1592C36.9495 43.9741 35.6409 43.3001 34.6513 42.3057C33.4814 41.1303 32.7568 39.5037 32.7568 37.7085C32.7568 34.2409 35.4589 31.4077 38.8627 31.2162C38.2437 30.6254 37.7383 29.9099 37.3884 29.1111C37.0406 28.3122 36.8459 27.4303 36.8459 26.5026C36.8459 22.9101 39.7424 20 43.3182 20H51.0307C47.4552 20 44.5587 22.9101 44.5587 26.5026Z" fill="#281B49"/>
<path d="M122.05 63.6825H85.4897C82.5539 63.6825 80.1738 61.2914 80.1738 58.3418C80.1738 55.3922 82.5539 53.0011 85.4897 53.0011H122.05C124.986 53.0011 127.366 55.3922 127.366 58.3418C127.366 61.2914 124.986 63.6825 122.05 63.6825Z" fill="#FFC4AD"/>
<path d="M103.769 80.8299C95.2694 80.8299 88.3789 73.9072 88.3789 65.3675V50.7188C88.3789 42.1791 95.2694 35.2563 103.769 35.2563C112.269 35.2563 119.16 42.1791 119.16 50.7188V65.3675C119.16 73.9072 112.269 80.8299 103.769 80.8299Z" fill="#FFE0CC"/>
<path d="M107.72 80.3171C106.459 80.6536 105.138 80.8311 103.77 80.8311C95.2692 80.8311 88.3789 73.9083 88.3789 65.3675V50.7207C88.3789 42.1799 95.2694 35.2571 103.77 35.2571C105.138 35.2571 106.459 35.4346 107.72 35.7711C101.131 37.5239 96.2773 43.5533 96.2773 50.7207V65.3675C96.2771 72.5349 101.131 78.5643 107.72 80.3171Z" fill="#FFCEB3"/>
<path d="M103.769 67.4531C101.214 67.4531 98.8113 66.4533 97.0046 64.6379C96.4321 64.0627 96.4321 63.1299 97.0046 62.5547C97.5773 61.9795 98.5056 61.9795 99.0783 62.5547C100.331 63.8135 101.997 64.5067 103.769 64.5067C105.541 64.5067 107.207 63.8135 108.46 62.5547C109.033 61.9795 109.961 61.9795 110.534 62.5547C111.106 63.1299 111.106 64.0627 110.534 64.6379C108.727 66.4533 106.324 67.4531 103.769 67.4531Z" fill="#ED1C70"/>
<path d="M99.7542 57.2294C98.9443 57.2294 98.2881 56.5699 98.2881 55.7564V52.6328C98.2881 51.8193 98.9445 51.1598 99.7542 51.1598C100.564 51.1598 101.22 51.8193 101.22 52.6328V55.7564C101.221 56.5697 100.564 57.2294 99.7542 57.2294Z" fill="#281B49"/>
<path d="M107.784 57.2294C106.975 57.2294 106.318 56.5699 106.318 55.7564V52.6328C106.318 51.8193 106.975 51.1598 107.784 51.1598C108.594 51.1598 109.251 51.8193 109.251 52.6328V55.7564C109.251 56.5697 108.594 57.2294 107.784 57.2294Z" fill="#281B49"/>
<path d="M90.5798 32.2218H91.932C96.033 32.2218 99.3575 35.5618 99.3575 39.682V39.7394C99.3575 43.8596 96.033 47.1996 91.932 47.1996H90.5798C86.4788 47.1996 83.1543 43.8596 83.1543 39.7394V39.682C83.1541 35.5618 86.4788 32.2218 90.5798 32.2218Z" fill="#B46E59"/>
<path d="M93.9151 46.9269C93.2835 47.1055 92.6182 47.1988 91.9326 47.1988H90.5817C86.4799 47.1988 83.1543 43.8601 83.1543 39.7391V39.6821C83.1543 35.5612 86.4799 32.2225 90.5817 32.2225H91.9326C92.6184 32.2225 93.2835 32.3157 93.9151 32.4943C90.775 33.362 88.4702 36.25 88.4702 39.6819V39.7389C88.4702 43.171 90.775 46.059 93.9151 46.9269Z" fill="#A55E4D"/>
<path d="M98.0681 37.5095C98.0681 43.4319 102.847 48.2331 108.742 48.2331C118.33 48.2331 126.102 40.4242 126.102 30.7913V29.3702H105.781C101.367 29.37 97.8512 33.0804 98.0681 37.5095Z" fill="#B46E59"/>
<path d="M112.206 47.8857C111.087 48.1137 109.927 48.2329 108.741 48.2329C102.845 48.2329 98.0681 43.4334 98.0681 37.5097C97.8516 33.0806 101.368 29.3715 105.782 29.3715H111.954C107.54 29.3715 104.023 33.0806 104.24 37.5097C104.24 42.4929 107.622 46.6812 112.206 47.8857Z" fill="#A55E4D"/>
<path d="M73.7126 57.5398C63.0046 57.5398 54.3242 66.2608 54.3242 77.0189V86.178H93.101V77.0189C93.101 66.2608 84.4206 57.5398 73.7126 57.5398Z" fill="#4E98B0"/>
<path d="M78.3254 58.0976C69.8446 60.1757 63.5504 67.8578 63.5504 77.0188V86.1778H54.3242V77.0188C54.3242 66.2602 63.0037 57.5401 73.7122 57.5401C75.3025 57.5401 76.8469 57.7314 78.3254 58.0976Z" fill="#3C788B"/>
<path d="M91.9946 93.5676H55.434C52.4982 93.5676 50.1182 91.1765 50.1182 88.2269C50.1182 85.2773 52.4982 82.8862 55.434 82.8862H91.9946C94.9304 82.8862 97.3104 85.2773 97.3104 88.2269C97.3102 91.1765 94.9304 93.5676 91.9946 93.5676Z" fill="#FFC4AD"/>
<path d="M89.1041 82.8875V97.5361C89.1041 106.075 82.2136 112.998 73.7142 112.998C65.2128 112.998 58.3223 106.075 58.3223 97.5361V82.8875C58.3223 82.122 58.3782 81.2879 58.4858 80.4058L72.4202 71.9269L69.8032 79.6756L84.4809 71.8396L80.1307 81.1962L88.5597 78.0781C88.9157 79.8317 89.1041 81.4729 89.1041 82.8875Z" fill="#FFE0CC"/>
<path d="M77.6647 112.486C76.4038 112.821 75.0828 113 73.7142 113C65.2128 113 58.3223 106.077 58.3223 97.5361V82.8896C58.3223 82.0368 58.3906 81.1983 58.5251 80.3829L69.0204 73.9968C67.2564 76.5117 66.2212 79.5801 66.2212 82.8896V97.5361C66.221 104.704 71.0742 110.733 77.6647 112.486Z" fill="#FFCEB3"/>
<path d="M73.7123 99.6212C71.1571 99.6212 68.7547 98.6214 66.9479 96.806C66.3754 96.2308 66.3754 95.298 66.9479 94.7228C67.5207 94.1476 68.449 94.1476 69.0217 94.7228C70.2747 95.9817 71.9404 96.6749 73.7125 96.6749C75.4845 96.6749 77.1504 95.9815 78.4034 94.7226C78.9763 94.1474 79.9047 94.1474 80.4772 94.7226C81.0497 95.2978 81.0497 96.2307 80.4772 96.8059C78.6699 98.6216 76.2675 99.6212 73.7123 99.6212Z" fill="#ED1C70"/>
<path d="M69.6976 89.3978C68.8876 89.3978 68.2314 88.7383 68.2314 87.9248V84.8011C68.2314 83.9876 68.8878 83.3282 69.6976 83.3282C70.5075 83.3282 71.1637 83.9876 71.1637 84.8011V87.9248C71.1637 88.7381 70.5073 89.3978 69.6976 89.3978Z" fill="#281B49"/>
<path d="M77.7278 89.3978C76.9179 89.3978 76.2617 88.7383 76.2617 87.9248V84.8012C76.2617 83.9877 76.9181 83.3282 77.7278 83.3282C78.5377 83.3282 79.194 83.9877 79.194 84.8012V87.9248C79.1941 88.7381 78.5377 89.3978 77.7278 89.3978Z" fill="#281B49"/>
</g>
<defs>
<filter id="filter0_d" x="0.206055" y="0" width="157.16" height="153" filterUnits="userSpaceOnUse" color-interpolation-filters="sRGB">
<feFlood flood-opacity="0" result="BackgroundImageFix"/>
<feColorMatrix in="SourceAlpha" type="matrix" values="0 0 0 0 0 0 0 0 0 0 0 0 0 0 0 0 0 0 127 0"/>
<feOffset dy="10"/>
<feGaussianBlur stdDeviation="15"/>
<feColorMatrix type="matrix" values="0 0 0 0 0 0 0 0 0 0 0 0 0 0 0 0 0 0 0.01 0"/>
<feBlend mode="normal" in2="BackgroundImageFix" result="effect1_dropShadow"/>
<feBlend mode="normal" in="SourceGraphic" in2="effect1_dropShadow" result="shape"/>
</filter>
</defs>
</svg>
