<svg width="287" height="160" viewBox="0 0 287 160" fill="none" xmlns="http://www.w3.org/2000/svg">
<path opacity="0.4" d="M112.134 134.829L112.134 22.0601C112.134 6.50458 102.182 -3.59739 88.2649 -3.59739C74.3475 -3.59739 64.4332 6.50458 64.4332 22.0601L64.4332 216.12H0.832031L0.832031 25.9399C0.832031 -24.2405 38.2071 -60 88.2649 -60C138.323 -60 175.698 -24.2405 175.698 25.9399V137.537C175.698 153.093 185.65 163.195 199.567 163.195C213.484 163.195 223.399 153.093 223.399 137.537V-56.1203H287V134.829C287 183.435 249.625 220 199.567 220C149.509 220 112.134 183.435 112.134 134.829Z" fill="url(#paint0_linear_1955_32713)"/>
<defs>
<linearGradient id="paint0_linear_1955_32713" x1="287" y1="-60" x2="0.832062" y2="220" gradientUnits="userSpaceOnUse">
<stop stop-color="white"/>
<stop offset="1" stop-color="white" stop-opacity="0"/>
</linearGradient>
</defs>
</svg>
