<?xml version="1.0" encoding="utf-8"?>
<!-- Generator: Adobe Illustrator 28.0.0, SVG Export Plug-In . SVG Version: 6.00 Build 0)  -->
<svg version="1.1" id="Logotypes" xmlns="http://www.w3.org/2000/svg" xmlns:xlink="http://www.w3.org/1999/xlink" x="0px" y="0px"
	 viewBox="0 0 1618.7 566.9" style="enable-background:new 0 0 1618.7 566.9;" xml:space="preserve">
<style type="text/css">
	.st0{fill:#FFFFFF;}
	.st1{fill:#D9D6F6;}
	.st2{fill:#A25AFF;}
</style>
<g id="NAONOW_00000102524057730669760900000003418197231610593431_">
	<path class="st2" d="M330,321.6c0,10.3-6.5,17-15.5,17c-9,0-15.5-6.7-15.5-17v-73.9c0-33.2-24.2-56.9-56.6-56.9
		s-56.7,23.7-56.7,56.9v126h41.2V245.1c0-10.3,6.5-17,15.5-17c9,0,15.5,6.7,15.5,17v74.7h0c0,32.2,24.2,56.4,56.7,56.4
		s56.7-24.2,56.7-56.4V193.3H330L330,321.6L330,321.6z"/>
	<path class="st2" d="M474.5,190.7c-14.7,0-25.8,9.3-33,27.8l-59.8,155.1h44l14.7-39.4h66.7l14.7,39.4h45.3l-59.8-155.1
		C500.2,200,489.2,190.7,474.5,190.7L474.5,190.7z M454.2,296.9l19.8-52.8l19.6,52.8H454.2z"/>
	<path class="st2" d="M661.5,190.7c-17.8,0-34,4.1-48.4,12.4c-28.9,16.5-46.1,46.4-46.1,80.4c0,17,4.1,32.5,12.4,46.6
		c16.2,28.3,46.4,46.1,82.2,46.1c17.8,0,34-4.1,48.4-12.4c28.9-16.5,46.1-46.4,46.1-80.4c0-17-4.1-32.7-12.1-46.9
		C727.4,208.3,697.3,190.7,661.5,190.7z M661.5,335c-27.3,0-49.7-23.4-49.7-51.5s22.4-51.5,49.7-51.5c27.3,0,49.7,23.4,49.7,51.5
		S688.8,335,661.5,335z"/>
	<path class="st2" d="M1071.1,190.7c-17.8,0-34,4.1-48.4,12.4c-28.9,16.5-46.1,46.4-46.1,80.4c0,17,4.1,32.5,12.4,46.6
		c16.2,28.3,46.4,46.1,82.2,46.1c17.8,0,34-4.1,48.4-12.4c28.9-16.5,46.1-46.4,46.1-80.4c0-17-4.1-32.7-12.1-46.9
		C1137,208.3,1106.9,190.7,1071.1,190.7z M1071.1,335c-27.3,0-49.7-23.4-49.7-51.5s22.4-51.5,49.7-51.5c27.3,0,49.7,23.4,49.7,51.5
		S1098.3,335,1071.1,335z"/>
	<path class="st2" d="M1391,193.3l-27.8,138.8l-21.1-90.2c-5.4-23.7-20.1-35.8-37.9-35.8c-17.8,0-31.9,12.1-37.4,35.8l-20.6,88.3
		l-27.6-137h-43.3l30.1,144c5.4,26.5,18,38.9,39.4,38.9c21.4,0,34.5-12.1,40.7-38.6l18.3-78.3l18.3,78.3
		c5.9,25.8,20.3,38.6,41.2,38.6c20.9,0,34-12.4,39.4-38.9l30.1-144H1391z"/>
	<path class="st2" d="M905.8,213.9v82.5l-70.9-91.2c-5-6.3-11.2-12.1-22.2-12.1h-4.1c-12.3,0-22,9.5-22,21.6v158.9h43.5V267.1
		l73.6,94.6c5,6.3,11.1,12.1,22.2,12.1h1.3c12.3,0,22-9.5,22-21.6V193.3h-43.5V213.9L905.8,213.9z"/>
</g>
</svg>
