<?xml version="1.0" encoding="utf-8"?>
<!-- Generator: Adobe Illustrator 28.0.0, SVG Export Plug-In . SVG Version: 6.00 Build 0)  -->
<svg version="1.1" id="Logotypes" xmlns="http://www.w3.org/2000/svg" xmlns:xlink="http://www.w3.org/1999/xlink" x="0px" y="0px"
	 viewBox="0 0 566.9 566.9" style="enable-background:new 0 0 566.9 566.9;" xml:space="preserve">
<style type="text/css">
	.st0{fill:#FFFFFF;}
	.st1{fill:#D9D6F6;}
	.st2{fill:#A25AFF;}
</style>
<path class="st2" d="M335,321.6c0,10.3-6.5,17-15.5,17c-9,0-15.5-6.7-15.5-17v-73.9c0-33.2-24.2-56.9-56.6-56.9
	s-56.7,23.7-56.7,56.9v126h41.2V245.1c0-10.3,6.5-17,15.5-17c9,0,15.5,6.7,15.5,17v74.7h0c0,32.2,24.2,56.4,56.7,56.4
	s56.7-24.2,56.7-56.4V193.3H335L335,321.6L335,321.6z"/>
</svg>
