<?xml version="1.0" encoding="UTF-8"?>
<svg id="Logotypes" xmlns="http://www.w3.org/2000/svg" viewBox="0 0 1247.24 185.45">
  <defs>
    <style>
      .cls-1 {
        fill: #a25aff;
        stroke-width: 0px;
      }
    </style>
  </defs>
  <g id="NAONOW">
    <path class="cls-1" d="m144.25,130.84c0,10.3-6.45,17-15.47,17s-15.47-6.69-15.47-17V56.93C113.31,23.72,89.09,0,56.66,0S0,23.72,0,56.93v125.96h41.19V54.35c0-10.3,6.45-17,15.47-17s15.47,6.69,15.47,17v74.69h.03c0,32.19,24.22,56.41,56.66,56.41s56.66-24.22,56.66-56.41V2.58h-41.22v128.28h-.01Z"/>
    <path class="cls-1" d="m288.74,0c-14.69,0-25.77,9.28-32.97,27.83l-59.76,155.06h44.05l14.69-39.43h66.71l14.69,39.43h45.31l-59.76-155.06c-7.22-18.55-18.28-27.83-32.97-27.83h.01Zm-20.32,106.14l19.83-52.8,19.59,52.8h-39.41Z"/>
    <path class="cls-1" d="m475.75,0c-17.77,0-33.99,4.12-48.42,12.36-28.86,16.48-46.1,46.38-46.1,80.37,0,17,4.12,32.47,12.36,46.62,16.21,28.34,46.36,46.1,82.16,46.1,17.77,0,33.99-4.12,48.42-12.36,28.86-16.48,46.1-46.38,46.1-80.37,0-17-4.12-32.73-12.1-46.89C541.69,17.53,511.56,0,475.75,0Zm0,144.25c-27.33,0-49.73-23.44-49.73-51.52s22.4-51.52,49.73-51.52,49.72,23.44,49.72,51.52-22.4,51.52-49.72,51.52Z"/>
    <path class="cls-1" d="m885.31,0c-17.77,0-33.99,4.12-48.42,12.36-28.86,16.48-46.1,46.38-46.1,80.37,0,17,4.12,32.47,12.36,46.62,16.21,28.34,46.36,46.1,82.16,46.1,17.77,0,33.99-4.12,48.42-12.36,28.86-16.48,46.1-46.38,46.1-80.37,0-17-4.12-32.73-12.1-46.89-16.48-28.31-46.62-45.84-82.42-45.84Zm0,144.25c-27.3,0-49.7-23.44-49.7-51.52s22.37-51.52,49.7-51.52,49.72,23.44,49.72,51.52-22.43,51.52-49.72,51.52Z"/>
    <path class="cls-1" d="m1205.26,2.58l-27.81,138.85-21.11-90.16c-5.4-23.72-20.1-35.81-37.87-35.81s-31.95,12.12-37.35,35.81l-20.61,88.35-27.57-137.03h-43.28l30.13,143.99c5.41,26.52,18.03,38.88,39.43,38.88s34.53-12.12,40.7-38.64l18.27-78.31,18.28,78.31c5.92,25.77,20.34,38.64,41.22,38.64s34.01-12.36,39.41-38.88l30.14-143.99h-41.99Z"/>
    <path class="cls-1" d="m720.03,23.2v82.48l-70.86-91.16c-4.99-6.28-11.15-12.12-22.23-12.12h-4.05c-12.34,0-21.99,9.45-21.99,21.55v158.94h43.49v-106.56l73.65,94.64c4.99,6.28,11.13,12.12,22.23,12.12h1.26c12.34,0,21.99-9.45,21.99-21.55V2.58h-43.49v20.63h0Z"/>
  </g>
</svg>