<svg width="40" height="40" viewBox="0 0 40 40" fill="none" xmlns="http://www.w3.org/2000/svg">
<g clip-path="url(#clip0_4099_23545)">
<path d="M-1.52588e-05 35.3905V4.60954C0.104179 4.20839 0.0708365 3.78432 0.208372 3.39151C0.764767 1.81923 2.51106 0.0125059 4.5793 0.0385544C4.61745 0.0381652 4.65428 0.0245355 4.6835 0H35.3165C35.7457 0.0916906 36.199 0.0552227 36.6116 0.208388C38.1432 0.792915 39.1904 1.87549 39.7905 3.38839C39.9531 3.79891 39.9124 4.25424 40.0041 4.68351V35.3905C39.8927 35.8146 39.9333 36.2678 39.7666 36.6814C39.3144 37.8015 38.5631 38.6611 37.5587 39.3311C36.87 39.7906 36.1 39.9094 35.3165 40H4.60952C4.18545 39.8885 3.73429 39.926 3.31856 39.7625C2.20473 39.3238 1.36597 38.5621 0.68975 37.5869C0.22713 36.919 0.104179 36.1626 -1.52588e-05 35.3905Z" fill="#6133AF"/>
<path d="M12.1615 30.2281C12.1615 29.6821 12.1375 29.133 12.1698 28.5891C12.1917 28.2234 12.0656 28.0004 11.7791 27.7743C10.1037 26.4386 8.82833 24.7829 8.1542 22.7459C6.66214 18.2375 7.69575 14.2844 11.0716 11.0012C16.4574 5.75715 25.7234 6.49588 30.2631 12.4714C33.7442 17.0559 33.1024 23.5055 28.7283 27.3461C25.2826 30.3677 21.267 31.2325 16.8262 30.2635C16.6917 30.2275 16.5513 30.2188 16.4133 30.2379C16.2753 30.2571 16.1426 30.3037 16.0229 30.375C14.858 31.0335 13.6744 31.6608 12.5085 32.3182C12.2053 32.4891 12.1469 32.4297 12.1563 32.1036C12.175 31.4784 12.1615 30.8533 12.1615 30.2281Z" fill="#FEFEFE"/>
<path d="M12.0021 22.922L18.3496 16.1869C18.684 15.8327 18.683 15.8316 19.032 16.1953C19.9062 17.1059 20.7919 18.0062 21.6473 18.9345C21.8828 19.1898 22.0485 19.1815 22.3267 19.0252C24.0031 18.0812 25.6911 17.1549 27.3759 16.2234C27.5051 16.1525 27.6395 16.0879 27.7927 16.0098C27.7927 16.2067 27.6614 16.2713 27.578 16.3588C25.5535 18.5115 23.5218 20.6579 21.5046 22.8189C21.2837 23.0554 21.1753 23.0272 20.9732 22.8095C20.0938 21.8499 19.1894 20.9142 18.3131 19.9504C18.113 19.7316 17.9713 19.7306 17.7286 19.865C15.9573 20.8475 14.1735 21.8176 12.3928 22.7907C12.2719 22.8574 12.1469 22.9158 12.0229 22.9772L12.0021 22.922Z" fill="#6133AF"/>
</g>
<defs>
<clipPath id="clip0_4099_23545">
<rect width="40" height="40" fill="white"/>
</clipPath>
</defs>
</svg>
