<svg width="14" height="16" viewBox="0 0 14 16" fill="none" xmlns="http://www.w3.org/2000/svg">
<path d="M11 5C11 3.93913 10.5786 2.92172 9.82843 2.17157C9.07828 1.42143 8.06087 1 7 1C5.93913 1 4.92172 1.42143 4.17157 2.17157C3.42143 2.92172 3 3.93913 3 5C3 9.66667 1 11 1 11H13C13 11 11 9.66667 11 5Z" stroke="black" stroke-width="1.35" stroke-linecap="round" stroke-linejoin="round"/>
<path d="M8.15432 13.667C8.03712 13.869 7.86888 14.0368 7.66647 14.1533C7.46406 14.2699 7.23458 14.3313 7.00099 14.3313C6.7674 14.3313 6.53792 14.2699 6.33551 14.1533C6.13309 14.0368 5.96486 13.869 5.84766 13.667" stroke="black" stroke-width="1.35" stroke-linecap="round" stroke-linejoin="round"/>
</svg>
