<svg width="37" height="34" viewBox="0 0 37 36" fill="none" xmlns="http://www.w3.org/2000/svg">
<path d="M17.8818 7.96028C16.7666 7.96028 15.8821 8.84475 15.8821 9.95996V19.0354C15.8821 19.7661 16.3051 20.4583 16.9589 20.8044L22.6503 23.8424C22.9579 23.9962 23.2656 24.0731 23.5732 24.0731C24.3039 24.0731 24.996 23.6885 25.3421 22.9964C25.8805 22.035 25.496 20.8044 24.4961 20.266L19.8815 17.8049V9.95996C19.9199 8.84475 18.997 7.96028 17.8818 7.96028Z" fill="white"/>
<path d="M31.3027 5.26839C27.8802 1.88432 23.3809 0 18.574 0C13.8055 0 9.34469 1.80741 5.96061 5.15303L4.11475 3.30717C3.42255 2.61497 2.23043 2.96107 1.9997 3.92245L0.0384697 12.4211C-0.192263 13.344 0.653757 14.1516 1.53823 13.9209L10.0369 11.9596C10.9983 11.7289 11.3444 10.5368 10.6522 9.84459L8.84476 8.03719C9.03704 7.84491 9.22932 7.65263 9.4216 7.49881C14.6131 2.88416 22.4964 2.92261 27.7264 7.49881C30.8028 10.2291 32.5333 14.1516 32.4564 18.2663C32.3795 22.3811 30.4952 26.2266 27.3034 28.8416C22.3426 32.8794 15.0745 32.9563 10.0369 29.0339C8.30639 27.6879 6.96045 26.0343 6.03752 24.1116C5.69142 23.4194 4.96077 22.9579 4.19166 22.9579C4.03784 22.9579 3.84556 22.9964 3.69174 23.0348C3.1149 23.1886 2.61498 23.5732 2.3458 24.15C2.07661 24.7268 2.07661 25.3421 2.3458 25.919C3.30718 27.9186 4.61467 29.6876 6.26825 31.2258C12.998 37.4941 23.6501 37.6094 30.5336 31.4565C34.2254 28.1109 36.3789 23.5347 36.4942 18.574C36.648 13.4979 34.8022 8.8063 31.3027 5.26839Z" fill="white"/>
</svg>
