<svg width="16" height="18" viewBox="0 0 16 18" fill="none" xmlns="http://www.w3.org/2000/svg">
<path fill-rule="evenodd" clip-rule="evenodd" d="M7.48826 10.068C7.48826 12.7027 7.48826 15.2543 7.48826 17.9445C5.60233 17.9445 3.74413 18 1.91367 17.8891C1.10937 17.8891 0.970701 17.3621 0.970701 16.8074C0.942966 14.5887 0.970701 12.3699 0.970701 10.068C3.18945 10.068 5.29725 10.068 7.48826 10.068Z" fill="#6133AF"/>
<path fill-rule="evenodd" clip-rule="evenodd" d="M8.5699 18C8.5699 15.3098 8.5699 12.7305 8.5699 10.068C10.7054 10.068 12.8132 10.068 15.0597 10.068C15.0597 12.3422 15.0597 14.5609 15.0597 16.8352C15.0597 17.6395 14.4218 18 13.673 18C12.0367 18 10.3726 18 8.5699 18Z" fill="#6133AF"/>
<path fill-rule="evenodd" clip-rule="evenodd" d="M8.01521 3.02348C8.62537 2.27465 9.12459 1.55356 9.73474 0.887934C10.5945 -0.0550322 11.7039 -0.221438 12.6746 0.333248C13.5898 0.8602 14.089 1.94184 13.8394 2.94027C13.5343 4.07738 12.73 4.71527 11.4265 4.743C9.12459 4.77074 6.82264 4.77074 4.52069 4.743C3.24491 4.71527 2.46835 4.07738 2.19101 2.8848C1.96914 1.9141 2.41288 0.887934 3.30038 0.360982C4.27108 -0.221438 5.29725 -0.110501 6.18475 0.776997C6.82264 1.47035 7.37733 2.24691 8.01521 3.02348ZM7.29412 3.7723C6.57303 2.85707 6.12928 2.08051 5.46366 1.52582C5.07538 1.22075 4.29882 1.05434 3.85507 1.24848C3.46679 1.41489 2.9953 1.96957 3.13398 2.66293C3.21718 3.13441 3.8828 3.57816 4.35429 3.6891C5.21405 3.91097 6.10155 3.7723 7.29412 3.7723ZM8.73631 3.80004C9.95662 3.8555 10.8441 3.91097 11.6484 3.71683C12.5082 3.52269 12.8132 2.96801 12.8965 2.46879C12.9519 2.10824 12.6746 1.44262 12.2031 1.24848C11.7593 1.05434 10.9828 1.19301 10.6222 1.49809C9.92888 2.02504 9.26326 3.13441 8.73631 3.80004Z" fill="#6133AF"/>
<path fill-rule="evenodd" clip-rule="evenodd" d="M7.48826 5.79691C7.48826 6.90628 7.48826 7.87698 7.48826 8.98635C6.32342 8.98635 5.18632 8.98635 4.04921 8.98635C3.43905 8.98635 2.8289 8.98635 2.21874 8.98635C0.499218 8.98635 0 9.18049 0 7.18362C0 6.6012 0.110937 5.82464 1.16484 5.79691C3.21718 5.74144 5.26952 5.79691 7.48826 5.79691Z" fill="#6133AF"/>
<path fill-rule="evenodd" clip-rule="evenodd" d="M8.5699 8.98635C8.5699 7.79378 8.5699 6.85081 8.5699 5.79691C10.7886 5.79691 12.9519 5.76917 15.1152 5.82464C15.9472 5.88011 15.8363 6.93401 15.8363 6.98948C15.8363 9.23596 15.5867 9.01409 13.673 8.98635C11.9812 8.98635 10.2894 8.98635 8.5699 8.98635Z" fill="#6133AF"/>
</svg>
