<svg width="19" height="17" viewBox="0 0 19 17" fill="none" xmlns="http://www.w3.org/2000/svg">
<path d="M16.1589 0.868889H15.1767V2.49333C15.1767 3.00333 14.7611 3.41889 14.27 3.41889H13.3444C12.8344 3.41889 12.4189 3.00333 12.4189 2.49333V0.868889H6.50667V2.49333C6.50667 3.00333 6.09111 3.41889 5.6 3.41889H4.67444C4.16444 3.41889 3.74889 3.00333 3.74889 2.49333V0.868889H2.78556C1.52 0.868889 0.5 1.90778 0.5 3.15444V14.7144C0.5 15.98 1.52 17 2.78556 17H16.1589C17.4244 17 18.4444 15.98 18.4444 14.7144V3.15444C18.4444 1.90778 17.4244 0.868889 16.1589 0.868889ZM17.0278 14.7144C17.0278 15.1867 16.6311 15.5833 16.1589 15.5833H2.78556C2.31333 15.5833 1.91667 15.1867 1.91667 14.7144V5.87444H17.0278V14.7144Z" fill="#6133AF"/>
<path d="M4.18333 9.97333H5.90222C6.22333 9.97333 6.48778 9.70889 6.48778 9.38778V8.06556C6.48778 7.74444 6.22333 7.48 5.90222 7.48H4.18333C3.86222 7.48 3.59778 7.74444 3.59778 8.06556V9.38778C3.59778 9.70889 3.86222 9.97333 4.18333 9.97333Z" fill="#6133AF"/>
<path d="M13.0422 9.97333H14.7611C15.0822 9.97333 15.3467 9.70889 15.3467 9.38778V8.06556C15.3467 7.74444 15.0822 7.48 14.7611 7.48H13.0422C12.7211 7.48 12.4567 7.74444 12.4567 8.06556V9.38778C12.4567 9.70889 12.7211 9.97333 13.0422 9.97333Z" fill="#6133AF"/>
<path d="M8.60333 9.97333H10.3222C10.6433 9.97333 10.9078 9.70889 10.9078 9.38778V8.06556C10.9078 7.74444 10.6433 7.48 10.3222 7.48H8.60333C8.28222 7.48 8.01778 7.74444 8.01778 8.06556V9.38778C8.03667 9.70889 8.28222 9.97333 8.60333 9.97333Z" fill="#6133AF"/>
<path d="M4.18333 14.0156H5.90222C6.22333 14.0156 6.48778 13.7511 6.48778 13.43V12.1078C6.48778 11.7867 6.22333 11.5222 5.90222 11.5222H4.18333C3.86222 11.5222 3.59778 11.7867 3.59778 12.1078V13.43C3.59778 13.77 3.86222 14.0156 4.18333 14.0156Z" fill="#6133AF"/>
<path d="M13.0422 14.0156H14.7611C15.0822 14.0156 15.3467 13.7511 15.3467 13.43V12.1078C15.3467 11.7867 15.0822 11.5222 14.7611 11.5222H13.0422C12.7211 11.5222 12.4567 11.7867 12.4567 12.1078V13.43C12.4567 13.77 12.7211 14.0156 13.0422 14.0156Z" fill="#6133AF"/>
<path d="M8.60333 14.0156H10.3222C10.6433 14.0156 10.9078 13.7511 10.9078 13.43V12.1078C10.9078 11.7867 10.6433 11.5222 10.3222 11.5222H8.60333C8.28222 11.5222 8.01778 11.7867 8.01778 12.1078V13.43C8.03667 13.77 8.28222 14.0156 8.60333 14.0156Z" fill="#6133AF"/>
<path d="M4.67444 2.83333H5.6C5.78889 2.83333 5.92111 2.68222 5.92111 2.51222V0.321111C5.92111 0.132222 5.77 0 5.6 0H4.67444C4.48556 0 4.35333 0.151111 4.35333 0.321111V2.49333C4.33444 2.68222 4.48556 2.83333 4.67444 2.83333Z" fill="#6133AF"/>
<path d="M13.3444 2.83333H14.27C14.4589 2.83333 14.5911 2.68222 14.5911 2.51222V0.321111C14.5911 0.132222 14.44 0 14.27 0H13.3444C13.1556 0 13.0233 0.151111 13.0233 0.321111V2.49333C13.0233 2.68222 13.1744 2.83333 13.3444 2.83333Z" fill="#6133AF"/>
</svg>
