<svg width="96" height="96" viewBox="24 18 98 98" fill="none" xmlns="http://www.w3.org/2000/svg">
<g filter="url(#filter0_d)">
<path d="M110.655 19H88.4417C83.5652 19 77.0437 21.7012 73.5962 25.1494L28.0205 70.7244C26.0723 72.6719 25 75.269 25 78.0383C25 80.8076 26.073 83.4048 28.0205 85.3523L54.647 111.979C56.5945 113.927 59.1924 115 61.9609 115C64.7302 115 67.3274 113.927 69.2756 111.979L114.851 66.4038C118.299 62.9563 121 56.4348 121 51.5583V29.3433C120.999 23.6399 116.359 19 110.655 19ZM105.264 38.875C104.741 39.4001 104.015 39.6997 103.275 39.6997C102.534 39.6997 101.81 39.3994 101.287 38.875C100.762 38.3521 100.462 37.6277 100.462 36.8872C100.462 36.146 100.762 35.4209 101.287 34.8979C101.808 34.375 102.534 34.0747 103.275 34.0747C104.015 34.0747 104.741 34.375 105.264 34.8979C105.787 35.4209 106.087 36.1467 106.087 36.8872C106.087 37.6277 105.787 38.3521 105.264 38.875Z" fill="#60B2CC"/>
<path d="M105.263 34.8975C105.786 35.4204 106.087 36.1462 106.087 36.8867C106.087 37.6272 105.786 38.3516 105.263 38.8745C104.74 39.3997 104.015 39.6992 103.274 39.6992C102.534 39.6992 101.809 39.3989 101.286 38.8745L41.416 98.7478L54.6465 111.979C56.594 113.927 59.1919 114.999 61.9604 115C64.7297 115 67.3269 113.927 69.2751 111.978L114.85 66.4033C118.298 62.9551 121 56.4343 121 51.5579V29.3428C120.999 26.5325 119.87 23.9814 118.045 22.1152L105.263 34.8975Z" fill="#4E98B0"/>
<path d="M51.1203 81.1567C50.0979 80.135 50.3535 78.6438 51.8864 77.1093C53.6765 75.32 54.9758 75.6394 55.6364 74.9795C56.4033 74.2126 55.7639 72.8913 55.2739 72.4021C53.8676 70.9958 50.779 73.4883 49.5222 74.7451C47.0722 77.195 45.4323 81.008 48.6059 84.1823C53.6545 89.2309 59.5132 81.4131 62.7087 84.6086C63.9868 85.8867 63.4543 87.5691 62.1755 88.8479C60.0031 91.0202 57.7876 89.9553 56.9138 90.8283C56.2539 91.489 56.5945 92.9377 57.1906 93.5346C58.4262 94.7702 61.9631 94.0459 64.7536 91.2546C67.6936 88.3154 68.2473 84.6079 65.2011 81.5617C59.6838 76.0444 53.7614 83.7993 51.1203 81.1567Z" fill="#FEF4F5"/>
<path d="M80.901 71.9967L63.3895 62.7089C62.559 62.2613 61.4728 62.7513 60.6635 63.5614C59.8754 64.3487 59.3847 65.4357 59.8322 66.267L69.12 83.7777C69.1837 83.8839 69.2482 83.9901 69.2907 84.0333C69.9725 84.7145 71.4425 84.182 72.1874 83.4364C72.6561 82.9684 72.87 82.4564 72.5719 81.9452L70.5475 78.3028L75.4262 73.4242L79.0685 75.4486C79.5805 75.746 80.091 75.5336 80.5597 75.0648C81.3053 74.3192 81.8165 72.8273 81.1559 72.1673C81.0929 72.1036 81.0072 72.0604 80.901 71.9967ZM68.9501 75.5548L64.2633 67.1605L72.6569 71.848L68.9501 75.5548Z" fill="#FEF4F5"/>
<path d="M89.314 61.4527L84.116 66.6507L71.8245 54.3585C71.2276 53.7623 70.2696 54.2098 69.5877 54.8909C68.8846 55.5941 68.4583 56.5316 69.0545 57.1285L82.9016 70.9756C83.4766 71.5506 84.3716 71.2525 84.9898 70.6343L91.7427 63.8814C92.2964 63.3277 91.9551 62.4327 91.3589 61.8365C90.7415 61.2183 89.8684 60.8983 89.314 61.4527Z" fill="#FEF4F5"/>
<path d="M102.564 50.6745C101.903 50.0138 101.008 49.7582 100.454 50.3119L94.4259 56.3405L90.1442 52.0587L93.3822 48.8207C93.9784 48.2245 93.6803 47.372 93.1903 46.882C92.6153 46.307 91.7628 46.0946 91.2091 46.6483L87.9711 49.8856L83.7106 45.6251L89.7391 39.5973C90.2928 39.0429 90.0372 38.1486 89.3773 37.4879C88.8016 36.913 87.9073 36.5717 87.3104 37.1679L79.7269 44.7521C79.1088 45.3695 78.8107 46.2645 79.3863 46.8395L93.2115 60.6647C93.7872 61.2404 94.6815 60.9423 95.2997 60.3241L102.883 52.7406C103.479 52.1444 103.139 51.2494 102.564 50.6745Z" fill="#FEF4F5"/>
<path d="M62.709 84.606C63.9871 85.884 63.4546 87.5664 62.1765 88.8452C60.0034 91.0176 57.7878 89.9526 56.9148 90.8257C56.2542 91.4863 56.5955 92.9351 57.1917 93.532C58.4272 94.7676 61.9634 94.0432 64.7539 91.252C67.6938 88.3127 68.2476 84.6052 65.2014 81.5591C63.6846 80.0422 62.137 79.5303 60.6355 79.5273L54.4824 85.6812C57.6978 84.8953 60.7197 82.6167 62.709 84.606Z" fill="#D5EDED"/>
<path d="M72.656 71.8469L68.95 75.5537L67.395 72.7683L64.707 75.4563L69.1199 83.7766C69.1836 83.8828 69.248 83.989 69.2905 84.0322C69.9724 84.7134 71.4424 84.1809 72.1873 83.4353C72.656 82.9673 72.8699 82.4553 72.5718 81.9441L70.5474 78.301L75.426 73.4231L79.0684 75.4468C79.5803 75.7449 80.0908 75.5325 80.5596 75.063C81.3052 74.3174 81.8164 72.8262 81.1558 72.1663C81.092 72.1025 81.0071 72.0593 80.9009 71.9956L72.5806 67.582L69.8713 70.2913L72.656 71.8469Z" fill="#D5EDED"/>
<path d="M82.9019 70.9739C83.4768 71.5496 84.3718 71.2515 84.9893 70.6333L91.7422 63.8797C92.2959 63.3267 91.9553 62.4317 91.3591 61.8355C90.741 61.2173 89.8679 60.8973 89.3135 61.4517L84.1155 66.6497L78.8142 61.3484L76.0449 64.1177L82.9019 70.9739Z" fill="#D5EDED"/>
<path d="M100.455 50.3108L94.4268 56.3394L90.145 52.0576L93.3831 48.8196C93.9609 48.241 93.698 47.4236 93.2344 46.9277L86.3555 53.8066L93.2124 60.6636C93.7874 61.2393 94.6824 60.9412 95.3005 60.323L102.883 52.7395C103.48 52.1433 103.139 51.2483 102.565 50.6733C101.904 50.0127 101.009 49.7571 100.455 50.3108Z" fill="#D5EDED"/>
</g>
<defs>
<filter id="filter0_d" x="0" y="0" width="146" height="146" filterUnits="userSpaceOnUse" color-interpolation-filters="sRGB">
<feFlood flood-opacity="0" result="BackgroundImageFix"/>
<feColorMatrix in="SourceAlpha" type="matrix" values="0 0 0 0 0 0 0 0 0 0 0 0 0 0 0 0 0 0 127 0"/>
<feOffset dy="6"/>
<feGaussianBlur stdDeviation="12.5"/>
<feColorMatrix type="matrix" values="0 0 0 0 0 0 0 0 0 0 0 0 0 0 0 0 0 0 0.05 0"/>
<feBlend mode="normal" in2="BackgroundImageFix" result="effect1_dropShadow"/>
<feBlend mode="normal" in="SourceGraphic" in2="effect1_dropShadow" result="shape"/>
</filter>
</defs>
</svg>
