<svg width="20" height="20" viewBox="0 0 20 20" fill="none" xmlns="http://www.w3.org/2000/svg">
<path d="M17.0665 17.0728C20.9726 13.1667 20.9726 6.83567 17.0665 2.92957C13.1604 -0.976524 6.83567 -0.976524 2.92957 2.92957C-0.976524 6.84193 -0.976524 13.1667 2.92957 17.0728C6.82941 20.9726 13.1604 20.9789 17.0665 17.0728ZM5.17951 10.2106C5.42322 9.96681 5.82322 9.96681 6.06696 10.2106L8.10439 12.2417L13.9292 6.42946C14.1791 6.19196 14.5729 6.19196 14.8166 6.43567C15.0604 6.67942 15.0604 7.07316 14.8166 7.31691L8.54184 13.5667C8.42313 13.6917 8.26063 13.7479 8.10439 13.7479C7.94189 13.7479 7.78565 13.6917 7.66064 13.5667L5.17951 11.098C4.93576 10.8543 4.93576 10.4543 5.17951 10.2106Z" fill="#7048E8"/>
</svg>
