<svg width="42" height="37" viewBox="0 0 42 37" fill="none" xmlns="http://www.w3.org/2000/svg">
<path fill-rule="evenodd" clip-rule="evenodd" d="M15.076 31.7338C15.6198 31.7833 16.1635 31.7833 16.7072 31.7338C18.7833 31.635 20.8099 31.1407 22.6388 30.3004C22.3422 29.3612 22.1939 28.3232 22.1939 27.2852C22.1939 21.8479 26.3954 17.3498 31.6844 16.9544C31.7338 16.6084 31.7338 16.2129 31.7338 15.8669C31.7338 7.11787 24.616 0 15.8669 0C7.11787 0 0 7.11787 0 15.8669C0 20.1673 1.68061 24.1711 4.74525 27.1863C7.51331 29.9544 11.2205 31.5361 15.076 31.7338ZM11.5171 12.0608C11.5171 13.0982 10.6762 13.9392 9.6388 13.9392C8.60143 13.9392 7.76047 13.0982 7.76047 12.0608C7.76047 11.0235 8.60143 10.1825 9.6388 10.1825C10.6762 10.1825 11.5171 11.0235 11.5171 12.0608ZM22.3422 12.0608C22.3422 13.0982 21.5013 13.9392 20.4639 13.9392C19.4265 13.9392 18.5856 13.0982 18.5856 12.0608C18.5856 11.0235 19.4265 10.1825 20.4639 10.1825C21.5013 10.1825 22.3422 11.0235 22.3422 12.0608ZM15.1749 24.0228C11.7643 24.0228 9.24336 22.1939 9.19393 22.1445C8.84793 21.8973 8.7985 21.4525 9.04564 21.1064C9.29279 20.7604 9.73766 20.711 10.0837 20.9582C10.2814 21.1064 14.9278 24.4677 20.019 20.9582C20.365 20.711 20.8099 20.8099 21.0571 21.1559C21.3042 21.5019 21.2053 21.9468 20.8593 22.1939C18.8821 23.5285 16.905 24.0228 15.1749 24.0228Z" fill="white"/>
<path fill-rule="evenodd" clip-rule="evenodd" d="M32.9696 36.1331C35.1445 36.0342 37.2205 35.1445 38.7528 33.6122C40.4335 31.9316 41.3726 29.6578 41.3726 27.3346C41.3726 22.5894 37.6654 18.7338 33.019 18.4373H32.4753C32.1787 18.4373 31.8821 18.4373 31.5856 18.4867C27.0875 18.9316 23.5779 22.7376 23.5779 27.3346C23.5779 28.1255 23.6768 28.9164 23.8745 29.6578C24.0228 30.1026 24.1711 30.5475 24.3688 30.9924C24.8137 31.9316 25.4563 32.8213 26.2471 33.6122C27.8289 35.1445 29.8555 36.0342 32.0304 36.1331H32.9696ZM29.6578 26.5931C30.3676 26.5931 30.943 26.0178 30.943 25.308C30.943 24.5982 30.3676 24.0228 29.6578 24.0228C28.948 24.0228 28.3726 24.5982 28.3726 25.308C28.3726 26.0178 28.948 26.5931 29.6578 26.5931ZM37.3688 25.2091C37.3688 25.9189 36.7934 26.4943 36.0837 26.4943C35.3739 26.4943 34.7985 25.9189 34.7985 25.2091C34.7985 24.4993 35.3739 23.9239 36.0837 23.9239C36.7934 23.9239 37.3688 24.4993 37.3688 25.2091ZM29.3612 32.0798C29.5095 32.2775 29.7072 32.3764 29.9544 32.3764C30.1027 32.3764 30.251 32.327 30.3992 32.2281C33.0685 30.3992 35.5399 32.1293 35.6388 32.2281C35.9848 32.4753 36.4297 32.4258 36.6768 32.0798C36.924 31.7338 36.8745 31.289 36.5285 31.0418C35.3422 30.2015 32.4259 29.0646 29.5589 31.0418C29.2129 31.289 29.1141 31.7338 29.3612 32.0798Z" fill="white"/>
</svg>
