<svg width="11" height="12" viewBox="0 0 11 12" fill="none" xmlns="http://www.w3.org/2000/svg">
<path d="M4.63589 1.48359C5.02162 0.821322 5.97838 0.821321 6.36411 1.48359L7.37955 3.22698C7.52085 3.46958 7.75762 3.64161 8.03202 3.70103L10.0039 4.12802C10.7529 4.29023 11.0486 5.20015 10.5379 5.77166L9.19364 7.27613C9.00658 7.48549 8.91614 7.76384 8.94442 8.04316L9.14765 10.0504C9.22486 10.813 8.45083 11.3753 7.74949 11.0663L5.90325 10.2527C5.64634 10.1395 5.35366 10.1395 5.09675 10.2527L3.25051 11.0663C2.54917 11.3753 1.77514 10.813 1.85235 10.0504L2.05558 8.04316C2.08386 7.76384 1.99342 7.48549 1.80636 7.27613L0.462085 5.77166C-0.04857 5.20016 0.247082 4.29023 0.996135 4.12802L2.96798 3.70103C3.24238 3.64161 3.47915 3.46958 3.62045 3.22698L4.63589 1.48359Z" fill="#60B2CC"/>
</svg>
