<svg width="21" height="20" viewBox="0 0 21 20" fill="none" xmlns="http://www.w3.org/2000/svg">
<g id="star">
<mask id="path-1-inside-1_4714_14185" fill="white">
<path fill-rule="evenodd" clip-rule="evenodd" d="M20.2483 9.3464L16.9933 12.5029C16.7999 12.6903 16.6315 13.2063 16.6755 13.472L17.4311 17.9426C17.5357 18.5619 17.3956 19.118 17.0367 19.5093C17.0229 19.5254 16.6472 20 15.7479 20C15.4762 20 15.2018 19.8941 14.9294 19.7501L10.9202 17.6305C10.855 17.596 10.7215 17.5542 10.5399 17.5394C10.259 17.5171 10.0116 17.5697 9.90041 17.6276L5.88126 19.7274C5.51547 19.9181 5.15164 19.9599 4.79769 19.9727C4.03912 20.0003 3.73451 19.4314 3.69833 19.385C3.48648 19.1127 3.26148 18.6355 3.38812 17.9071L4.16643 13.4404C4.21215 13.1751 4.04603 12.6581 3.85392 12.4706L0.614062 9.2974C0.0719466 8.76629 -0.123781 8.1102 0.0772099 7.49719C0.277871 6.88518 0.824262 6.47212 1.57526 6.36491L6.06515 5.72461C6.33127 5.68613 6.77207 5.36845 6.89148 5.12673L8.90862 1.06689C9.26685 0.347003 9.88791 -0.0496091 10.5715 0.00498253C11.1672 0.0520103 11.6856 0.442373 11.9958 1.07478L13.9926 5.14548C14.111 5.38719 14.5498 5.70718 14.816 5.74664L19.3029 6.40996C20.0536 6.52112 20.5973 6.93648 20.795 7.55014C20.9924 8.16315 20.7937 8.81858 20.2483 9.3464Z"/>
</mask>
<path fill-rule="evenodd" clip-rule="evenodd" d="M20.2483 9.3464L16.9933 12.5029C16.7999 12.6903 16.6315 13.2063 16.6755 13.472L17.4311 17.9426C17.5357 18.5619 17.3956 19.118 17.0367 19.5093C17.0229 19.5254 16.6472 20 15.7479 20C15.4762 20 15.2018 19.8941 14.9294 19.7501L10.9202 17.6305C10.855 17.596 10.7215 17.5542 10.5399 17.5394C10.259 17.5171 10.0116 17.5697 9.90041 17.6276L5.88126 19.7274C5.51547 19.9181 5.15164 19.9599 4.79769 19.9727C4.03912 20.0003 3.73451 19.4314 3.69833 19.385C3.48648 19.1127 3.26148 18.6355 3.38812 17.9071L4.16643 13.4404C4.21215 13.1751 4.04603 12.6581 3.85392 12.4706L0.614062 9.2974C0.0719466 8.76629 -0.123781 8.1102 0.0772099 7.49719C0.277871 6.88518 0.824262 6.47212 1.57526 6.36491L6.06515 5.72461C6.33127 5.68613 6.77207 5.36845 6.89148 5.12673L8.90862 1.06689C9.26685 0.347003 9.88791 -0.0496091 10.5715 0.00498253C11.1672 0.0520103 11.6856 0.442373 11.9958 1.07478L13.9926 5.14548C14.111 5.38719 14.5498 5.70718 14.816 5.74664L19.3029 6.40996C20.0536 6.52112 20.5973 6.93648 20.795 7.55014C20.9924 8.16315 20.7937 8.81858 20.2483 9.3464Z" fill="#FCC2D7" stroke="#D6336C" stroke-width="2" mask="url(#path-1-inside-1_4714_14185)"/>
</g>
</svg>
