<svg width="11" height="12" viewBox="0 0 11 12" fill="none" xmlns="http://www.w3.org/2000/svg">
<path d="M5.06794 1.73524C5.26081 1.4041 5.73919 1.4041 5.93206 1.73524L6.94749 3.47863C7.15944 3.84253 7.51461 4.10057 7.9262 4.1897L9.89804 4.6167C10.2726 4.6978 10.4204 5.15276 10.1651 5.43852L8.82079 6.94299C8.5402 7.25702 8.40454 7.67454 8.44696 8.09353L8.6502 10.1008C8.6888 10.4821 8.30178 10.7633 7.95112 10.6087L6.10487 9.79515C5.7195 9.62533 5.2805 9.62533 4.89513 9.79515L3.04888 10.6087C2.69822 10.7633 2.3112 10.4821 2.3498 10.1008L2.55304 8.09353C2.59546 7.67454 2.4598 7.25702 2.17921 6.94299L0.83493 5.43852C0.579603 5.15276 0.72743 4.6978 1.10196 4.6167L3.0738 4.1897C3.48539 4.10057 3.84056 3.84253 4.05251 3.47863L5.06794 1.73524Z" stroke="#DBDBDB"/>
</svg>
