<svg width="81" height="128" viewBox="30 15 83 138" fill="none" xmlns="http://www.w3.org/2000/svg">
<g filter="url(#filter0_d)">
<path fill-rule="evenodd" clip-rule="evenodd" d="M111.667 126.905H111.641C110.676 138.62 92.9218 147.961 71.1346 148H70.9999H70.8656C49.0785 147.961 31.3238 138.62 30.359 126.905H30.3326C30.712 114.032 38.2185 103.03 48.8748 98.0491L92.5206 97.7744C103.496 102.617 111.281 113.79 111.667 126.905Z" fill="#60B2CC"/>
<path fill-rule="evenodd" clip-rule="evenodd" d="M88.7476 145.779C87.855 146.016 86.944 146.235 86.0161 146.437V140.953H88.7476V145.779Z" fill="#3C788B"/>
<path fill-rule="evenodd" clip-rule="evenodd" d="M55.9839 146.44C55.056 146.239 54.145 146.019 53.2524 145.783V140.953H55.9839V146.44Z" fill="#3C788B"/>
<path d="M56.6287 128.012V140.89L54.6172 143.304L52.6059 140.89V128.012C52.6059 126.899 53.5043 126 54.6172 126C55.7276 126 56.6287 126.899 56.6287 128.012Z" fill="#4E98B0"/>
<path d="M89.3941 128.012V140.891L87.3828 143.304L85.3715 140.891V128.012C85.3715 126.899 86.2726 126 87.3828 126C88.4958 126 89.3941 126.899 89.3941 128.012Z" fill="#4E98B0"/>
<path d="M71.0743 121.638L50.9142 99.4548L51.0475 97.1906C54.4054 95.9536 58.0344 95.2773 61.8216 95.2773H80.3269C84.0789 95.2773 87.6754 95.9411 91.0071 97.1561L90.9021 99.8205L71.0743 121.638Z" fill="#F7F7F7"/>
<path d="M91.1005 97.1924C92.178 97.5894 93.228 98.0429 94.246 98.5514L93.417 102.116L71.0742 126.458L48.5042 101.865L47.9024 98.5514C48.9204 98.0429 49.9704 97.5891 51.0479 97.1924L70.0835 118.138C70.6147 118.722 71.5339 118.722 72.0652 118.138L91.1005 97.1924Z" fill="#DBDBDB"/>
<path d="M71.0742 121.638C71.0742 121.638 67.605 117.821 65.4023 115.397L64.9055 112.441L66.3828 104.344L71.0742 101.933L75.7657 104.343L77.2429 112.44L76.7462 115.396L71.0742 121.638Z" fill="#B7AFD6"/>
<path d="M66.3827 104.343H75.7657L77.8121 95.2778H64.3363L66.3827 104.343Z" fill="#9C96B5"/>
<path d="M64.173 116.454L64.9055 112.44L70.0835 118.138C70.6147 118.722 71.534 118.722 72.0652 118.138L77.2432 112.44L77.9756 116.454L71.0742 128.868L64.173 116.454Z" fill="#9C96B5"/>
<path d="M94.246 98.5513C95.8354 99.3455 97.3482 100.271 98.7692 101.314L98.4617 104.062L74.0469 130.927C72.4532 132.681 69.6957 132.681 68.102 130.927L43.4227 103.771L43.3797 101.314C44.8007 100.271 46.3132 99.3455 47.9029 98.5513L70.1492 123.03C70.6452 123.576 71.5034 123.576 71.9992 123.03L94.246 98.5513Z" fill="#433A5B"/>
<path d="M68.1018 128.517C69.6955 130.271 72.453 130.271 74.0467 128.517L98.7687 101.315C99.6425 101.956 100.482 102.641 101.283 103.368L74.0467 133.337C72.453 135.091 69.6955 135.091 68.1018 133.337L40.8658 103.368C41.6668 102.641 42.5063 101.956 43.38 101.314L68.1018 128.517Z" fill="#281B49"/>
<path d="M93.975 68.7204L96.385 62.2332C96.672 62.2037 96.963 62.1885 97.2577 62.1885C101.045 62.1885 104.249 64.683 105.318 68.1184C105.564 68.9112 105.33 76.6578 97.2577 76.6578L96.3205 74.1946L93.975 68.7204Z" fill="#FFC4AD"/>
<path d="M97.2577 74.2475C101.081 74.2475 104.309 71.7042 105.346 68.2178C105.573 68.9818 105.697 69.79 105.697 70.6278C105.697 75.2887 101.919 79.0674 97.2577 79.0674C96.668 79.0674 96.0927 79.0064 95.537 78.8914L93.6123 76.6574L96.3185 74.194C96.627 74.2285 96.9402 74.2475 97.2577 74.2475Z" fill="#FFB69F"/>
<path d="M48.1735 68.7204L45.7635 62.2332C45.4765 62.2037 45.1855 62.1885 44.8907 62.1885C41.1035 62.1885 37.8991 64.683 36.8306 68.1184C36.5841 68.9112 36.8188 76.6578 44.8907 76.6578L45.828 74.1946L48.1735 68.7204Z" fill="#FFC4AD"/>
<path d="M44.8907 74.2475C41.0673 74.2475 37.8396 71.7042 36.8023 68.2178C36.5751 68.9818 36.4511 69.79 36.4511 70.6278C36.4511 75.2887 40.2295 79.0674 44.8907 79.0674C45.4805 79.0674 46.0557 79.0064 46.6115 78.8914L48.5362 76.6574L45.83 74.194C45.5215 74.2285 45.2082 74.2475 44.8907 74.2475Z" fill="#FFB69F"/>
<path d="M96.385 36.2471V67.5573V69.9672C96.385 83.9461 85.0529 95.278 71.0743 95.278C57.0956 95.278 45.7635 83.9461 45.7635 69.9672V67.5573V36.2471H96.385Z" fill="#FFE0CC"/>
<path d="M71.0743 92.8674C85.0529 92.8674 96.385 81.5355 96.385 67.5566V72.3766C96.385 86.3555 85.0529 97.6873 71.0743 97.6873C57.0956 97.6873 45.7635 86.3555 45.7635 72.3766V67.5566C45.7635 81.5355 57.0956 92.8674 71.0743 92.8674Z" fill="#FFCEB3"/>
<path d="M46.9297 54.1607C51.4666 50.292 55.4329 46.0106 55.4329 46.0106C62.6598 51.8195 68.091 52.3295 68.091 52.3295L73.4027 47.1463C82.4346 53.95 92.864 55.2935 95.7072 55.2227C96.1395 55.212 96.5675 55.1415 96.9817 55.0147C103.607 52.9868 106.11 48.969 106.11 48.969C106.11 48.969 106.885 47.2093 105.662 46.9743C99.2647 45.7436 97.0157 41.3596 97.0157 41.3596C104.137 41.5749 106.437 36.2957 107.163 33.3934C107.387 32.499 106.671 31.6562 105.752 31.7285C92.4527 32.7752 89.225 24.5793 76.7194 20.8858C63.6873 17.0369 54.4604 26.9773 54.4604 26.9773C54.4604 26.9773 41.2527 25.702 40.1195 39.1664C39.0363 52.0355 46.9297 54.1607 46.9297 54.1607Z" fill="#433A5B"/>
<path d="M46.6975 51.8297C49.8902 49.5714 52.8202 45.3925 54.3409 42.9995C54.8419 42.2108 55.9664 42.1793 56.5384 42.918C62.0103 49.9849 73.4027 47.1467 73.4027 47.1467C73.4027 47.1467 70.605 50.5724 70.611 54.5964C70.6122 55.4619 69.82 56.1061 68.9763 55.9139C65.7608 55.1809 59.0301 52.8719 55.4329 46.0112C55.4329 46.0112 51.3447 53.3611 46.7002 56.6481C46.1547 57.0341 45.4085 56.9591 44.9517 56.4716C43.2128 54.6151 39.3543 49.3197 40.1 39.457C40.6558 46.2622 43.5168 50.1174 44.9485 51.6477C45.4057 52.1362 46.151 52.2162 46.6975 51.8297Z" fill="#281B49"/>
<path d="M73.1197 45.5588C72.9379 44.3005 74.4459 43.5155 75.3602 44.3988C83.4838 52.2472 93.0787 52.8785 95.7072 52.813C96.1395 52.8022 96.5675 52.7317 96.9817 52.605C100.198 51.6205 103.31 49.2015 105.663 46.9725C106.129 47.0623 106.617 47.1355 107.128 47.1893C108.219 47.3035 108.723 48.605 107.987 49.4167C105.671 51.9685 101.424 56.0652 96.9817 57.4249C96.5672 57.5517 96.1395 57.6222 95.7072 57.6329C92.864 57.7037 81.8691 56.9592 73.4027 47.1465C73.2784 46.5455 73.1862 46.0193 73.1197 45.5588Z" fill="#281B49"/>
<path d="M71.0742 85.2791C63.9348 85.2791 61.7763 80.2616 61.6821 80.0339C61.6818 80.0334 61.6816 80.0326 61.6813 80.0324C61.1126 78.7544 62.1236 77.2121 63.5323 77.2436C64.3693 77.2436 65.0861 77.7559 65.3878 78.4836C65.4893 78.6986 66.793 81.2626 71.074 81.2626C75.354 81.2626 76.6579 78.7001 76.7602 78.4839C77.0619 77.7561 77.7787 77.2439 78.6157 77.2439C80.0244 77.2121 81.0354 78.7549 80.4667 80.0326C80.4664 80.0329 80.4662 80.0339 80.4659 80.0341C80.3722 80.2616 78.2137 85.2791 71.0742 85.2791Z" fill="#ED1C70"/>
<path d="M83.3389 62.5898C84.4481 62.5898 85.3471 63.4891 85.3471 64.5981V70.2725C85.3471 71.3818 84.4479 72.2808 83.3389 72.2808C82.2296 72.2808 81.3306 71.3815 81.3306 70.2725V64.5981C81.3306 63.4891 82.2296 62.5898 83.3389 62.5898Z" fill="#281B49"/>
<path d="M58.8096 72.2807C57.7004 72.2807 56.8012 71.3815 56.8012 70.2725V64.5981C56.8012 63.4888 57.7004 62.5898 58.8096 62.5898C59.9189 62.5898 60.8179 63.4891 60.8179 64.5981V70.2725C60.8179 71.3815 59.9189 72.2807 58.8096 72.2807Z" fill="#281B49"/>
</g>
<defs>
<filter id="filter0_d" x="0.332642" y="0" width="141.335" height="188" filterUnits="userSpaceOnUse" color-interpolation-filters="sRGB">
<feFlood flood-opacity="0" result="BackgroundImageFix"/>
<feColorMatrix in="SourceAlpha" type="matrix" values="0 0 0 0 0 0 0 0 0 0 0 0 0 0 0 0 0 0 127 0"/>
<feOffset dy="10"/>
<feGaussianBlur stdDeviation="15"/>
<feColorMatrix type="matrix" values="0 0 0 0 0 0 0 0 0 0 0 0 0 0 0 0 0 0 0.01 0"/>
<feBlend mode="normal" in2="BackgroundImageFix" result="effect1_dropShadow"/>
<feBlend mode="normal" in="SourceGraphic" in2="effect1_dropShadow" result="shape"/>
</filter>
</defs>
</svg>
