<svg width="34" height="40" viewBox="0 0 34 40" fill="none" xmlns="http://www.w3.org/2000/svg">
<path d="M23.3225 19.537C22.9856 18.5264 21.975 17.8106 20.9224 18.0212C19.5749 18.2738 18.8171 19.6213 19.2383 20.8422L20.7121 25.1791C19.2383 25.6842 16.6279 26.2737 12.7964 26.2737C8.92268 26.2737 6.31231 25.6843 4.83848 25.1791L6.31231 20.9686C6.64919 19.958 6.31231 18.779 5.34396 18.2738C4.16502 17.6424 2.69126 18.2318 2.27036 19.4528L0.123066 25.6422C-0.213814 26.5685 0.165065 27.6212 0.965096 28.1264C1.25998 28.2947 3.32291 29.5579 7.61772 30.1896L7.57514 39.3685C7.57514 39.7054 7.87001 40 8.20659 40H17.3855C17.7224 40 18.017 39.7051 18.017 39.3685L17.9333 30.1896C22.2281 29.5581 24.2911 28.2949 24.5859 28.1264C25.4279 27.5789 25.7649 26.5685 25.4279 25.6422L23.3225 19.537Z" fill="#6133AF"/>
<path d="M7.99622 20.2107C7.99622 22.8634 10.1435 24.9686 12.7542 24.9686C15.4069 24.9686 17.5121 22.8213 17.5121 20.2107C17.5121 17.558 15.3649 15.4527 12.7542 15.4527C10.1435 15.4527 7.99622 17.558 7.99622 20.2107Z" fill="#6133AF"/>
<path d="M9.30148 12.7159C9.46977 13.1791 9.84894 13.4737 10.3121 13.4737C10.4384 13.4737 10.5227 13.4737 10.649 13.4317C11.1964 13.2634 11.5333 12.6316 11.3227 12.0842L10.607 9.93686C10.4387 9.38941 9.80689 9.0525 9.25944 9.26311C8.71199 9.43141 8.37508 10.0632 8.58569 10.6106L9.30148 12.7159Z" fill="#6133AF"/>
<path d="M14.0594 13.2212C14.1437 13.2212 14.2277 13.2632 14.27 13.2632C14.7751 13.2632 15.1963 12.9263 15.3226 12.4212L15.7858 10.2316C15.9121 9.64216 15.5332 9.0947 14.9437 8.96838C14.3543 8.84209 13.8068 9.22097 13.6805 9.81041L13.2173 12C13.0907 12.5474 13.4699 13.0949 14.0594 13.2212Z" fill="#6133AF"/>
<path d="M6.31201 15.3686C6.5226 15.5369 6.77518 15.6634 7.02776 15.6634C7.32264 15.6634 7.61722 15.5371 7.82783 15.3266C8.20671 14.9054 8.20671 14.1896 7.74354 13.8108L6.05948 12.295C5.63831 11.9161 4.92257 11.9581 4.54369 12.3793C4.16482 12.8004 4.16481 13.5162 4.62799 13.8951L6.31201 15.3686Z" fill="#6133AF"/>
<path d="M25.8067 0.000150365C21.6805 0.000150365 18.312 3.36864 18.312 7.49488C18.312 8.88435 18.6909 10.1896 19.3646 11.2842L17.9752 14.3158C17.6803 14.9895 18.354 15.6633 19.0278 15.3684L22.0174 13.9789C23.1121 14.6527 24.4176 15.0316 25.8067 15.0316C29.933 15.0316 33.3015 11.6631 33.3015 7.53684C33.3015 3.36857 29.9753 0 25.8067 0V0.000150365ZM24.7121 3.57925C24.7121 2.94779 25.2172 2.48458 25.8067 2.48458C26.4382 2.48458 26.9014 2.98976 26.9014 3.57925V7.87405C26.9014 8.50551 26.3962 8.96871 25.8067 8.96871C25.1753 8.96871 24.7121 8.46354 24.7121 7.87405V3.57925ZM25.8067 12.5477C25.091 12.5477 24.5435 12.0002 24.5435 11.2844C24.5435 10.5687 25.091 10.0212 25.8067 10.0212C26.5225 10.0212 27.07 10.5687 27.07 11.2844C27.07 12.0005 26.5225 12.5477 25.8067 12.5477Z" fill="#6133AF"/>
</svg>
