<svg width="20" height="24" viewBox="0 0 20 24" fill="none" xmlns="http://www.w3.org/2000/svg">
<path d="M18.4 3.99999H14.4V3.10482C14.3991 2.2816 14.0717 1.49234 13.4896 0.910353C12.9077 0.328228 12.1184 0.00086857 11.2951 0H7.9048C7.08158 0.000892844 6.29232 0.328214 5.71033 0.910353C5.12821 1.49229 4.80085 2.2816 4.79998 3.10482V3.99999H0.799987C0.514095 3.99999 0.25 4.15249 0.107143 4.39999C-0.0357142 4.64749 -0.0357142 4.95249 0.107143 5.19999C0.25 5.44749 0.514104 5.59999 0.799987 5.59999H1.59999V20.192C1.60106 21.2016 2.00266 22.1696 2.71642 22.8836C3.43034 23.5973 4.39838 23.9989 5.40802 24H13.792C14.8017 23.9989 15.7697 23.5973 16.4836 22.8836C17.1974 22.1696 17.599 21.2016 17.6 20.192V5.59999H18.4C18.6859 5.59999 18.95 5.44749 19.0929 5.19999C19.2358 4.95249 19.2358 4.64749 19.0929 4.39999C18.95 4.15249 18.6859 3.99999 18.4 3.99999H18.4ZM6.39998 3.10482C6.40033 2.70589 6.55909 2.32338 6.84123 2.04123C7.12336 1.75908 7.50586 1.60034 7.90481 1.59998H11.2952C11.6941 1.60034 12.0766 1.75909 12.3587 2.04123C12.6409 2.32337 12.7996 2.70587 12.8 3.10482V3.99999H6.40001L6.39998 3.10482ZM7.99997 18.3999C7.99997 18.6858 7.84748 18.9499 7.59998 19.0927C7.35247 19.2356 7.04747 19.2356 6.79998 19.0927C6.55248 18.9499 6.39998 18.6858 6.39998 18.3999V9.59989C6.39998 9.314 6.55248 9.0499 6.79998 8.90705C7.04748 8.76419 7.35248 8.76419 7.59998 8.90705C7.84747 9.0499 7.99997 9.31401 7.99997 9.59989V18.3999ZM12.8 18.3999C12.8 18.6858 12.6475 18.9499 12.4 19.0927C12.1525 19.2356 11.8475 19.2356 11.6 19.0927C11.3525 18.9499 11.2 18.6858 11.2 18.3999V9.59989C11.2 9.314 11.3525 9.0499 11.6 8.90705C11.8475 8.76419 12.1525 8.76419 12.4 8.90705C12.6475 9.0499 12.8 9.31401 12.8 9.59989V18.3999Z" fill="#DEDEE1"/>
</svg>
