<svg width="81" height="128" viewBox="30 15 83 138" fill="none" xmlns="http://www.w3.org/2000/svg">
<g filter="url(#filter0_d)">
<path d="M108.355 103.294C110.392 49.3525 104.565 20 70.4846 20C36.404 20 30.5769 49.3525 32.6137 103.294H108.355Z" fill="#433A5B"/>
<path d="M80.6805 90.5659H60.2924C48.9374 90.5659 38.8727 95.576 32.6172 103.294C32.7381 106.497 32.8851 109.766 33.0574 113.105H33.0576C33.0574 113.105 107.916 113.105 107.916 113.105H107.916C108.088 109.766 108.235 106.497 108.356 103.294C102.1 95.576 92.0355 90.5659 80.6805 90.5659Z" fill="#281B49"/>
<path fill-rule="evenodd" clip-rule="evenodd" d="M110.97 127H110.944C109.982 138.682 92.2487 147.993 70.5091 148C70.5011 148 70.493 148 70.485 148L70.4849 148H70.4609C48.7213 147.993 30.9881 138.682 30.0261 127H30C30.3777 114.185 37.8505 103.232 48.459 98.2735L91.9091 98C102.836 102.821 110.585 113.944 110.97 127Z" fill="#60B2CC"/>
<path d="M70.4844 108.513L60.5991 95.4009C56.2808 95.4848 52.1774 96.4442 48.459 98.1105C60.5989 131.921 70.4844 108.513 70.4844 108.513Z" fill="#4E98B0"/>
<path d="M70.4844 108.513L80.3696 95.4009C84.6879 95.4848 88.7914 96.4442 92.5098 98.1105C80.3699 131.921 70.4844 108.513 70.4844 108.513Z" fill="#4E98B0"/>
<path d="M60.5996 95.3931C60.5996 95.3931 60.5996 108.513 70.4851 108.513C80.3706 108.513 80.3706 95.3931 80.3706 95.3931H60.5996Z" fill="#FFC4AD"/>
<path d="M57.3818 46.7402C55.9174 49.9526 52.3832 56.143 45.9332 59.0276C45.4492 59.2442 45.1348 59.7214 45.1348 60.2517V67.6299V70.0436C45.1348 84.0438 56.4842 95.393 70.4842 95.393C84.4841 95.393 95.8336 84.0438 95.8336 70.0436V67.6299V58.3423C95.8336 57.5802 95.1999 56.9728 94.4382 57.0025C89.0651 57.2121 69.519 57.1783 59.5997 46.394C58.9447 45.6816 57.7834 45.8594 57.3818 46.7402Z" fill="#FFE0CC"/>
<path d="M70.4842 92.9793C56.4842 92.9793 45.1348 81.6301 45.1348 67.6299V72.4572C45.1348 86.4572 56.4842 97.8066 70.4842 97.8066C84.4841 97.8066 95.8336 86.4574 95.8336 72.4572V67.6299C95.8336 81.6301 84.4841 92.9793 70.4842 92.9793Z" fill="#FFCEB3"/>
<path d="M58.1774 62.6143C57.0642 62.6143 56.1621 63.5164 56.1621 64.6296V70.3234C56.1621 71.4366 57.0642 72.3387 58.1774 72.3387C59.2906 72.3387 60.1927 71.4366 60.1927 70.3234V64.6296C60.193 63.5166 59.2906 62.6143 58.1774 62.6143Z" fill="#281B49"/>
<path d="M82.7917 72.3383C83.9049 72.3383 84.807 71.4361 84.807 70.323V64.6291C84.807 63.5159 83.9049 62.6138 82.7917 62.6138C81.6785 62.6138 80.7764 63.5159 80.7764 64.6291V70.323C80.7761 71.4361 81.6785 72.3383 82.7917 72.3383Z" fill="#281B49"/>
<path d="M77.9049 81.1808L77.9019 81.1795C78.0303 80.9144 78.1044 80.6179 78.1044 80.3034C78.0744 78.0523 74.99 77.5287 74.2013 79.6031L74.197 79.6014C74.1119 79.7806 73.2856 81.3505 70.4839 81.3505C67.6821 81.3505 66.8556 79.7804 66.7708 79.6014L66.7665 79.6031C65.6909 77.0327 61.956 78.6041 63.0659 81.1795L63.0629 81.1808C63.7054 82.7409 65.9913 85.3814 70.4839 85.3814C74.9764 85.3814 77.2627 82.7406 77.9049 81.1808Z" fill="#ED1C70"/>
<path fill-rule="evenodd" clip-rule="evenodd" d="M88.2393 145.779C87.3467 146.016 86.4357 146.235 85.5078 146.437V140.953H88.2393V145.779Z" fill="#3C788B"/>
<path fill-rule="evenodd" clip-rule="evenodd" d="M55.4756 146.44C54.5477 146.239 53.6367 146.019 52.7441 145.783V140.953H55.4756V146.44Z" fill="#3C788B"/>
<path d="M56.1205 128.012V140.89L54.109 143.304L52.0977 140.89V128.012C52.0977 126.899 52.996 126 54.109 126C55.2194 126 56.1205 126.899 56.1205 128.012Z" fill="#4E98B0"/>
<path d="M88.8859 128.012V140.891L86.8746 143.304L84.8633 140.891V128.012C84.8633 126.899 85.7644 126 86.8746 126C87.9875 126 88.8859 126.899 88.8859 128.012Z" fill="#4E98B0"/>
</g>
<defs>
<filter id="filter0_d" x="0" y="0" width="140.97" height="188" filterUnits="userSpaceOnUse" color-interpolation-filters="sRGB">
<feFlood flood-opacity="0" result="BackgroundImageFix"/>
<feColorMatrix in="SourceAlpha" type="matrix" values="0 0 0 0 0 0 0 0 0 0 0 0 0 0 0 0 0 0 127 0"/>
<feOffset dy="10"/>
<feGaussianBlur stdDeviation="15"/>
<feColorMatrix type="matrix" values="0 0 0 0 0 0 0 0 0 0 0 0 0 0 0 0 0 0 0.01 0"/>
<feBlend mode="normal" in2="BackgroundImageFix" result="effect1_dropShadow"/>
<feBlend mode="normal" in="SourceGraphic" in2="effect1_dropShadow" result="shape"/>
</filter>
</defs>
</svg>
