<svg width="17" height="10" viewBox="0 0 17 10" fill="none" xmlns="http://www.w3.org/2000/svg">
<path d="M16.5474 2.6258C17.1509 2.02512 17.1509 1.05121 16.5474 0.450517C15.944 -0.150172 14.9657 -0.150172 14.3622 0.450517L7.40702 7.37419C6.8036 7.97488 6.8036 8.94879 7.40702 9.54948C8.01045 10.1502 8.98879 10.1502 9.59222 9.54948L16.5474 2.6258Z" fill="#DEDEE1"/>
<path d="M2.63776 0.450519C2.03434 -0.15017 1.05599 -0.15017 0.452569 0.450519C-0.150856 1.05121 -0.150856 2.02512 0.452569 2.62581L7.40778 9.54948C8.01121 10.1502 8.98955 10.1502 9.59298 9.54948C10.1964 8.94879 10.1964 7.97488 9.59298 7.37419L2.63776 0.450519Z" fill="#DEDEE1"/>
</svg>
