<svg width="40" height="40" viewBox="0 0 40 40" fill="none" xmlns="http://www.w3.org/2000/svg">
<g clip-path="url(#clip0_4099_23540)">
<path d="M0 34.9219V5.07812C0.037064 4.98202 0.0663249 4.88309 0.0874996 4.78229C0.39375 2.43542 2.03333 0.657292 4.35833 0.153125C4.59687 0.101042 4.83646 0.0489583 5.075 0H34.9187C35.0143 0.0376593 35.1129 0.066936 35.2135 0.0874996C36.3314 0.217617 37.3797 0.697001 38.2094 1.45743C39.039 2.21786 39.6076 3.22059 39.8344 4.32292C39.8875 4.575 39.9385 4.82604 39.9969 5.07812V34.9219C39.9592 35.0174 39.9299 35.1161 39.9094 35.2167C39.7784 36.3344 39.2986 37.3824 38.5381 38.2119C37.7776 39.0414 36.7751 39.6102 35.6729 39.8375C35.4208 39.8906 35.1698 39.9417 34.9187 40H5.07812C4.9829 39.9625 4.88462 39.9332 4.78437 39.9125C3.66672 39.7815 2.61872 39.3019 1.78908 38.5416C0.959445 37.7813 0.390328 36.7791 0.1625 35.6771L0 34.9219Z" fill="#6133AF"/>
<g clip-path="url(#clip1_4099_23540)">
<path d="M31.2511 15.5776C31.6247 16.5031 31.8967 17.4469 31.9726 18.4592C32.1469 20.7776 31.4956 22.8294 30.1059 24.631C28.2456 27.0445 25.7478 28.3771 22.8424 28.9964C21.0024 29.3877 19.1679 29.3679 17.3255 29.0418C16.6943 28.9295 16.1294 29.1417 15.6121 29.4835C14.8898 29.9591 14.1594 30.4107 13.3483 30.722C13.0723 30.8269 12.802 30.9474 12.5058 30.9805L12.4291 30.9945L12.2677 31.0044C12.0804 30.8261 12.2919 30.7435 12.3637 30.6477C12.7075 30.1944 13.1345 29.8088 13.4024 29.2944C13.9504 28.662 13.8592 27.899 13.1458 27.487C12.5406 27.148 11.9538 26.7756 11.388 26.3716C9.89496 25.072 8.83934 23.4817 8.32848 21.5348C7.60214 18.7713 8.08637 16.2199 9.7271 13.9171C11.2605 11.7704 13.3588 10.4419 15.8042 9.65751C17.9291 8.97349 20.184 8.82367 22.3776 9.22073C25.7979 9.82264 28.6653 11.3914 30.6345 14.4241C30.871 14.7874 31.0469 15.1895 31.2511 15.5776Z" fill="#FDFEFD"/>
</g>
</g>
<defs>
<clipPath id="clip0_4099_23540">
<rect width="40" height="40" fill="white"/>
</clipPath>
<clipPath id="clip1_4099_23540">
<rect width="24" height="22" fill="white" transform="translate(8 9)"/>
</clipPath>
</defs>
</svg>
