<svg width="40" height="40" viewBox="0 0 40 40" fill="none" xmlns="http://www.w3.org/2000/svg">
<g clip-path="url(#clip0_4099_23537)">
<path d="M0 34.9219V5.07812C0.037064 4.98202 0.0663249 4.88309 0.0874996 4.78229C0.39375 2.43542 2.03333 0.657292 4.35833 0.153125C4.59687 0.101042 4.83646 0.0489583 5.075 0H34.9187C35.0143 0.0376593 35.1129 0.066936 35.2135 0.0874996C36.3314 0.217617 37.3797 0.697001 38.2094 1.45743C39.039 2.21786 39.6076 3.22059 39.8344 4.32292C39.8875 4.575 39.9385 4.82604 39.9969 5.07812V34.9219C39.9592 35.0174 39.9299 35.1161 39.9094 35.2167C39.7784 36.3344 39.2986 37.3824 38.5381 38.2119C37.7776 39.0414 36.7751 39.6102 35.6729 39.8375C35.4208 39.8906 35.1698 39.9417 34.9187 40H5.07812C4.9829 39.9625 4.88462 39.9332 4.78437 39.9125C3.66672 39.7815 2.61872 39.3019 1.78908 38.5416C0.959445 37.7813 0.390328 36.7791 0.1625 35.6771L0 34.9219ZM20.0219 7.40729C19.2115 7.51146 18.3927 7.56354 17.5927 7.71979C12.1448 8.77083 7.79271 13.4542 7.56771 19.526C7.49375 21.5198 7.91771 23.4219 8.75625 25.2344C8.84207 25.4308 8.8685 25.6481 8.83229 25.8594C8.44479 27.8198 8.03125 29.774 7.63854 31.7333C7.51146 32.3656 7.79375 32.6229 8.41667 32.475C10.3104 32.026 12.2021 31.5688 14.099 31.1354C14.3319 31.0864 14.5741 31.1093 14.7937 31.201C17.151 32.2427 19.5854 32.5865 22.1396 32.1385C28.95 30.949 33.4937 24.4302 32.2198 17.6417C31.6894 14.7856 30.1826 12.2029 27.9572 10.3358C25.7319 8.46865 22.9266 7.43338 20.0219 7.40729Z" fill="#6133AF"/>
<path d="M11.0239 28.9808C11.2604 27.835 11.475 26.7538 11.7104 25.6788C11.8028 25.3428 11.7594 24.984 11.5896 24.6798C11.04 23.7051 10.6623 22.6431 10.4729 21.5402C10.1432 19.6436 10.3881 17.6917 11.1763 15.9354C11.9644 14.179 13.2598 12.6985 14.8958 11.684C20.5917 8.10481 28.25 11.4444 29.501 18.0517C30.5094 23.3819 26.9812 28.5204 21.6771 29.4184C19.5083 29.785 17.4281 29.4694 15.4823 28.4288C15.2724 28.3073 15.0397 28.2306 14.7988 28.2035C14.5578 28.1764 14.3138 28.1996 14.0823 28.2715C13.1948 28.5183 12.2917 28.7069 11.3958 28.9173C11.2969 28.9402 11.1958 28.9517 11.0239 28.9808ZM23.4198 25.96C24.4198 26.0288 25.3375 25.5517 26.0521 24.6413C26.1802 24.4777 26.3083 24.3131 26.425 24.1413C26.926 23.4017 26.6896 22.734 25.8396 22.4902C25.3406 22.3486 24.8187 22.2631 24.3448 22.0642C23.4656 21.6944 22.7823 21.8454 22.1854 22.6069C21.8521 23.0309 21.499 23.0704 21.0396 22.8152C19.5291 21.9608 18.2139 20.8003 17.1781 19.4079C16.8656 18.9913 16.901 18.6788 17.2062 18.2621C17.3604 18.0538 17.576 17.8684 17.6635 17.6371C17.7677 17.3631 17.8719 17.0121 17.776 16.759C17.4812 15.9559 17.1156 15.1777 16.7417 14.4069C16.6872 14.28 16.6034 14.1677 16.4972 14.0794C16.391 13.991 16.2654 13.9291 16.1307 13.8986C15.9959 13.8681 15.8559 13.87 15.722 13.904C15.5881 13.938 15.4642 14.0033 15.3604 14.0944C15.0307 14.3682 14.7266 14.6716 14.4521 15.0006C13.9462 15.5732 13.6844 16.3209 13.7229 17.084C13.7542 18.0762 14.0455 19.0428 14.5677 19.8871C15.9896 22.2194 17.9437 23.9944 20.3635 25.2475C21.3056 25.738 22.3558 25.9838 23.4177 25.9621L23.4198 25.96Z" fill="#6133AF"/>
</g>
<defs>
<clipPath id="clip0_4099_23537">
<rect width="40" height="40" fill="white"/>
</clipPath>
</defs>
</svg>
