<svg width="33" height="33" viewBox="0 0 33 33" fill="none" xmlns="http://www.w3.org/2000/svg">
<path d="M27.8667 16.4996C27.8674 17.31 27.2114 17.9663 26.4004 17.9663H16.5037C16.5026 17.9663 16.5011 17.9667 16.5 17.9667C15.69 17.9667 15.0333 17.31 15.0333 16.5V6.6C15.0333 5.79003 15.69 5.13333 16.5 5.13333C17.31 5.13333 17.9667 5.79003 17.9667 6.6V15.0333H26.4004V15.0341C27.2107 15.0352 27.8667 15.69 27.8667 16.4996ZM16.5 30.0667C15.69 30.0667 15.0333 30.7234 15.0333 31.5333C15.0333 32.3433 15.69 33 16.5 33C17.31 33 17.9667 32.3433 17.9667 31.5333C17.9667 30.7234 17.31 30.0667 16.5 30.0667ZM0 16.5C0 17.3103 0.6567 17.967 1.4674 17.967C2.27663 17.9659 2.93333 17.3103 2.93333 16.5004C2.93443 15.6897 2.27663 15.033 1.46703 15.033C0.657434 15.033 0.000733333 15.6897 0 16.5ZM33 16.4996C32.9996 7.38687 25.6128 0 16.5 0C15.69 0 15.0333 0.6567 15.0333 1.46667C15.0333 2.27663 15.69 2.93333 16.5 2.93333C16.5011 2.93333 16.5018 2.93297 16.5029 2.93297C23.9932 2.93443 30.0652 9.0079 30.0652 16.4996H30.0667C30.0685 17.3103 30.7241 17.9659 31.5337 17.9659C32.3448 17.9663 33.0004 17.3103 33 16.4996C33 16.5 33 16.5 33 16.4996ZM8.25 2.21063C7.54857 2.61543 7.3084 3.51267 7.7132 4.21447C8.11837 4.91627 9.01523 5.15643 9.71703 4.75127C10.4181 4.34647 10.6586 3.44923 10.2538 2.7478C9.84903 2.04637 8.95143 1.80547 8.25 2.21063ZM23.2833 28.2491C22.5819 28.6539 22.3417 29.5511 22.7465 30.2529C23.1513 30.954 24.0486 31.1945 24.75 30.7894C25.4514 30.3846 25.692 29.4873 25.2868 28.7863C24.882 28.0845 23.9848 27.8439 23.2833 28.2491ZM2.21027 24.75C2.61543 25.4518 3.51303 25.6923 4.21483 25.2872C4.91517 24.8813 5.1557 23.9851 4.75127 23.2837C4.34647 22.5808 3.4485 22.341 2.74743 22.7458C2.04637 23.1506 1.8062 24.0478 2.21027 24.75ZM2.21063 8.25C1.80583 8.95143 2.046 9.84867 2.74743 10.2538C3.44923 10.6586 4.34573 10.4185 4.75127 9.71703C5.15607 9.0156 4.9159 8.11873 4.21447 7.71357C3.51303 7.3084 2.6158 7.54857 2.21063 8.25ZM28.2491 23.2833C27.8443 23.9848 28.0848 24.8816 28.7863 25.2872C29.4877 25.692 30.3846 25.4518 30.7897 24.75C31.1945 24.0489 30.9544 23.1517 30.2526 22.7469C29.5515 22.3417 28.6539 22.5819 28.2491 23.2833ZM8.24963 30.7897C8.9518 31.1945 9.84903 30.9547 10.2542 30.2526C10.6583 29.5508 10.4181 28.6546 9.71703 28.2491C9.01523 27.8432 8.118 28.0845 7.71283 28.7855C7.3084 29.4866 7.54857 30.3835 8.24963 30.7897Z" fill="white"/>
</svg>
