<svg width="15" height="15" viewBox="0 0 15 15" fill="none" xmlns="http://www.w3.org/2000/svg">
<path d="M6.38979 2.01484C6.77553 1.35257 7.73228 1.35257 8.11802 2.01484L9.45673 4.31327C9.59804 4.55587 9.83481 4.7279 10.1092 4.78732L12.7088 5.35026C13.4579 5.51246 13.7535 6.42239 13.2429 6.9939L11.4706 8.97734C11.2836 9.1867 11.1931 9.46505 11.2214 9.74437L11.4893 12.3907C11.5666 13.1532 10.7925 13.7156 10.0912 13.4065L7.65715 12.3339C7.40024 12.2207 7.10757 12.2207 6.85066 12.3339L4.41663 13.4065C3.71529 13.7156 2.94126 13.1532 3.01847 12.3907L3.28641 9.74437C3.31469 9.46505 3.22425 9.1867 3.03719 8.97734L1.26493 6.9939C0.754278 6.42239 1.04993 5.51246 1.79898 5.35026L4.39861 4.78732C4.673 4.7279 4.90978 4.55587 5.05108 4.31327L6.38979 2.01484Z" stroke="#ED1C70" stroke-width="1.35"/>
</svg>
