<svg width="14" height="12" viewBox="0 0 14 12" fill="none" xmlns="http://www.w3.org/2000/svg">
<path d="M13.2412 6.59766H9.72134" stroke="#ED1C70" stroke-width="1.35" stroke-linecap="round" stroke-linejoin="round"/>
<path d="M13.2412 1.87891H9.72134" stroke="#ED1C70" stroke-width="1.35" stroke-linecap="round" stroke-linejoin="round"/>
<path d="M13.2412 11.3184L1.34701 11.3184" stroke="#ED1C70" stroke-width="1.35" stroke-linecap="round" stroke-linejoin="round"/>
<path d="M7.00775 8.24558V7.53807C7.00775 7.16278 6.85866 6.80287 6.5933 6.5375C6.32793 6.27213 5.96801 6.12305 5.59272 6.12305H2.76268C2.38739 6.12305 2.02747 6.27213 1.76211 6.5375C1.49674 6.80287 1.34766 7.16278 1.34766 7.53807V8.24558" stroke="#ED1C70" stroke-width="1.2" stroke-linecap="round" stroke-linejoin="round"/>
<path d="M4.17772 4.70895C4.95921 4.70895 5.59274 4.07542 5.59274 3.29393C5.59274 2.51243 4.95921 1.87891 4.17772 1.87891C3.39622 1.87891 2.7627 2.51243 2.7627 3.29393C2.7627 4.07542 3.39622 4.70895 4.17772 4.70895Z" stroke="#ED1C70" stroke-width="1.2" stroke-linecap="round" stroke-linejoin="round"/>
<mask id="path-6-inside-1" fill="white">
<path fill-rule="evenodd" clip-rule="evenodd" d="M4.17733 2.46753L7.70129 1.57557L4.17728 0.683594V0.684487L0.65332 1.57645L4.17733 2.46842V2.46753Z"/>
</mask>
<path d="M7.70129 1.57557L7.94667 2.545V0.60614L7.70129 1.57557ZM4.17733 2.46753L3.93196 1.4981L3.17733 1.68911V2.46753H4.17733ZM4.17728 0.683594L4.42266 -0.285834L3.17728 -0.601055V0.683594H4.17728ZM4.17728 0.684487L4.42266 1.65392L5.17728 1.46291V0.684487H4.17728ZM0.65332 1.57645L0.407945 0.60702L0.407945 2.54588L0.65332 1.57645ZM4.17733 2.46842L3.93196 3.43785L5.17733 3.75307V2.46842H4.17733ZM7.45592 0.60614L3.93196 1.4981L4.42271 3.43696L7.94667 2.545L7.45592 0.60614ZM3.9319 1.65302L7.45592 2.545L7.94667 0.60614L4.42266 -0.285834L3.9319 1.65302ZM5.17728 0.684487V0.683594H3.17728V0.684487H5.17728ZM0.898695 2.54588L4.42266 1.65392L3.9319 -0.284941L0.407945 0.60702L0.898695 2.54588ZM4.42271 1.49899L0.898695 0.60702L0.407945 2.54588L3.93196 3.43785L4.42271 1.49899ZM3.17733 2.46753V2.46842H5.17733V2.46753H3.17733Z" fill="#ED1C70" mask="url(#path-6-inside-1)"/>
</svg>
