<svg width="14" height="14" viewBox="0 0 14 14" fill="none" xmlns="http://www.w3.org/2000/svg">
<path d="M1.72387 6.50393L1.72384 6.50396L1.71791 6.49934C1.35493 6.21704 1.27054 5.71945 1.47811 5.33826L1.48394 5.32757L1.49015 5.31711L2.57605 3.48941C2.82334 3.06367 3.30879 2.96339 3.6705 3.08061L3.6888 3.08654L3.70673 3.09355L4.73955 3.49721C4.87155 3.41353 5.00778 3.33617 5.14941 3.26542L5.302 2.21708L5.30198 2.21707L5.30283 2.21159C5.37605 1.737 5.7869 1.43594 6.21721 1.43594H8.39314C8.84383 1.43594 9.23051 1.7565 9.30072 2.21159L9.30075 2.21158L9.30155 2.21708L9.45424 3.26611C9.59615 3.33735 9.7324 3.41503 9.863 3.4976L10.8968 3.09355L10.8968 3.09351L10.9036 3.09096C11.3112 2.93686 11.7934 3.08676 12.0275 3.48935L13.1134 5.31711L13.1135 5.31706L13.1189 5.32662C13.3422 5.7173 13.2594 6.22224 12.876 6.5067L12.0268 7.15153C12.032 7.22471 12.035 7.2994 12.035 7.37451C12.035 7.44675 12.033 7.52019 12.029 7.59394L12.8865 8.2451L12.8865 8.24506L12.8924 8.24968C13.2554 8.53199 13.3398 9.02958 13.1322 9.41077L13.1264 9.42145L13.1202 9.43192L12.0343 11.2596C11.787 11.6853 11.3016 11.7856 10.9399 11.6684L10.9215 11.6625L10.9036 11.6555L9.8708 11.2518C9.7388 11.3355 9.60257 11.4129 9.46094 11.4836L9.30835 12.5319L9.30562 12.5507L9.30179 12.5693C9.21487 12.9918 8.8496 13.3131 8.39314 13.3131H6.21721C5.79981 13.3131 5.36769 13.0201 5.30737 12.5221L5.15611 11.4829C5.0142 11.4117 4.87795 11.334 4.74735 11.2514L3.71353 11.6555L3.71354 11.6555L3.70678 11.6581C3.2992 11.8122 2.81692 11.6623 2.58289 11.2597L1.49695 9.43192L1.49687 9.43197L1.49141 9.4224C1.26853 9.03238 1.35071 8.52846 1.7324 8.24375L2.58083 7.59178C2.57729 7.52091 2.57532 7.44845 2.57532 7.37451C2.57532 7.3008 2.57728 7.22762 2.58124 7.15497L1.72387 6.50393ZM7.30517 8.70773C8.08555 8.70773 8.6951 8.08914 8.6951 7.37451C8.6951 6.65988 8.08555 6.0413 7.30517 6.0413C6.5248 6.0413 5.91525 6.65988 5.91525 7.37451C5.91525 8.08914 6.5248 8.70773 7.30517 8.70773Z" stroke="#ED1C70" stroke-width="1.3"/>
</svg>
