<svg width="15" height="16" viewBox="0 0 15 16" fill="none" xmlns="http://www.w3.org/2000/svg">
<path d="M7.50391 14.875C11.1628 14.875 14.1289 11.9089 14.1289 8.25C14.1289 4.59111 11.1628 1.625 7.50391 1.625C3.84502 1.625 0.878906 4.59111 0.878906 8.25C0.878906 11.9089 3.84502 14.875 7.50391 14.875Z" stroke="black" stroke-width="1.35" stroke-linecap="round" stroke-linejoin="round"/>
<path d="M5.5752 6.2625C5.73095 5.81973 6.03838 5.44637 6.44304 5.20855C6.8477 4.97073 7.32346 4.8838 7.78607 4.96315C8.24869 5.0425 8.66829 5.28301 8.97056 5.64209C9.27283 6.00116 9.43827 6.45563 9.43757 6.925C9.43757 8.25 7.45007 8.9125 7.45007 8.9125" stroke="black" stroke-width="1.35" stroke-linecap="round" stroke-linejoin="round"/>
<path d="M7.50391 11.5625H7.51003" stroke="black" stroke-width="1.35" stroke-linecap="round" stroke-linejoin="round"/>
</svg>
