<svg width="16" height="16" viewBox="0 0 16 16" fill="none" xmlns="http://www.w3.org/2000/svg">
<path d="M7.02669 2.41765H2.33926C1.98407 2.41765 1.64342 2.55875 1.39226 2.80991C1.1411 3.06107 1 3.40172 1 3.75692V13.1318C1 13.487 1.1411 13.8276 1.39226 14.0788C1.64342 14.3299 1.98407 14.471 2.33926 14.471H11.7141C12.0693 14.471 12.41 14.3299 12.6611 14.0788C12.9123 13.8276 13.0534 13.487 13.0534 13.1318V8.44434" stroke="black" stroke-width="1.35" stroke-linecap="round" stroke-linejoin="round"/>
<path d="M12.0468 1.4132C12.3132 1.14681 12.6745 0.997147 13.0512 0.997147C13.428 0.997147 13.7893 1.14681 14.0557 1.4132C14.3221 1.6796 14.4717 2.04091 14.4717 2.41765C14.4717 2.79439 14.3221 3.1557 14.0557 3.4221L7.69415 9.78361L5.01562 10.4532L5.68526 7.77471L12.0468 1.4132Z" stroke="black" stroke-width="1.35" stroke-linecap="round" stroke-linejoin="round"/>
</svg>
