<svg width="19" height="17" viewBox="0 0 19 17" fill="none" xmlns="http://www.w3.org/2000/svg">
<path fill-rule="evenodd" clip-rule="evenodd" d="M15.0223 0H3.94526C1.76399 0 0 1.76399 0 3.94526V9.46483C0 11.6651 1.76399 13.4291 3.96423 13.4291C4.51429 13.4291 4.95054 13.8653 4.95054 14.4154V16.2173C4.95054 16.9191 5.80408 17.2605 6.29724 16.7673L9.18031 13.9032C9.48379 13.5998 9.88211 13.448 10.2994 13.448H15.0223C17.2036 13.448 18.9676 11.684 18.9676 9.50276V3.94526C18.9676 1.76399 17.2036 0 15.0223 0ZM5.53854 7.89052C4.89364 7.89052 4.34358 7.35942 4.34358 6.71453C4.34358 6.06963 4.87467 5.53854 5.53854 5.53854C6.18343 5.53854 6.71453 6.06963 6.71453 6.71453C6.71453 7.35942 6.18343 7.89052 5.53854 7.89052ZM9.48379 7.89052C8.8389 7.89052 8.28884 7.35942 8.28884 6.71453C8.28884 6.06963 8.81993 5.53854 9.48379 5.53854C10.1287 5.53854 10.6598 6.06963 10.6598 6.71453C10.6598 7.35942 10.1287 7.89052 9.48379 7.89052ZM13.4291 7.89052C12.7842 7.89052 12.2341 7.35942 12.2341 6.71453C12.2341 6.06963 12.7652 5.53854 13.4291 5.53854C14.074 5.53854 14.605 6.06963 14.605 6.71453C14.605 7.35942 14.0929 7.89052 13.4291 7.89052Z" fill="#6133AF"/>
</svg>
