<svg width="16" height="17" viewBox="0 0 16 17" fill="none" xmlns="http://www.w3.org/2000/svg">
<path fill-rule="evenodd" clip-rule="evenodd" d="M15.5132 7.79061C15.5132 7.3998 15.3773 7.009 15.0885 6.72014L8.8016 0.433283C8.22389 -0.144428 7.28935 -0.144428 6.71164 0.433283L0.424788 6.72014C0.135932 7.009 0 7.3998 0 7.79061V15.5217C0 16.3373 0.662669 17 1.47826 17H3.68716C4.50275 17 5.16542 16.3373 5.16542 15.5217V11.07C5.16542 10.2544 5.82809 9.5917 6.64368 9.5917H8.85257C9.66817 9.5917 10.3308 10.2544 10.3308 11.07V15.5047C10.3308 16.3203 10.9935 16.983 11.8091 16.983H14.018C14.8336 16.983 15.4963 16.3203 15.4963 15.5047C15.5302 15.5047 15.5132 7.79061 15.5132 7.79061Z" fill="#7048E8"/>
</svg>
