<svg width="19" height="17" viewBox="0 0 19 17" fill="none" xmlns="http://www.w3.org/2000/svg">
<path fill-rule="evenodd" clip-rule="evenodd" d="M9.50681 6.30928C9.7193 6.30928 9.8917 6.48168 9.8917 6.69417C9.8917 6.90667 9.7193 7.07906 9.50681 7.07906C9.29431 7.07906 9.12192 6.90667 9.12192 6.69417C9.12192 6.48168 9.29431 6.30928 9.50681 6.30928Z" fill="#6133AF"/>
<path fill-rule="evenodd" clip-rule="evenodd" d="M11.2028 3.72564C11.2028 3.41703 10.8942 3.41703 10.5854 3.72564V4.34308L9.65936 6.1954L11.2028 4.34308V3.72564Z" fill="#6133AF"/>
<path fill-rule="evenodd" clip-rule="evenodd" d="M7.81095 3.72564C7.81095 3.41703 8.11955 3.41703 8.42839 3.72564V4.34308L9.35443 6.1954L7.81095 4.34308V3.72564Z" fill="#6133AF"/>
<path fill-rule="evenodd" clip-rule="evenodd" d="M9.04375 7.30447H9.9698V9.15675H9.04375V7.30447Z" fill="#6133AF"/>
<path fill-rule="evenodd" clip-rule="evenodd" d="M9.04375 9.59124H9.9698V14.7036H9.04375V9.59124Z" fill="#6133AF"/>
<path fill-rule="evenodd" clip-rule="evenodd" d="M8.73495 7.43027C6.26519 2.79958 3.79566 -0.28741 0.399843 0.0212152C-0.835039 0.32982 1.01728 8.04747 2.86961 8.04747H7.8089C4.41309 8.6649 2.25216 9.28235 1.6347 10.5172C1.32609 12.0607 2.86958 14.8391 4.72167 17C7.19143 14.8391 9.04356 12.0609 8.73495 7.43027ZM7.19147 10.8258C7.19147 12.6782 6.26542 13.6042 5.33915 14.5303C5.03054 13.6042 4.10427 12.3693 4.72171 12.0605L7.19147 10.8258ZM6.57403 6.19539C5.33915 3.72563 4.10427 2.49098 2.56078 2.49098C1.63474 2.49098 1.94334 3.72586 2.86939 5.88679L6.57403 6.19539Z" fill="#6133AF"/>
<path fill-rule="evenodd" clip-rule="evenodd" d="M10.2787 7.43027C12.7484 2.79958 15.218 -0.28741 18.3049 0.0212152C19.8484 0.32982 17.9963 8.04747 16.144 8.04747H11.2047C14.2917 8.6649 16.7614 9.28235 17.3789 10.5172C17.6875 12.0607 16.144 14.8391 14.2919 17C11.8222 14.8391 9.97006 12.0609 10.2787 7.43027ZM11.8221 10.8258C11.8221 12.6782 12.7482 13.6042 13.6745 14.5303C13.9831 13.6042 14.9093 12.3693 14.2919 12.0605L11.8221 10.8258ZM12.4396 6.19539C13.6745 3.72563 14.9093 2.49098 16.4528 2.49098C17.3789 2.49098 17.0703 3.72586 16.1442 5.88679L12.4396 6.19539Z" fill="#6133AF"/>
</svg>
