<svg width="18" height="17" viewBox="0 0 18 17" fill="none" xmlns="http://www.w3.org/2000/svg">
<path d="M12.7628 4.93051L16.5952 5.48282C17.6819 5.63937 18.1173 6.97424 17.3321 7.74147L14.5626 10.4473C14.2507 10.752 14.1089 11.1906 14.183 11.6202L14.842 15.4356C15.0288 16.5175 13.8941 17.3441 12.9216 16.8344L9.49238 15.0369C9.10618 14.8345 8.64508 14.8349 8.25948 15.0382L4.83447 16.8442C3.86329 17.3562 2.7264 16.5323 2.91063 15.4499L3.56054 11.633C3.63364 11.2031 3.49083 10.7647 3.17812 10.4608L0.402619 7.76158C-0.384521 6.99615 0.0476887 5.66029 1.13419 5.50114L4.96512 4.93987C5.39654 4.87673 5.76919 4.60525 5.9616 4.21407L7.67112 0.739862C8.15591 -0.245258 9.5599 -0.247051 10.0469 0.737074L11.7646 4.2071C11.958 4.59769 12.3312 4.86836 12.7628 4.93051Z" fill="white"/>
</svg>
