<svg width="16" height="17" viewBox="0 0 16 17" fill="none" xmlns="http://www.w3.org/2000/svg">
<path d="M2.89973 0H12.5655C13.3346 0 14.0721 0.305507 14.6159 0.849312C15.1597 1.39312 15.4652 2.13068 15.4652 2.89973V10.6324C15.4652 11.4014 15.1597 12.139 14.6159 12.6828C14.0721 13.2266 13.3346 13.5321 12.5655 13.5321H7.73262L4.54979 16.7149C4.46169 16.8051 4.35647 16.8768 4.2403 16.9257C4.12413 16.9747 3.99935 16.9999 3.87329 17C3.74558 17.001 3.61894 16.9767 3.50069 16.9284C3.38245 16.8802 3.27494 16.8089 3.1844 16.7189C3.09386 16.6288 3.02208 16.5217 2.97322 16.4037C2.92436 16.2857 2.89938 16.1592 2.89973 16.0315V13.5321C2.13068 13.5321 1.39312 13.2266 0.849312 12.6828C0.305507 12.139 0 11.4014 0 10.6324V2.89973C0 2.13068 0.305507 1.39312 0.849312 0.849312C1.39312 0.305507 2.13068 0 2.89973 0Z" fill="white"/>
</svg>
