<svg width="17" height="17" viewBox="0 0 17 17" fill="none" xmlns="http://www.w3.org/2000/svg">
<path d="M11.7585 12.9245L10.0195 14.0622C9.8833 14.1508 9.7263 14.1977 9.56557 14.1977C9.41972 14.1977 9.27611 14.1582 9.15035 14.0861C8.8795 13.929 8.721 13.6366 8.73812 13.3233L8.8542 11.2495C8.86164 11.12 8.89959 10.992 8.96358 10.8819L13.1023 3.71387V0.603475C13.1023 0.272345 12.8315 0 12.4996 0H1.82903C1.49715 0 1.2263 0.271601 1.2263 0.603475V1.63407H0.451676C0.202399 1.63407 0 1.83573 0 2.08575C0 2.33577 0.202399 2.53742 0.451676 2.53742H1.2263V4.8412H0.451676C0.202399 4.8412 0 5.04285 0 5.29287C0 5.5429 0.202399 5.74455 0.451676 5.74455H1.2263V8.04832H0.451676C0.202399 8.04832 0 8.24998 0 8.5C0 8.75002 0.202399 8.95168 0.451676 8.95168H1.2263V11.2554H0.451676C0.202399 11.2554 0 11.4571 0 11.7071C0 11.9557 0.202399 12.1588 0.451676 12.1588H1.2263V14.4626H0.451676C0.202399 14.4626 0 14.6642 0 14.9143C0 15.1628 0.202399 15.3659 0.451676 15.3659H1.2263V16.3965C1.2263 16.7277 1.49715 17 1.82903 17H12.5003C12.8315 17 13.1031 16.7284 13.1031 16.3965V10.7703L12.0211 12.644C11.9571 12.7578 11.8664 12.8538 11.7585 12.9245ZM4.18043 2.08575H10.149V4.77572H4.18043V2.08575Z" fill="white"/>
<path d="M16.2001 6.06675C16.174 5.96927 16.1108 5.88816 16.0245 5.83682L15.4485 5.5042L15.8057 4.88659C15.8682 4.77869 15.831 4.63954 15.7231 4.57704L15.488 4.44161L15.8444 3.824C16.0274 3.507 15.9188 3.09997 15.6011 2.91692C15.2833 2.73387 14.8763 2.84251 14.6932 3.1595L14.3368 3.77712L14.1017 3.6402C14.0496 3.60969 13.9878 3.60225 13.9305 3.61862C13.8725 3.6335 13.8234 3.6722 13.7936 3.72354L9.61989 10.9526L11.6327 12.1142L15.072 6.15828L15.322 6.30189L13.5384 9.39145C13.4342 9.57152 13.496 9.80294 13.6768 9.90563C13.7363 9.9406 13.8011 9.95623 13.8643 9.95623C13.9945 9.95623 14.121 9.88926 14.191 9.76722L16.1629 6.35026C16.2127 6.26543 16.2254 6.162 16.2001 6.06675Z" fill="white"/>
<path d="M9.45321 13.5644C9.48818 13.5845 9.52762 13.5949 9.56631 13.5949C9.60947 13.5949 9.65263 13.5815 9.69058 13.5585L11.0672 12.6574L9.43312 11.7138L9.34085 13.3561C9.33564 13.4409 9.3788 13.522 9.45321 13.5644Z" fill="white"/>
</svg>
