<svg width="24" height="18" viewBox="0 0 24 18" fill="none" xmlns="http://www.w3.org/2000/svg">
<path d="M12.728 10.9187C12.4194 11.0283 12.1075 11.0513 11.8993 11.0513C11.691 11.0513 11.3799 11.0283 11.0706 10.9187L5.66405 8.98846L5.09968 8.78618C5.09968 9.65907 5.09968 10.8201 5.09968 11.9862C5.09968 14.3338 8.14419 15.386 11.8993 15.386C15.6543 15.386 18.6988 14.3338 18.6988 11.9862V8.78618L12.728 10.9187Z" fill="white"/>
<path d="M2.76233 13.749C3.46645 13.749 4.03725 13.1782 4.03725 12.4741C4.03725 11.77 3.46645 11.1992 2.76233 11.1992C2.05821 11.1992 1.48741 11.77 1.48741 12.4741C1.48741 13.1782 2.05821 13.749 2.76233 13.749Z" fill="white"/>
<path d="M2.76233 17.9987C2.39855 17.9987 2.06027 17.9418 1.77894 17.8687C1.32422 17.7514 0.884795 17.4012 0.884795 16.734C0.884795 15.4362 1.42281 13.7932 2.76233 12.8991C4.10184 13.7932 4.63986 15.4353 4.63986 16.734C4.63986 17.4012 4.19959 17.7514 3.74572 17.8687C3.46438 17.9418 3.1261 17.9987 2.76233 17.9987Z" fill="white"/>
<path d="M3.39979 12.0491H2.12487V10.7113C2.12487 9.64462 2.12997 8.15211 3.1601 7.18997L0.400325 6.20404C0.135142 6.10969 0 5.91845 0 5.63627V5.58357C0 5.30224 0.135142 5.11016 0.400325 5.01581L11.357 1.10265C11.7454 0.964113 12.0539 0.964113 12.4424 1.10265L23.399 5.01581C23.6634 5.111 23.7985 5.30309 23.7985 5.58442V5.63712C23.7985 5.9193 23.6634 6.11054 23.3982 6.20489L12.4415 10.118C12.2469 10.1869 12.0386 10.2022 11.8984 10.2022C11.7582 10.2022 11.5499 10.1869 11.3553 10.118L5.94963 8.18611L12.042 6.01025C12.263 5.9312 12.3786 5.68812 12.2996 5.46713C12.2205 5.24615 11.9809 5.13055 11.7573 5.2096L4.68746 7.73479C3.49158 8.16316 3.39979 9.23835 3.39979 10.7113V12.0491Z" fill="white"/>
</svg>
