<svg width="16" height="18" viewBox="0 0 16 18" fill="none" xmlns="http://www.w3.org/2000/svg">
<path d="M15.7992 3.70266C15.6725 3.6069 15.511 3.58494 15.3684 3.64524L8.48298 6.54269C8.18366 6.66923 7.80896 6.73025 7.42407 6.73025C6.88748 6.73169 6.33219 6.61019 5.94526 6.44477C5.80671 6.38735 5.69113 6.32273 5.60945 6.26513C5.63946 6.25091 5.67354 6.23597 5.71355 6.22085L11.9774 3.5862L12.9122 3.97482V2.83938C12.9122 2.67036 12.8385 2.51016 12.7118 2.41566C12.5849 2.31991 12.4228 2.29795 12.2817 2.35824L5.38997 5.25533C5.1777 5.33921 4.99526 5.44091 4.84041 5.59013C4.68872 5.73431 4.55758 5.97245 4.55962 6.23687C4.55962 6.24407 4.56166 6.25577 4.56166 6.25577V16.4583C4.56166 16.4623 4.56036 16.4671 4.56036 16.4718C4.56036 16.4752 4.56166 16.4765 4.56166 16.4799V16.4909H4.56314C4.57851 16.8521 4.76281 17.0827 4.93969 17.235C5.4961 17.7116 6.42998 17.9784 7.42295 18C7.89342 18 8.37129 17.9276 8.81248 17.7464L15.6994 14.8459C15.8816 14.7735 16 14.5807 16 14.3691V4.1271C15.9996 3.95826 15.9246 3.79842 15.7992 3.70266Z" fill="white"/>
<path d="M11.4323 1.76299C11.4198 1.61017 11.3558 1.46599 11.2387 1.37815C11.1127 1.28239 10.9505 1.26043 10.8071 1.32073L3.92227 4.218C3.62295 4.34382 3.24751 4.40574 2.86318 4.40574C2.32659 4.40646 1.77111 4.28496 1.38418 4.11972C1.24675 4.06284 1.13043 3.99822 1.04856 3.9408C1.07857 3.92622 1.11339 3.91164 1.15266 3.89652L7.41573 1.26169L8.34925 1.65031V0.514877C8.34925 0.345857 8.27368 0.185838 8.14698 0.0911585C8.0214 -0.00460107 7.85674 -0.026921 7.71505 0.0337388L0.82963 2.93083C0.617366 3.01399 0.435664 3.11587 0.280819 3.26563C0.128382 3.40981 -0.00201388 3.64794 2.35594e-05 3.91272C2.35594e-05 3.9201 0.00206099 3.93126 0.00206099 3.93126V14.1342C0.00206099 14.1381 0.00132011 14.1437 0.00132011 14.1477C0.00132011 14.1504 0.00206099 14.1516 0.00206099 14.1624V14.1759H0.00335754C0.0183605 14.5372 0.203211 14.7678 0.379913 14.9181C0.936317 15.3949 1.8702 15.6534 2.86373 15.6777C3.13175 15.6777 3.40106 15.6438 3.6663 15.5952V6.25847C3.65926 5.77356 3.85874 5.30808 4.20955 4.97292C4.43682 4.75476 4.71409 4.58232 5.05768 4.4493L11.4323 1.76299Z" fill="white"/>
</svg>
