<?xml version="1.0" encoding="utf-8"?>
<!-- Generator: Adobe Illustrator 19.0.0, SVG Export Plug-In . SVG Version: 6.00 Build 0)  -->
<svg version="1.1" id="Layer_1" xmlns="http://www.w3.org/2000/svg" xmlns:xlink="http://www.w3.org/1999/xlink" x="0px" y="0px"
	 viewBox="-179.5 403.9 40.2 36" style="enable-background:new -179.5 403.9 40.2 36;" xml:space="preserve">
<style type="text/css">
	.st0{fill:#281A49;}
	 @media (prefers-color-scheme: dark) {
      .st0{fill:#ffffff;}
    }
</style>
<path class="st0" d="M-167.2,422.1c0.2,0,0.5-0.1,0.8-0.2c0.7-0.2,1.4-0.4,2.1-0.5c0.1,0,0.1-0.1,0.2-0.1c0-0.1,0-0.1-0.1-0.2
	c-1.2-1-2.5-1.8-3.9-2.4c-0.5-0.2-0.9-0.4-1.4-0.5c-1.2-0.4-2.4-0.5-3.6-0.4c-0.1,0-0.3,0-0.4,0.1c-0.2,0-0.4,0.2-0.6,0.4
	s-0.2,0.4-0.2,0.7c0.1,0.4,0.2,0.8,0.5,1.2c0.7,1,1.5,2,2.5,2.8c0.1,0.1,0.1,0.1,0.2,0.1c0.1,0,0.2,0,0.2,0c0.8-0.1,1.5-0.3,2.2-0.5
	C-168.3,422.4-167.7,422.2-167.2,422.1z M-158.1,424.3c0.1,0.6,0.3,1.4,0.4,2.1c0.4,2.8,0,5.7-1.2,8.3c-0.5,1.2-1.1,2.3-1.9,3.4
	c-0.3,0.5-0.7,1-1.1,1.5c-0.1,0.1-0.1,0.1-0.2,0.2s-0.2,0-0.3,0c-0.1-0.1-0.2-0.1-0.3-0.2c-0.4-0.2-0.7-0.4-1.1-0.6
	c-1.5-0.9-3-1.9-4.3-3c-0.7-0.6-1.3-1.2-1.9-1.9c-0.5-0.5-0.8-1.1-1.1-1.8c-0.2-0.3-0.2-0.7-0.2-1.1c0-0.4,0.2-0.7,0.4-1
	c0.3-0.4,0.6-0.8,0.9-1.1c0.6-0.5,1.2-1,1.9-1.4c0.7-0.5,2.1-1.3,3-1.7c0.8-0.4,1.5-0.7,2.3-1.1c0.3-0.2,0.7-0.3,1-0.5
	c0,0,0-0.1,0.1-0.1c0,0-0.1,0-0.1,0c-0.1,0-0.2,0-0.3,0c-0.8,0.2-1.6,0.4-2.4,0.6c-0.5,0.1-1,0.3-1.5,0.4c-0.7,0.2-1.5,0.4-2.2,0.6
	c-0.7,0.2-1.3,0.3-2,0.5c-0.4,0.1-0.7,0.1-1.1,0c-0.3-0.1-0.6-0.2-0.9-0.3c-0.4-0.2-0.8-0.4-1.2-0.7c-0.6-0.4-1.1-0.9-1.6-1.4
	c-1-1-1.9-2.1-2.7-3.3c-0.3-0.5-0.6-1-0.9-1.5c-0.3-0.6-0.6-1.3-0.8-1.9c-0.2-0.5-0.3-1-0.3-1.4c0-0.2,0-0.4,0.1-0.5
	c0.1-0.1,0.2-0.3,0.3-0.3c0.2-0.1,0.3-0.1,0.5-0.2c1.4-0.5,2.9-0.7,4.3-0.7c1.4,0.1,2.7,0.3,4,0.7c1.1,0.4,2.2,0.8,3.2,1.4
	c1.2,0.6,2.3,1.3,3.4,2c1.5,1,2.9,2.1,4.3,3.3c0.2,0.2,0.4,0.4,0.5,0.7C-158.5,423-158.2,423.7-158.1,424.3z"/>
<path class="st0" d="M-144.3,409.9c-0.1-0.1-0.2-0.3-0.3-0.5c-0.1-0.1-0.2-0.2-0.4-0.2c-0.1,0-0.3-0.1-0.5,0c-0.2,0-0.3,0.1-0.5,0.2
	c-0.4,0.2-0.7,0.4-1.1,0.7c-0.8,0.5-1.4,1.2-2,1.9c-0.5,0.7-1,1.4-1.4,2.2c-0.5,1-0.9,2-1.3,3c0,0.1,0,0.1,0,0.2
	c0,0.1,0.1,0.1,0.2,0.1c0,0,0.1,0,0.1,0c0.9-0.3,1.8-0.6,2.6-1c0.6-0.2,1.1-0.5,1.7-0.6c0.7-0.3,1.4-0.6,2.1-0.9
	c0.1,0,0.1-0.1,0.1-0.1c0,0,0.1-0.1,0.1-0.1c0.2-1.1,0.4-2.3,0.4-3.4C-144.2,410.8-144.2,410.4-144.3,409.9z M-154.9,422.9
	c-0.1-0.5-0.3-1-0.4-1.5c-0.1-0.3-0.1-0.6,0-0.8c0.5-1.6,1-3.2,1.6-4.8c0.4-1,0.8-2.1,1.3-3.1c0.5-1,1.1-2,1.7-3
	c0.5-0.8,1.1-1.5,1.8-2.2c0.9-1,2-1.8,3.1-2.4c0.3-0.1,0.5-0.3,0.8-0.4c0.6-0.3,1.3-0.5,1.9-0.7c0.2,0,0.3-0.1,0.5-0.1
	c0.1,0,0.2,0,0.2,0.1c0.1,0.1,0.2,0.1,0.3,0.2c0.3,0.3,0.4,0.6,0.6,0.9c0.2,0.6,0.4,1.3,0.5,1.9c0.2,1.3,0.3,2.5,0.2,3.8
	c0,1.3-0.2,2.5-0.4,3.7c-0.1,0.7-0.3,1.4-0.6,2c-0.1,0.4-0.3,0.7-0.6,1c-0.2,0.3-0.4,0.5-0.7,0.7c-0.1,0.1-0.2,0.1-0.3,0.2
	c0,0-0.1,0-0.1,0c-1.6,0.5-3.2,1.2-4.8,1.7c-0.3,0.1-0.6,0.2-1,0.4c-0.8,0.4-1.6,0.6-2.4,0.9c0,0,0,0.1-0.1,0.1c0,0,0.1,0,0.1,0
	c0.8-0.2,1.7-0.3,2.5-0.5c1.7-0.3,3.3-0.5,5-0.5c0.7,0,1.3,0,2,0.1c0.6,0.1,1.2,0.3,1.7,0.6c0.1,0.1,0.3,0.2,0.4,0.3
	c0.1,0.1,0.1,0.2,0.2,0.3c0.2,0.5,0.4,1.1,0.4,1.6c0,0.9,0,1.8-0.2,2.7c-0.1,0.7-0.3,1.3-0.5,2c-0.6,1.9-1.4,3.7-2.3,5.4
	c-0.1,0.1-0.2,0.3-0.3,0.4c0,0-0.1,0.1-0.1,0.1c0,0-0.1,0-0.1,0c-0.1,0-0.2,0-0.2,0c-2.1-0.7-4-1.6-5.8-2.8
	c-1.7-1.2-3.2-2.7-4.3-4.5C-153.9,425.4-154.5,424.2-154.9,422.9z"/>
<path class="st0" d="M-153.8,428.6c0.3,1.1,0.7,2.1,1,3.2c0.1,0.2,0.1,0.4,0.2,0.6c0,0.1,0,0.2,0,0.2c0,0.1-0.1,0.1-0.2,0.1
	c-0.4,0.2-0.9,0.3-1.3,0.4c-0.1,0-0.2,0-0.2-0.1c-0.1,0-0.1-0.1-0.1-0.2c-0.1-0.2-0.2-0.5-0.2-0.7c-0.6-2.1-1.3-4.1-1.9-6.2
	c-0.1-0.3-0.2-0.5-0.2-0.8c0-0.1,0.1-0.2,0.1-0.3c0.4-0.2,0.9-0.4,1.3-0.4c0.1,0,0.2,0,0.3,0.1c0,0.1,0.1,0.1,0.1,0.2
	c0.1,0.3,0.2,0.5,0.3,0.8C-154.5,426.6-154.1,427.6-153.8,428.6L-153.8,428.6z"/>
<path class="st0" d="M-155.9,422.2c0.1,0.4,0.2,0.8,0.3,1.2c0,0.1,0,0.2-0.1,0.2s-0.1,0.1-0.2,0.1c-0.4,0.2-0.9,0.3-1.3,0.4
	c-0.1,0-0.1,0-0.2-0.1c0,0-0.1-0.1-0.1-0.2c-0.2-0.8-0.5-1.5-0.7-2.3c0-0.1,0-0.1,0-0.2c0-0.1,0.1-0.1,0.1-0.2
	c0.4-0.2,0.9-0.3,1.3-0.4c0.1,0,0.1,0,0.2,0c0.1,0,0.1,0,0.1,0.1c0.1,0.2,0.1,0.3,0.2,0.5C-156,421.7-156,421.9-155.9,422.2
	L-155.9,422.2z"/>
<path class="st0" d="M-157,418.5c-0.1,0-0.1-0.1-0.2-0.2c0-0.1-0.1-0.2,0-0.3c0.1-0.5,0.3-1.1,0.4-1.6c0-0.2,0.1-0.4,0.1-0.5
	c0-0.2,0-0.4,0-0.5c-0.1-0.2-0.1-0.4-0.2-0.6c0-0.1,0-0.2,0-0.2c0-0.1,0.1-0.1,0.1-0.2c0.1-0.1,0.2-0.2,0.4-0.3
	c0.1-0.1,0.2-0.1,0.3-0.1c0.1,0,0.2,0.1,0.3,0.2c0.2,0.3,0.3,0.6,0.3,0.9c0,0.1,0,0.3-0.1,0.4c-0.1,0.3-0.3,0.5-0.4,0.8l-1,1.8
	C-156.9,418.2-157,418.3-157,418.5L-157,418.5z"/>
<path class="st0" d="M-158.5,419c-1.1-0.5-2.2-1.1-3.3-1.7c-0.1,0-0.2-0.1-0.2-0.2c-0.1-0.3-0.2-0.6-0.3-1c0-0.2,0.2-0.4,0.5-0.4
	c0.2,0,0.4,0,0.6,0.1c0.1,0,0.1,0.1,0.2,0.1c0.1,0.2,0.2,0.3,0.2,0.5c0.1,0.3,0.3,0.6,0.5,0.8c0.5,0.5,1,0.9,1.6,1.4
	C-158.8,418.6-158.6,418.8-158.5,419L-158.5,419z"/>
<path class="st0" d="M-157.8,419.3c0.2-0.1,0.3-0.1,0.5,0c0.2,0.1,0.3,0.2,0.4,0.3c0.1,0.2,0.1,0.3,0,0.5c-0.1,0.2-0.2,0.3-0.3,0.3
	c-0.1,0.1-0.3,0.1-0.5,0.1c-0.1,0-0.2,0-0.2,0c-0.1,0-0.3-0.1-0.3-0.2c-0.1-0.1-0.1-0.3-0.1-0.4c0-0.2,0.1-0.3,0.2-0.4
	C-158.1,419.4-158,419.4-157.8,419.3z"/>
<path class="st0" d="M-157,418.4l-0.1,0h-0.1C-157.2,418.4-157.2,418.3-157,418.4C-157,418.4-157,418.4-157,418.4L-157,418.4z"/>
<path class="st0" d="M-158.7,419L-158.7,419C-158.8,419-158.8,419-158.7,419L-158.7,419z"/>
</svg>
