<svg width="252" height="240" viewBox="0 0 252 240" fill="none" xmlns="http://www.w3.org/2000/svg">
<rect width="252" height="240" rx="12" fill="#F7F8FA"/>
<rect x="8" y="205" width="91" height="27" rx="8" fill="#FF5F4B"/>
<path d="M20.4773 215.598V214.273H27.4403V215.598H24.7429V223H23.1747V215.598H20.4773ZM30.6204 223.128C29.9812 223.128 29.4272 222.987 28.9585 222.706C28.4897 222.425 28.1261 222.031 27.8675 221.526C27.6119 221.02 27.484 220.429 27.484 219.753C27.484 219.077 27.6119 218.484 27.8675 217.976C28.1261 217.467 28.4897 217.072 28.9585 216.791C29.4272 216.51 29.9812 216.369 30.6204 216.369C31.2596 216.369 31.8136 216.51 32.2823 216.791C32.7511 217.072 33.1133 217.467 33.369 217.976C33.6275 218.484 33.7567 219.077 33.7567 219.753C33.7567 220.429 33.6275 221.02 33.369 221.526C33.1133 222.031 32.7511 222.425 32.2823 222.706C31.8136 222.987 31.2596 223.128 30.6204 223.128ZM30.6289 221.892C30.9755 221.892 31.2653 221.797 31.4982 221.607C31.7312 221.413 31.9045 221.155 32.0181 220.831C32.1346 220.507 32.1928 220.146 32.1928 219.749C32.1928 219.348 32.1346 218.986 32.0181 218.662C31.9045 218.335 31.7312 218.075 31.4982 217.882C31.2653 217.689 30.9755 217.592 30.6289 217.592C30.2738 217.592 29.9783 217.689 29.7425 217.882C29.5096 218.075 29.3349 218.335 29.2184 218.662C29.1048 218.986 29.0479 219.348 29.0479 219.749C29.0479 220.146 29.1048 220.507 29.2184 220.831C29.3349 221.155 29.5096 221.413 29.7425 221.607C29.9783 221.797 30.2738 221.892 30.6289 221.892ZM35.0661 225.455V216.455H36.5831V217.537H36.6726C36.7521 217.378 36.8643 217.209 37.0092 217.03C37.1541 216.848 37.3501 216.693 37.5973 216.565C37.8445 216.435 38.1598 216.369 38.5433 216.369C39.049 216.369 39.505 216.499 39.9112 216.757C40.3203 217.013 40.6442 217.392 40.8828 217.895C41.1243 218.395 41.245 219.009 41.245 219.736C41.245 220.455 41.1271 221.065 40.8913 221.568C40.6555 222.071 40.3345 222.455 39.9283 222.719C39.522 222.983 39.0618 223.115 38.5476 223.115C38.1726 223.115 37.8615 223.053 37.6143 222.928C37.3672 222.803 37.1683 222.652 37.0178 222.476C36.87 222.297 36.755 222.128 36.6726 221.969H36.6087V225.455H35.0661ZM36.5788 219.727C36.5788 220.151 36.6385 220.521 36.7578 220.839C36.88 221.158 37.0547 221.406 37.282 221.585C37.5121 221.761 37.7905 221.849 38.1172 221.849C38.4581 221.849 38.7436 221.759 38.9737 221.577C39.2038 221.392 39.3771 221.141 39.4936 220.822C39.6129 220.501 39.6726 220.136 39.6726 219.727C39.6726 219.321 39.6143 218.96 39.4979 218.645C39.3814 218.33 39.2081 218.082 38.978 217.903C38.7479 217.724 38.4609 217.635 38.1172 217.635C37.7876 217.635 37.5078 217.722 37.2777 217.895C37.0476 218.068 36.8729 218.311 36.7536 218.624C36.6371 218.936 36.5788 219.304 36.5788 219.727ZM45.5426 223V216.455H47.017V217.567H47.0938C47.2301 217.192 47.456 216.899 47.7713 216.689C48.0866 216.476 48.4631 216.369 48.9006 216.369C49.3438 216.369 49.7173 216.477 50.0213 216.693C50.3281 216.906 50.544 217.197 50.669 217.567H50.7372C50.8821 217.203 51.1264 216.913 51.4702 216.697C51.8168 216.479 52.2273 216.369 52.7017 216.369C53.304 216.369 53.7955 216.56 54.1761 216.94C54.5568 217.321 54.7472 217.876 54.7472 218.607V223H53.2003V218.845C53.2003 218.439 53.0923 218.142 52.8764 217.955C52.6605 217.764 52.3963 217.669 52.0838 217.669C51.7116 217.669 51.4205 217.786 51.2102 218.018C51.0028 218.249 50.8991 218.548 50.8991 218.918V223H49.3864V218.781C49.3864 218.443 49.2841 218.173 49.0795 217.972C48.8778 217.77 48.6136 217.669 48.2869 217.669C48.0653 217.669 47.8636 217.726 47.6818 217.839C47.5 217.95 47.3551 218.108 47.2472 218.312C47.1392 218.514 47.0852 218.75 47.0852 219.02V223H45.5426ZM59.2099 223.128C58.5536 223.128 57.9869 222.991 57.5096 222.719C57.0352 222.443 56.6701 222.054 56.4144 221.551C56.1587 221.045 56.0309 220.45 56.0309 219.766C56.0309 219.092 56.1587 218.501 56.4144 217.993C56.6729 217.482 57.0337 217.084 57.4968 216.8C57.9599 216.513 58.5039 216.369 59.1289 216.369C59.5323 216.369 59.913 216.435 60.271 216.565C60.6317 216.693 60.9499 216.892 61.2255 217.162C61.5039 217.432 61.7227 217.776 61.8817 218.193C62.0408 218.608 62.1204 219.102 62.1204 219.676V220.149H56.7553V219.109H60.6417C60.6388 218.814 60.5749 218.551 60.4499 218.321C60.3249 218.088 60.1502 217.905 59.9258 217.771C59.7042 217.638 59.4457 217.571 59.1502 217.571C58.8349 217.571 58.5579 217.648 58.3192 217.801C58.0806 217.952 57.8945 218.151 57.761 218.398C57.6303 218.642 57.5636 218.911 57.5607 219.203V220.111C57.5607 220.491 57.6303 220.818 57.7695 221.091C57.9087 221.361 58.1033 221.568 58.3533 221.713C58.6033 221.855 58.896 221.926 59.2312 221.926C59.4556 221.926 59.6587 221.895 59.8406 221.832C60.0224 221.767 60.18 221.672 60.3136 221.547C60.4471 221.422 60.5479 221.267 60.6161 221.082L62.0565 221.244C61.9656 221.625 61.7923 221.957 61.5366 222.241C61.2837 222.523 60.9599 222.741 60.565 222.898C60.1701 223.051 59.7184 223.128 59.2099 223.128ZM64.968 219.165V223H63.4254V216.455H64.8999V217.567H64.9766C65.1271 217.2 65.3672 216.909 65.6967 216.693C66.0291 216.477 66.4396 216.369 66.9283 216.369C67.38 216.369 67.7734 216.466 68.1087 216.659C68.4467 216.852 68.7081 217.132 68.8928 217.499C69.0803 217.865 69.1726 218.31 69.1697 218.832V223H67.6271V219.071C67.6271 218.634 67.5135 218.291 67.2862 218.044C67.0618 217.797 66.7507 217.673 66.353 217.673C66.0831 217.673 65.843 217.733 65.6328 217.852C65.4254 217.969 65.2621 218.138 65.1428 218.359C65.0263 218.581 64.968 218.849 64.968 219.165ZM74.0064 216.455V217.648H70.2436V216.455H74.0064ZM71.1726 214.886H72.7152V221.031C72.7152 221.239 72.7464 221.398 72.8089 221.509C72.8743 221.616 72.9595 221.69 73.0646 221.73C73.1697 221.77 73.2862 221.79 73.4141 221.79C73.5107 221.79 73.5987 221.783 73.6783 221.768C73.7607 221.754 73.8232 221.741 73.8658 221.73L74.1257 222.936C74.0433 222.964 73.9254 222.996 73.772 223.03C73.6214 223.064 73.4368 223.084 73.218 223.089C72.8317 223.101 72.4837 223.043 72.174 222.915C71.8643 222.784 71.6186 222.582 71.4368 222.31C71.2578 222.037 71.1697 221.696 71.1726 221.287V214.886ZM78.0813 223.128C77.4421 223.128 76.8881 222.987 76.4194 222.706C75.9506 222.425 75.587 222.031 75.3285 221.526C75.0728 221.02 74.945 220.429 74.945 219.753C74.945 219.077 75.0728 218.484 75.3285 217.976C75.587 217.467 75.9506 217.072 76.4194 216.791C76.8881 216.51 77.4421 216.369 78.0813 216.369C78.7205 216.369 79.2745 216.51 79.7433 216.791C80.212 217.072 80.5742 217.467 80.8299 217.976C81.0884 218.484 81.2177 219.077 81.2177 219.753C81.2177 220.429 81.0884 221.02 80.8299 221.526C80.5742 222.031 80.212 222.425 79.7433 222.706C79.2745 222.987 78.7205 223.128 78.0813 223.128ZM78.0898 221.892C78.4364 221.892 78.7262 221.797 78.9592 221.607C79.1921 221.413 79.3654 221.155 79.479 220.831C79.5955 220.507 79.6538 220.146 79.6538 219.749C79.6538 219.348 79.5955 218.986 79.479 218.662C79.3654 218.335 79.1921 218.075 78.9592 217.882C78.7262 217.689 78.4364 217.592 78.0898 217.592C77.7347 217.592 77.4393 217.689 77.2035 217.882C76.9705 218.075 76.7958 218.335 76.6793 218.662C76.5657 218.986 76.5089 219.348 76.5089 219.749C76.5089 220.146 76.5657 220.507 76.6793 220.831C76.7958 221.155 76.9705 221.413 77.2035 221.607C77.4393 221.797 77.7347 221.892 78.0898 221.892ZM82.527 223V216.455H84.0227V217.545H84.0909C84.2102 217.168 84.4148 216.876 84.7045 216.672C84.9972 216.464 85.331 216.361 85.706 216.361C85.7912 216.361 85.8864 216.365 85.9915 216.374C86.0994 216.379 86.1889 216.389 86.2599 216.403V217.822C86.1946 217.8 86.0909 217.78 85.9489 217.763C85.8097 217.743 85.6747 217.733 85.544 217.733C85.2628 217.733 85.0099 217.794 84.7855 217.916C84.5639 218.036 84.3892 218.202 84.2614 218.415C84.1335 218.628 84.0696 218.874 84.0696 219.152V223H82.527Z" fill="white"/>
<path d="M125.8 120C122.866 120 120.355 118.956 118.266 116.867C116.178 114.778 115.133 112.267 115.133 109.333C115.133 106.4 116.178 103.889 118.266 101.8C120.355 99.7111 122.866 98.6667 125.8 98.6667C128.733 98.6667 131.244 99.7111 133.333 101.8C135.422 103.889 136.466 106.4 136.466 109.333C136.466 112.267 135.422 114.778 133.333 116.867C131.244 118.956 128.733 120 125.8 120ZM104.466 136V133.867C104.466 132.356 104.856 130.967 105.634 129.701C106.413 128.436 107.446 127.468 108.733 126.8C111.489 125.422 114.289 124.389 117.133 123.701C119.978 123.013 122.866 122.668 125.8 122.667C128.733 122.667 131.622 123.012 134.466 123.701C137.311 124.391 140.111 125.424 142.866 126.8C144.155 127.467 145.189 128.434 145.968 129.701C146.746 130.969 147.135 132.357 147.133 133.867V136C147.133 137.467 146.611 138.723 145.568 139.768C144.524 140.813 143.268 141.335 141.8 141.333H109.8C108.333 141.333 107.078 140.812 106.034 139.768C104.991 138.724 104.468 137.468 104.466 136Z" fill="#DEDEE1"/>
</svg>
