<svg width="607" height="305" fill="none" xmlns="http://www.w3.org/2000/svg"><path d="M133.865 60.304q3.744-.096 6.432 2.592 2.688 2.592 2.688 6.336 0 3.648-2.592 6.336t-6.336 2.688l-28.8.384h-.096q-3.648 0-6.337-2.592-2.687-2.688-2.687-6.432l-.288-46.656q0-3.744 2.591-6.336 2.593-2.688 6.337-2.688 3.744.096 6.336 2.688 2.688 2.592 2.688 6.24l.288 37.632zm44.262 1.152q3.744-.288 6.528 2.112 2.88 2.4 3.168 6.144a8.87 8.87 0 0 1-.864 4.608q-1.056 2.112-3.072 3.552-1.92 1.344-4.32 1.536-10.176.768-16.8.768-9.024 0-12.48-1.728t-5.28-7.584q-1.728-5.952-1.92-12.96t.192-14.016.96-11.424q.576-4.512.672-4.8.384-1.056.672-1.632.384-.672 1.344-1.824 1.056-1.248 2.304-2.016t3.648-1.728 5.472-1.44q3.072-.576 7.68-.96 4.704-.384 10.368-.288 3.648.096 6.24 2.784 2.688 2.592 2.592 6.336a8.7 8.7 0 0 1-.768 3.552 7.75 7.75 0 0 1-1.92 2.784q-1.248 1.152-2.976 1.92a9 9 0 0 1-3.456.672q-8.64-.096-14.592.864-.096 1.248-.192 3.36h16.896q3.744 0 6.336 2.688 2.688 2.592 2.688 6.336t-2.688 6.336Q181.967 58 178.223 58h-17.088q.096 2.592.288 4.128 6.912.096 16.704-.672m49.671-37.344q2.976 3.072 5.088 7.584a41 41 0 0 1 3.264 9.408q1.056 4.896 1.728 9.504t.672 9.312q.096 4.608 0 7.2 0 2.592-.192 4.704-.288 3.648-3.072 6.144-2.784 2.4-6.528 2.208-3.744-.288-6.24-3.072-2.4-2.88-2.112-6.624.192-2.4.192-6.24l-12.96.384q.288 3.84.768 7.104.384 2.496-.48 4.704t-2.784 3.744q-1.824 1.44-4.224 1.824-.672.096-1.44.096-3.264 0-5.856-2.112-2.496-2.112-2.976-5.472-.48-2.784-.864-6.144-.384-3.456-.576-9.888-.096-6.432.384-12 .576-5.664 2.496-11.712 1.92-6.144 5.184-9.984 5.952-7.008 15.072-7.104 9.12-.192 15.456 6.432m-20.064 22.464 11.136-.288q-1.536-7.104-4.032-9.696-.96-.96-2.208-.96-.96 0-1.632.768-2.304 2.784-3.264 10.176m77.116 18.048q2.976 2.208 3.456 5.952.48 3.648-1.728 6.624-2.688 3.552-7.2 3.552-2.976 0-5.376-1.824L258.93 67.6v4.416q0 3.744-2.592 6.432-2.592 2.592-6.336 2.592t-6.432-2.592q-2.592-2.688-2.592-6.432V24.304q.096-.48.096-.96.096-.48.192-.864l.288-.864q.192-.48.288-.768t.384-.768.48-.768.576-.672l.576-.576q.192-.192.672-.576.384-.288.672-.48l.768-.384q.48-.288.864-.384.288-.096.768-.288.576-.096.96-.192h.096q.192 0 .192-.096 15.84-1.824 26.784 2.88t12.384 14.112q.288 1.152.096 2.784a23.5 23.5 0 0 1-.48 3.456q-.288 1.728-1.536 3.84a21.2 21.2 0 0 1-2.88 4.032q-1.728 1.92-4.8 4.032-2.976 2.016-6.912 3.744zm-25.92-24.672q7.008-2.112 10.176-4.608-3.648-1.824-10.176-2.112zm88.378-11.04.768 40.224a9 9 0 0 1-1.536 5.088q-1.44 2.304-4.032 3.456-2.496 1.056-5.28.48-2.688-.576-4.608-2.496l-24.096-24.288.192 22.272q0 3.744-2.688 6.432-2.592 2.688-6.24 2.688h-.096q-3.744 0-6.432-2.592-2.592-2.688-2.592-6.336l-.288-44.448q0-2.688 1.44-4.992 1.536-2.304 4.032-3.36 2.592-1.056 5.28-.48 2.688.48 4.608 2.496l23.904 24-.384-17.856q0-2.4 1.152-4.512a8.9 8.9 0 0 1 3.168-3.36 8.7 8.7 0 0 1 4.512-1.248q3.744-.096 6.432 2.496t2.784 6.336m11.125 34.56q3.456 0 5.952 2.496t2.496 5.952q0 3.36-2.496 5.856t-5.952 2.496-5.953-2.4q-2.399-2.496-2.399-5.952t2.399-5.952q2.497-2.496 5.953-2.496m-84.214 60.14q3.707-.522 6.635 1.685 3.022 2.191 3.53 5.805.617 3.694-1.672 6.73-2.192 3.022-5.9 3.543l-9.588 1.445 5.17 36.79q.522 3.708-1.78 6.649-2.206 2.928-5.913 3.448-3.613.508-6.635-1.685-2.928-2.205-3.449-5.913l-5.13-36.505-10.159 1.524-.095.014q-3.708.52-6.73-1.672-2.928-2.206-3.449-5.914-.507-3.612 1.685-6.635t5.887-3.638l37.498-5.658zm62.035-1.06 6.875 45.469q.522 3.708-1.671 6.73t-5.9 3.544l-.096.013q-3.612.508-6.635-1.685-2.927-2.205-3.543-5.9l-1.926-13.01-14.668 2.546 3.639 17.617q.711 3.68-1.373 6.785-1.99 3.09-5.657 3.897l-.57.08q-3.518.495-6.432-1.616-2.9-2.016-3.585-5.507l-10.099-48.41q-.713-3.68 1.278-6.771 2.07-3.2 5.751-3.911 3.667-.806 6.772 1.278t3.802 5.67l2.74 13.284 15.714-2.693-2.18-14.817q-.602-3.599 1.59-6.622 2.287-3.036 5.901-3.543 3.802-.535 6.73 1.671 3.023 2.193 3.543 5.901m13.86 6.098q3.721-.426 6.662 1.875t3.367 6.022l3.316 28.423q.52 3.708-1.78 6.649-2.22 2.832-5.832 3.34l-.19.027q-3.722.426-6.662-1.876-2.942-2.3-3.354-5.927l-3.424-28.504q-.426-3.721 1.78-6.649 2.301-2.94 6.117-3.38m-7.33-6.628q-2.26-2.979-1.804-6.63.443-3.745 3.421-6.006l.966-.718q2.978-2.26 6.629-1.804 3.747.443 6.007 3.421 2.247 2.884 1.804 6.63-.457 3.651-3.421 6.006l-.966.718a9.3 9.3 0 0 1-4.308 1.768q-2.281.321-4.533-.526a9.4 9.4 0 0 1-3.795-2.859m75.792-6.678 6.358 39.726a8.97 8.97 0 0 1-.813 5.252q-1.105 2.483-3.511 3.984-2.325 1.393-5.162 1.21a9.07 9.07 0 0 1-4.911-1.83l-27.242-20.698 3.29 22.028q.522 3.708-1.766 6.744-2.193 3.022-5.806 3.53l-.095.013q-3.707.521-6.73-1.671-2.94-2.301-3.448-5.914l-6.472-43.975a9.25 9.25 0 0 1 .732-5.144q1.2-2.496 3.525-3.889 2.42-1.406 5.162-1.21 2.729.102 4.91 1.831l27.012 20.439-2.866-17.629a9.3 9.3 0 0 1 .513-4.628 8.9 8.9 0 0 1 2.67-3.768 8.7 8.7 0 0 1 4.294-1.864q3.695-.616 6.717 1.577 3.023 2.192 3.639 5.886m62.833 24.324q3.46 1.162 5.095 4.519 1.73 3.344.486 6.912a8.8 8.8 0 0 1-2.819 4.08 8.4 8.4 0 0 1-4.376 1.972q-2.187.307-4.127-.389l-29.723-10.074 1.354 7.566q.697 3.585-1.481 6.703-2.098 3.009-5.779 3.72l-.38.054q-3.518.494-6.527-1.603-2.914-2.112-3.517-5.71l-8.743-47.728q-.616-3.694 1.481-6.704 2.085-3.104 5.779-3.72 3.681-.711 6.69 1.386 3.103 2.085 3.72 5.779l2.092 11.436 25.333-17.714q2.992-2.166 6.67-1.519 3.678.646 5.761 3.747 2.166 2.991 1.519 6.669-.646 3.678-3.638 5.843l-22.246 15.536zm14.08-.233q3.422-.481 6.242 1.643 2.818 2.124 3.3 5.547.467 3.327-1.657 6.146t-5.547 3.3q-3.422.482-6.228-1.548-2.724-2.138-3.205-5.56-.48-3.423 1.548-6.228 2.125-2.82 5.547-3.3M30.816 246.448q1.824 1.056 2.784 1.632t2.784 1.728q1.92 1.152 2.976 2.112a80 80 0 0 1 2.784 2.208q1.728 1.344 2.688 2.688 1.056 1.248 2.208 2.976 1.248 1.632 1.824 3.36t.96 3.744q.48 2.016.384 4.32 0 2.304-.48 4.8-1.536 6.912-8.64 11.232-6.624 4.128-16.128 4.128-6.912 0-14.976-2.208-3.552-.96-5.472-4.224-1.824-3.264-.864-6.816 1.056-3.648 4.224-5.472 3.264-1.824 6.912-.864 4.992 1.344 8.928 1.536 4.032.096 5.856-.384 1.824-.576 2.688-1.344.096-1.44-.672-2.592-.672-1.152-2.88-2.688-2.208-1.632-6.816-4.224a232 232 0 0 1-4.896-2.88q-1.728-1.056-4.704-3.168-2.88-2.208-4.608-4.128t-3.36-4.8a25 25 0 0 1-2.4-6.144q-1.056-5.376.768-10.56t5.952-8.928a24.6 24.6 0 0 1 4.224-2.88q2.4-1.248 5.952-2.208 3.648-1.056 8.64-.672 5.088.288 10.656 2.208 3.552 1.248 5.184 4.608 1.728 3.264.48 6.816-1.152 3.552-4.512 5.184t-6.912.48q-8.448-2.88-11.808 0-1.248 1.152-1.056 2.112.384 1.536 2.208 3.36 1.92 1.728 3.648 2.88 1.824 1.056 5.472 3.072M98.578 238q.288 2.304.192 4.608 0 2.304-.96 4.704a24.6 24.6 0 0 1-2.304 4.704q-1.344 2.304-3.84 4.608-2.4 2.304-5.472 4.32-3.072 1.92-7.296 3.84-4.224 1.824-9.312 3.168v8.16q0 3.648-2.592 6.336-2.592 2.592-6.336 2.592t-6.432-2.592q-2.592-2.688-2.592-6.336V228.4l.096-.576q.192-2.304 1.44-4.128 1.248-1.92 3.168-2.976a9.2 9.2 0 0 1 4.32-1.056h.48q8.256-.96 15.168.192t11.424 3.936q4.608 2.784 7.296 6.432 2.784 3.648 3.552 7.776m-28.896 11.04q3.936-1.536 6.72-3.36t3.648-2.88.864-1.536q-.192-.576-1.344-1.344-1.152-.864-3.84-1.632-2.688-.864-6.048-.96zm64.883 16.416q3.744-.288 6.528 2.112 2.88 2.4 3.168 6.144a8.87 8.87 0 0 1-.864 4.608q-1.056 2.112-3.072 3.552-1.92 1.344-4.32 1.536-10.176.768-16.8.768-9.024 0-12.48-1.728t-5.28-7.584q-1.728-5.952-1.92-12.96t.192-14.016.96-11.424q.576-4.512.672-4.8.384-1.056.672-1.632.384-.672 1.344-1.824 1.056-1.248 2.304-2.016t3.648-1.728 5.472-1.44q3.072-.576 7.68-.96 4.704-.384 10.368-.288 3.648.096 6.24 2.784 2.688 2.592 2.592 6.336a8.7 8.7 0 0 1-.768 3.552 7.75 7.75 0 0 1-1.92 2.784q-1.248 1.152-2.976 1.92a9 9 0 0 1-3.456.672q-8.64-.096-14.592.864-.096 1.248-.192 3.36h16.896q3.744 0 6.336 2.688 2.688 2.592 2.688 6.336t-2.688 6.336Q138.405 262 134.661 262h-17.088q.096 2.592.288 4.128 6.912.096 16.704-.672m49.67-37.344q2.976 3.072 5.088 7.584a41 41 0 0 1 3.264 9.408q1.056 4.896 1.728 9.504t.672 9.312q.096 4.608 0 7.2 0 2.592-.192 4.704-.288 3.648-3.072 6.144-2.784 2.4-6.528 2.208-3.744-.288-6.24-3.072-2.4-2.88-2.112-6.624.192-2.4.192-6.24l-12.96.384q.288 3.84.768 7.104.384 2.496-.48 4.704t-2.784 3.744q-1.824 1.44-4.224 1.824-.672.096-1.44.096-3.264 0-5.856-2.112-2.496-2.112-2.976-5.472-.48-2.784-.864-6.144-.384-3.456-.576-9.888-.096-6.432.384-12 .576-5.664 2.496-11.712 1.92-6.144 5.184-9.984 5.952-7.008 15.072-7.104 9.12-.192 15.456 6.432m-20.064 22.464 11.136-.288q-1.536-7.104-4.032-9.696-.96-.96-2.208-.96-.96 0-1.632.768-2.304 2.784-3.264 10.176m88.349 15.168q3.264 1.632 4.416 5.184 1.248 3.552-.48 6.912a8.8 8.8 0 0 1-3.36 3.648 8.4 8.4 0 0 1-4.608 1.344q-2.208 0-4.032-.96l-28.032-14.112.288 7.68q.192 3.648-2.4 6.432-2.496 2.688-6.24 2.88h-.384q-3.552 0-6.24-2.496-2.592-2.496-2.688-6.144l-2.016-48.48q-.096-3.744 2.4-6.432 2.496-2.784 6.24-2.88 3.744-.192 6.432 2.304 2.784 2.496 2.88 6.24l.48 11.616 27.552-14.016q3.264-1.728 6.816-.576t5.184 4.512q1.728 3.264.576 6.816t-4.416 5.28l-24.192 12.288zm65.795-.288q3.744-.288 6.528 2.112 2.88 2.4 3.168 6.144a8.87 8.87 0 0 1-.864 4.608q-1.056 2.112-3.072 3.552-1.92 1.344-4.32 1.536-10.176.768-16.8.768-9.024 0-12.48-1.728t-5.28-7.584q-1.728-5.952-1.92-12.96t.192-14.016.96-11.424q.576-4.512.672-4.8.384-1.056.672-1.632.384-.672 1.344-1.824 1.056-1.248 2.304-2.016t3.648-1.728 5.472-1.44q3.072-.576 7.68-.96 4.704-.384 10.368-.288 3.648.096 6.24 2.784 2.688 2.592 2.592 6.336a8.7 8.7 0 0 1-.768 3.552 7.75 7.75 0 0 1-1.92 2.784q-1.248 1.152-2.976 1.92a9 9 0 0 1-3.456.672q-8.64-.096-14.592.864-.096 1.248-.192 3.36h16.896q3.744 0 6.336 2.688 2.688 2.592 2.688 6.336t-2.688 6.336Q322.155 262 318.411 262h-17.088q.096 2.592.288 4.128 6.912.096 16.704-.672m68.774-32.544.768 40.224a9 9 0 0 1-1.536 5.088q-1.44 2.304-4.032 3.456-2.496 1.056-5.28.48-2.688-.576-4.608-2.496l-24.096-24.288.192 22.272q0 3.744-2.688 6.432-2.592 2.688-6.24 2.688h-.096q-3.744 0-6.432-2.592-2.592-2.688-2.592-6.336l-.288-44.448q0-2.688 1.44-4.992 1.536-2.304 4.032-3.36 2.592-1.056 5.28-.48 2.688.48 4.608 2.496l23.904 24-.384-17.856q0-2.4 1.152-4.512a8.9 8.9 0 0 1 3.168-3.36 8.7 8.7 0 0 1 4.512-1.248q3.744-.096 6.432 2.496t2.784 6.336m52.021 48.48q.48 3.744-1.824 6.72-2.208 2.976-5.952 3.456a7 7 0 0 1-1.152.096q-3.36 0-5.952-2.304-2.496-2.208-2.976-5.568l-.672-4.704q-5.088 2.016-9.888 2.016-6.912 0-12.192-4.032-6.72-5.088-8.64-14.976t2.016-19.392q4.224-10.176 13.248-15.264t20.448-3.648q3.648.48 5.952 3.456t1.824 6.624q-.384 2.496-1.824 4.416-1.44 1.824-3.648 2.784a8.1 8.1 0 0 1-4.608.576q-10.944-1.344-14.688 7.872-1.632 4.512-1.248 8.256t2.112 4.992q.576.768 2.976.096 2.496-.672 5.664-2.688l-.768-5.952q-.48-3.648 1.728-6.624 2.304-2.976 5.952-3.456 3.744-.48 6.624 1.824 2.976 2.208 3.552 5.856zm34.81-16.416q-3.744-.288-6.24-3.168-2.4-2.88-2.112-6.624l.576-8.352q.288-3.744 3.168-6.144 2.88-2.496 6.528-2.208 3.744.192 6.24 3.072t2.208 6.624l-.576 8.352q-.288 3.552-2.976 6.048-2.592 2.4-6.144 2.4zm2.976-29.28q-4.8 0-7.488-4.032-2.112-3.168-1.44-6.816.768-3.744 3.936-5.76l.864-.672q3.168-2.016 6.816-1.248 3.648.672 5.76 3.84 2.112 3.072 1.344 6.816-.672 3.648-3.84 5.664l-.864.672a9 9 0 0 1-5.088 1.536m1.536 31.2q3.744 0 6.432 2.688t2.688 6.432-2.688 6.432-6.432 2.688h-28.704q-3.744 0-6.432-2.592-2.592-2.688-2.592-6.432l-.48-46.848q0-3.744 2.592-6.432t6.432-2.688h.096q3.648 0 6.336 2.592t2.688 6.336l.384 37.824zm36.354-20.256a63 63 0 0 1 2.304 1.344q.864.48 2.496 1.536 1.632.96 2.592 1.824.96.768 2.4 2.016 1.536 1.152 2.4 2.304a81 81 0 0 1 1.92 2.688q1.056 1.44 1.632 3.072a23 23 0 0 1 .96 3.36q.384 1.824.288 3.936 0 2.016-.384 4.224-.48 2.88-2.496 5.568-1.92 2.688-4.992 4.704-6.048 3.84-14.784 3.84-5.952 0-12.864-1.824-3.552-.96-5.472-4.128-1.824-3.264-.864-6.816.96-3.648 4.128-5.472 3.264-1.92 6.912-.96 8.64 2.304 12.768.48-.192-1.056-1.92-2.304-1.632-1.344-5.952-3.744a223 223 0 0 0-4.128-2.4q-1.44-.864-4.032-2.784-2.496-1.92-4.032-3.648t-3.072-4.32a18.8 18.8 0 0 1-2.016-5.472q-.672-3.264-.192-6.432a17.5 17.5 0 0 1 2.112-6.048 20.7 20.7 0 0 1 4.128-5.28q1.632-1.44 3.744-2.592t5.28-2.016q3.168-.96 7.584-.672 4.512.288 9.504 1.92a8.4 8.4 0 0 1 3.84 2.592q1.632 1.824 2.016 4.128.48 2.208-.288 4.704a9.03 9.03 0 0 1-2.592 3.936 9.24 9.24 0 0 1-4.128 2.016q-2.208.384-4.608-.288-5.952-2.016-8.16-.384-.576.384-.576.768.288 1.344 2.4 2.88 2.208 1.536 6.144 3.744m70.467-18.048.48 45.984q0 3.744-2.592 6.432t-6.336 2.688h-.096q-3.648 0-6.336-2.592-2.592-2.592-2.688-6.336l-.096-13.152-14.88.48 1.152 17.952q.192 3.744-2.304 6.528-2.4 2.784-6.144 3.072h-.576q-3.552 0-6.144-2.496-2.592-2.4-2.784-5.952l-3.264-49.344q-.192-3.744 2.208-6.528 2.496-2.88 6.24-3.072 3.744-.288 6.528 2.208t2.976 6.144l.864 13.536 15.936-.48-.096-14.976q-.096-3.648 2.496-6.336 2.688-2.688 6.336-2.688 3.84 0 6.432 2.592 2.688 2.592 2.688 6.336m11.148 38.88q3.456 0 5.952 2.496t2.496 5.952q0 3.36-2.496 5.856t-5.952 2.496-5.952-2.4q-2.4-2.496-2.4-5.952t2.4-5.952q2.496-2.496 5.952-2.496" fill="#fff"/></svg>