<svg width="162" height="24" viewBox="0 0 162 24" fill="none" xmlns="http://www.w3.org/2000/svg">
<path d="M18.6676 16.932C18.6676 18.2655 17.8325 19.1316 16.6656 19.1316C15.4988 19.1316 14.6636 18.2655 14.6636 16.932V7.36703C14.6636 3.06917 11.5291 0 7.33267 0C3.13619 0 0 3.06917 0 7.36703V23.6683H5.33066V7.03365C5.33066 5.70013 6.16583 4.83403 7.33267 4.83403C8.4995 4.83403 9.33467 5.70013 9.33467 7.03365V16.7H9.33811C9.33811 20.8655 12.4726 24 16.6708 24C20.869 24 24.0034 20.8655 24.0034 16.7V0.333381H18.6693V16.9337L18.6676 16.932Z" fill="white"/>
<path d="M37.3672 0C35.4666 0 34.0317 1.2012 33.1003 3.60189L25.3672 23.6683H31.0673L32.9679 18.5662H41.6015L43.5021 23.6683H49.3655L41.6324 3.60189C40.6976 1.2012 39.2661 0 37.3655 0L37.3672 0ZM34.7379 13.7356L37.3036 6.90305L39.8383 13.7356H34.7379Z" fill="white"/>
<path d="M61.5674 0C59.2681 0 57.1682 0.532722 55.3019 1.59989C51.5677 3.73249 49.3354 7.60246 49.3354 12C49.3354 14.1996 49.8682 16.2016 50.9353 18.0335C53.0336 21.7007 56.9345 24 61.5674 24C63.8667 24 65.9667 23.4673 67.8329 22.4001C71.5672 20.2675 73.7994 16.3975 73.7994 12C73.7994 9.80037 73.2667 7.764 72.2339 5.93212C70.1013 2.26837 66.2021 0 61.5674 0ZM61.5674 18.6676C58.0309 18.6676 55.1318 15.6345 55.1318 12C55.1318 8.36546 58.0309 5.33238 61.5674 5.33238C65.104 5.33238 68.0014 8.36546 68.0014 12C68.0014 15.6345 65.1023 18.6676 61.5674 18.6676Z" fill="white"/>
<path d="M114.57 0C112.271 0 110.171 0.532722 108.304 1.59989C104.57 3.73249 102.338 7.60246 102.338 12C102.338 14.1996 102.871 16.2016 103.938 18.0335C106.036 21.7007 109.937 24 114.57 24C116.869 24 118.969 23.4673 120.835 22.4001C124.57 20.2675 126.802 16.3975 126.802 12C126.802 9.80037 126.269 7.764 125.236 5.93212C123.104 2.26837 119.203 0 114.57 0ZM114.57 18.6676C111.037 18.6676 108.138 15.6345 108.138 12C108.138 8.36546 111.033 5.33238 114.57 5.33238C118.106 5.33238 121.004 8.36546 121.004 12C121.004 15.6345 118.101 18.6676 114.57 18.6676Z" fill="white"/>
<path d="M155.975 0.333984L152.376 18.3022L149.644 6.63386C148.944 3.56469 147.042 1.99917 144.743 1.99917C142.443 1.99917 140.608 3.56812 139.909 6.63386L137.242 18.0668L133.674 0.333984H128.074L131.973 18.9672C132.672 22.399 134.307 23.9989 137.075 23.9989C139.843 23.9989 141.543 22.4299 142.342 18.9982L144.707 8.86442L147.073 18.9982C147.839 22.3337 149.706 23.9989 152.407 23.9989C155.109 23.9989 156.808 22.399 157.507 18.9672L161.408 0.333984H155.975Z" fill="white"/>
<path d="M93.18 3.00142V13.6748L84.0103 1.87755C83.3641 1.06472 82.5668 0.308594 81.1336 0.308594H80.6094C79.013 0.308594 77.7637 1.53214 77.7637 3.09765V23.6659H83.3916V9.87526L92.9222 22.1227C93.5683 22.9355 94.3623 23.6917 95.7989 23.6917H95.9622C97.5586 23.6917 98.8079 22.4681 98.8079 20.9026V0.332652H93.18V3.00314V3.00142Z" fill="white"/>
</svg>
